%TF.GenerationSoftware,KiCad,Pcbnew,(5.1.8)-1*%
%TF.CreationDate,2022-05-08T18:20:05+08:00*%
%TF.ProjectId,smartkey,736d6172-746b-4657-992e-6b696361645f,rev?*%
%TF.SameCoordinates,Original*%
%TF.FileFunction,Copper,L1,Top*%
%TF.FilePolarity,Positive*%
%FSLAX46Y46*%
G04 Gerber Fmt 4.6, Leading zero omitted, Abs format (unit mm)*
G04 Created by KiCad (PCBNEW (5.1.8)-1) date 2022-05-08 18:20:05*
%MOMM*%
%LPD*%
G01*
G04 APERTURE LIST*
%TA.AperFunction,ComponentPad*%
%ADD10O,2.500000X2.500000*%
%TD*%
%TA.AperFunction,ComponentPad*%
%ADD11R,2.500000X2.500000*%
%TD*%
%TA.AperFunction,ComponentPad*%
%ADD12C,3.000000*%
%TD*%
%TA.AperFunction,ComponentPad*%
%ADD13R,3.000000X3.000000*%
%TD*%
%TA.AperFunction,SMDPad,CuDef*%
%ADD14R,1.100000X2.600000*%
%TD*%
%TA.AperFunction,SMDPad,CuDef*%
%ADD15R,1.500000X2.000000*%
%TD*%
%TA.AperFunction,SMDPad,CuDef*%
%ADD16R,3.800000X2.000000*%
%TD*%
%TA.AperFunction,SMDPad,CuDef*%
%ADD17R,1.700000X0.900000*%
%TD*%
%TA.AperFunction,SMDPad,CuDef*%
%ADD18R,0.900000X0.800000*%
%TD*%
%TA.AperFunction,ComponentPad*%
%ADD19O,1.350000X1.350000*%
%TD*%
%TA.AperFunction,ComponentPad*%
%ADD20R,1.350000X1.350000*%
%TD*%
%TA.AperFunction,ViaPad*%
%ADD21C,0.800000*%
%TD*%
%TA.AperFunction,Conductor*%
%ADD22C,0.400000*%
%TD*%
%TA.AperFunction,Conductor*%
%ADD23C,0.254000*%
%TD*%
%TA.AperFunction,Conductor*%
%ADD24C,0.350000*%
%TD*%
%ADD25C,0.350000*%
%ADD26O,2.999999X1.599999*%
%ADD27O,4.999999X1.599999*%
G04 APERTURE END LIST*
D10*
%TO.P,K1,5*%
%TO.N,+5V*%
X123400000Y-90000000D03*
%TO.P,K1,4*%
%TO.N,N/C*%
X111200000Y-90000000D03*
%TO.P,K1,3*%
%TO.N,OUT3_L*%
X111200000Y-78000000D03*
%TO.P,K1,2*%
%TO.N,Net-(D1-Pad2)*%
X123400000Y-78000000D03*
D11*
%TO.P,K1,1*%
%TO.N,220V_L*%
X125400000Y-84000000D03*
%TD*%
%TO.P,D4,2*%
%TO.N,Net-(D4-Pad2)*%
%TA.AperFunction,SMDPad,CuDef*%
G36*
G01*
X129756250Y-130150000D02*
X129243750Y-130150000D01*
G75*
G02*
X129025000Y-129931250I0J218750D01*
G01*
X129025000Y-129493750D01*
G75*
G02*
X129243750Y-129275000I218750J0D01*
G01*
X129756250Y-129275000D01*
G75*
G02*
X129975000Y-129493750I0J-218750D01*
G01*
X129975000Y-129931250D01*
G75*
G02*
X129756250Y-130150000I-218750J0D01*
G01*
G37*
%TD.AperFunction*%
%TO.P,D4,1*%
%TO.N,Net-(D4-Pad1)*%
%TA.AperFunction,SMDPad,CuDef*%
G36*
G01*
X129756250Y-131725000D02*
X129243750Y-131725000D01*
G75*
G02*
X129025000Y-131506250I0J218750D01*
G01*
X129025000Y-131068750D01*
G75*
G02*
X129243750Y-130850000I218750J0D01*
G01*
X129756250Y-130850000D01*
G75*
G02*
X129975000Y-131068750I0J-218750D01*
G01*
X129975000Y-131506250D01*
G75*
G02*
X129756250Y-131725000I-218750J0D01*
G01*
G37*
%TD.AperFunction*%
%TD*%
%TO.P,R6,2*%
%TO.N,Net-(D4-Pad1)*%
%TA.AperFunction,SMDPad,CuDef*%
G36*
G01*
X129775000Y-133325000D02*
X129225000Y-133325000D01*
G75*
G02*
X129025000Y-133125000I0J200000D01*
G01*
X129025000Y-132725000D01*
G75*
G02*
X129225000Y-132525000I200000J0D01*
G01*
X129775000Y-132525000D01*
G75*
G02*
X129975000Y-132725000I0J-200000D01*
G01*
X129975000Y-133125000D01*
G75*
G02*
X129775000Y-133325000I-200000J0D01*
G01*
G37*
%TD.AperFunction*%
%TO.P,R6,1*%
%TO.N,GND*%
%TA.AperFunction,SMDPad,CuDef*%
G36*
G01*
X129775000Y-134975000D02*
X129225000Y-134975000D01*
G75*
G02*
X129025000Y-134775000I0J200000D01*
G01*
X129025000Y-134375000D01*
G75*
G02*
X129225000Y-134175000I200000J0D01*
G01*
X129775000Y-134175000D01*
G75*
G02*
X129975000Y-134375000I0J-200000D01*
G01*
X129975000Y-134775000D01*
G75*
G02*
X129775000Y-134975000I-200000J0D01*
G01*
G37*
%TD.AperFunction*%
%TD*%
D12*
%TO.P,J2,4*%
%TO.N,+5V*%
X137010000Y-132000000D03*
D13*
%TO.P,J2,1*%
%TO.N,ADC*%
X152250000Y-132000000D03*
D12*
%TO.P,J2,3*%
%TO.N,GND*%
X142090000Y-132000000D03*
%TO.P,J2,2*%
%TO.N,CHECK_IO*%
X147170000Y-132000000D03*
%TD*%
D14*
%TO.P,U1,16*%
%TO.N,TXD*%
X150000000Y-122200000D03*
%TO.P,U1,15*%
%TO.N,RXD*%
X148000000Y-122200000D03*
%TO.P,U1,14*%
%TO.N,N/C*%
X146000000Y-122200000D03*
%TO.P,U1,13*%
%TO.N,CHECK_IO*%
X144000000Y-122200000D03*
%TO.P,U1,12*%
%TO.N,IO0*%
X142000000Y-122200000D03*
%TO.P,U1,11*%
%TO.N,BTN*%
X140000000Y-122200000D03*
%TO.P,U1,10*%
%TO.N,Net-(R5-Pad2)*%
X138000000Y-122200000D03*
%TO.P,U1,9*%
%TO.N,GND*%
X136000000Y-122200000D03*
%TO.P,U1,8*%
%TO.N,+3V3*%
X136000000Y-106800000D03*
%TO.P,U1,7*%
%TO.N,EN3*%
X138000000Y-106800000D03*
%TO.P,U1,6*%
%TO.N,EN2*%
X140000000Y-106800000D03*
%TO.P,U1,5*%
%TO.N,EN1*%
X142000000Y-106800000D03*
%TO.P,U1,4*%
%TO.N,Net-(D4-Pad2)*%
X144000000Y-106800000D03*
%TO.P,U1,3*%
%TO.N,Net-(R3-Pad2)*%
X146000000Y-106800000D03*
%TO.P,U1,2*%
%TO.N,ADC*%
X148000000Y-106800000D03*
%TO.P,U1,1*%
%TO.N,EN*%
X150000000Y-106800000D03*
%TD*%
D15*
%TO.P,U3,1*%
%TO.N,GND*%
X152700000Y-91250000D03*
%TO.P,U3,3*%
%TO.N,+5V*%
X148100000Y-91250000D03*
%TO.P,U3,2*%
%TO.N,+3V3*%
X150400000Y-91250000D03*
D16*
X150400000Y-97550000D03*
%TD*%
D17*
%TO.P,SW1,2*%
%TO.N,BTN*%
X132250000Y-130050000D03*
%TO.P,SW1,1*%
%TO.N,GND*%
X132250000Y-134450000D03*
%TD*%
%TO.P,R7,2*%
%TO.N,EN1*%
%TA.AperFunction,SMDPad,CuDef*%
G36*
G01*
X141725000Y-103925000D02*
X142275000Y-103925000D01*
G75*
G02*
X142475000Y-104125000I0J-200000D01*
G01*
X142475000Y-104525000D01*
G75*
G02*
X142275000Y-104725000I-200000J0D01*
G01*
X141725000Y-104725000D01*
G75*
G02*
X141525000Y-104525000I0J200000D01*
G01*
X141525000Y-104125000D01*
G75*
G02*
X141725000Y-103925000I200000J0D01*
G01*
G37*
%TD.AperFunction*%
%TO.P,R7,1*%
%TO.N,Net-(Q1-Pad1)*%
%TA.AperFunction,SMDPad,CuDef*%
G36*
G01*
X141725000Y-102275000D02*
X142275000Y-102275000D01*
G75*
G02*
X142475000Y-102475000I0J-200000D01*
G01*
X142475000Y-102875000D01*
G75*
G02*
X142275000Y-103075000I-200000J0D01*
G01*
X141725000Y-103075000D01*
G75*
G02*
X141525000Y-102875000I0J200000D01*
G01*
X141525000Y-102475000D01*
G75*
G02*
X141725000Y-102275000I200000J0D01*
G01*
G37*
%TD.AperFunction*%
%TD*%
%TO.P,R5,2*%
%TO.N,Net-(R5-Pad2)*%
%TA.AperFunction,SMDPad,CuDef*%
G36*
G01*
X137175000Y-125025000D02*
X137175000Y-124475000D01*
G75*
G02*
X137375000Y-124275000I200000J0D01*
G01*
X137775000Y-124275000D01*
G75*
G02*
X137975000Y-124475000I0J-200000D01*
G01*
X137975000Y-125025000D01*
G75*
G02*
X137775000Y-125225000I-200000J0D01*
G01*
X137375000Y-125225000D01*
G75*
G02*
X137175000Y-125025000I0J200000D01*
G01*
G37*
%TD.AperFunction*%
%TO.P,R5,1*%
%TO.N,GND*%
%TA.AperFunction,SMDPad,CuDef*%
G36*
G01*
X135525000Y-125025000D02*
X135525000Y-124475000D01*
G75*
G02*
X135725000Y-124275000I200000J0D01*
G01*
X136125000Y-124275000D01*
G75*
G02*
X136325000Y-124475000I0J-200000D01*
G01*
X136325000Y-125025000D01*
G75*
G02*
X136125000Y-125225000I-200000J0D01*
G01*
X135725000Y-125225000D01*
G75*
G02*
X135525000Y-125025000I0J200000D01*
G01*
G37*
%TD.AperFunction*%
%TD*%
%TO.P,R4,2*%
%TO.N,BTN*%
%TA.AperFunction,SMDPad,CuDef*%
G36*
G01*
X131825000Y-127975000D02*
X131825000Y-128525000D01*
G75*
G02*
X131625000Y-128725000I-200000J0D01*
G01*
X131225000Y-128725000D01*
G75*
G02*
X131025000Y-128525000I0J200000D01*
G01*
X131025000Y-127975000D01*
G75*
G02*
X131225000Y-127775000I200000J0D01*
G01*
X131625000Y-127775000D01*
G75*
G02*
X131825000Y-127975000I0J-200000D01*
G01*
G37*
%TD.AperFunction*%
%TO.P,R4,1*%
%TO.N,+3V3*%
%TA.AperFunction,SMDPad,CuDef*%
G36*
G01*
X133475000Y-127975000D02*
X133475000Y-128525000D01*
G75*
G02*
X133275000Y-128725000I-200000J0D01*
G01*
X132875000Y-128725000D01*
G75*
G02*
X132675000Y-128525000I0J200000D01*
G01*
X132675000Y-127975000D01*
G75*
G02*
X132875000Y-127775000I200000J0D01*
G01*
X133275000Y-127775000D01*
G75*
G02*
X133475000Y-127975000I0J-200000D01*
G01*
G37*
%TD.AperFunction*%
%TD*%
%TO.P,R3,2*%
%TO.N,Net-(R3-Pad2)*%
%TA.AperFunction,SMDPad,CuDef*%
G36*
G01*
X145725000Y-103925000D02*
X146275000Y-103925000D01*
G75*
G02*
X146475000Y-104125000I0J-200000D01*
G01*
X146475000Y-104525000D01*
G75*
G02*
X146275000Y-104725000I-200000J0D01*
G01*
X145725000Y-104725000D01*
G75*
G02*
X145525000Y-104525000I0J200000D01*
G01*
X145525000Y-104125000D01*
G75*
G02*
X145725000Y-103925000I200000J0D01*
G01*
G37*
%TD.AperFunction*%
%TO.P,R3,1*%
%TO.N,+3V3*%
%TA.AperFunction,SMDPad,CuDef*%
G36*
G01*
X145725000Y-102275000D02*
X146275000Y-102275000D01*
G75*
G02*
X146475000Y-102475000I0J-200000D01*
G01*
X146475000Y-102875000D01*
G75*
G02*
X146275000Y-103075000I-200000J0D01*
G01*
X145725000Y-103075000D01*
G75*
G02*
X145525000Y-102875000I0J200000D01*
G01*
X145525000Y-102475000D01*
G75*
G02*
X145725000Y-102275000I200000J0D01*
G01*
G37*
%TD.AperFunction*%
%TD*%
%TO.P,R2,2*%
%TO.N,IO0*%
%TA.AperFunction,SMDPad,CuDef*%
G36*
G01*
X140425000Y-125025000D02*
X140425000Y-124475000D01*
G75*
G02*
X140625000Y-124275000I200000J0D01*
G01*
X141025000Y-124275000D01*
G75*
G02*
X141225000Y-124475000I0J-200000D01*
G01*
X141225000Y-125025000D01*
G75*
G02*
X141025000Y-125225000I-200000J0D01*
G01*
X140625000Y-125225000D01*
G75*
G02*
X140425000Y-125025000I0J200000D01*
G01*
G37*
%TD.AperFunction*%
%TO.P,R2,1*%
%TO.N,+3V3*%
%TA.AperFunction,SMDPad,CuDef*%
G36*
G01*
X138775000Y-125025000D02*
X138775000Y-124475000D01*
G75*
G02*
X138975000Y-124275000I200000J0D01*
G01*
X139375000Y-124275000D01*
G75*
G02*
X139575000Y-124475000I0J-200000D01*
G01*
X139575000Y-125025000D01*
G75*
G02*
X139375000Y-125225000I-200000J0D01*
G01*
X138975000Y-125225000D01*
G75*
G02*
X138775000Y-125025000I0J200000D01*
G01*
G37*
%TD.AperFunction*%
%TD*%
%TO.P,R1,2*%
%TO.N,+3V3*%
%TA.AperFunction,SMDPad,CuDef*%
G36*
G01*
X148275000Y-103075000D02*
X147725000Y-103075000D01*
G75*
G02*
X147525000Y-102875000I0J200000D01*
G01*
X147525000Y-102475000D01*
G75*
G02*
X147725000Y-102275000I200000J0D01*
G01*
X148275000Y-102275000D01*
G75*
G02*
X148475000Y-102475000I0J-200000D01*
G01*
X148475000Y-102875000D01*
G75*
G02*
X148275000Y-103075000I-200000J0D01*
G01*
G37*
%TD.AperFunction*%
%TO.P,R1,1*%
%TO.N,EN*%
%TA.AperFunction,SMDPad,CuDef*%
G36*
G01*
X148275000Y-104725000D02*
X147725000Y-104725000D01*
G75*
G02*
X147525000Y-104525000I0J200000D01*
G01*
X147525000Y-104125000D01*
G75*
G02*
X147725000Y-103925000I200000J0D01*
G01*
X148275000Y-103925000D01*
G75*
G02*
X148475000Y-104125000I0J-200000D01*
G01*
X148475000Y-104525000D01*
G75*
G02*
X148275000Y-104725000I-200000J0D01*
G01*
G37*
%TD.AperFunction*%
%TD*%
D18*
%TO.P,Q1,3*%
%TO.N,Net-(D1-Pad2)*%
X142250000Y-100000000D03*
%TO.P,Q1,2*%
%TO.N,GND*%
X144250000Y-99050000D03*
%TO.P,Q1,1*%
%TO.N,Net-(Q1-Pad1)*%
X144250000Y-100950000D03*
%TD*%
D19*
%TO.P,J4,6*%
%TO.N,TXD*%
X153250000Y-119750000D03*
%TO.P,J4,5*%
%TO.N,RXD*%
X153250000Y-117750000D03*
%TO.P,J4,4*%
%TO.N,IO0*%
X153250000Y-115750000D03*
%TO.P,J4,3*%
%TO.N,EN*%
X153250000Y-113750000D03*
%TO.P,J4,2*%
%TO.N,GND*%
X153250000Y-111750000D03*
D20*
%TO.P,J4,1*%
%TO.N,+5V*%
X153250000Y-109750000D03*
%TD*%
%TO.P,D1,2*%
%TO.N,Net-(D1-Pad2)*%
%TA.AperFunction,SMDPad,CuDef*%
G36*
G01*
X129756250Y-90650000D02*
X129243750Y-90650000D01*
G75*
G02*
X129025000Y-90431250I0J218750D01*
G01*
X129025000Y-89993750D01*
G75*
G02*
X129243750Y-89775000I218750J0D01*
G01*
X129756250Y-89775000D01*
G75*
G02*
X129975000Y-89993750I0J-218750D01*
G01*
X129975000Y-90431250D01*
G75*
G02*
X129756250Y-90650000I-218750J0D01*
G01*
G37*
%TD.AperFunction*%
%TO.P,D1,1*%
%TO.N,+5V*%
%TA.AperFunction,SMDPad,CuDef*%
G36*
G01*
X129756250Y-92225000D02*
X129243750Y-92225000D01*
G75*
G02*
X129025000Y-92006250I0J218750D01*
G01*
X129025000Y-91568750D01*
G75*
G02*
X129243750Y-91350000I218750J0D01*
G01*
X129756250Y-91350000D01*
G75*
G02*
X129975000Y-91568750I0J-218750D01*
G01*
X129975000Y-92006250D01*
G75*
G02*
X129756250Y-92225000I-218750J0D01*
G01*
G37*
%TD.AperFunction*%
%TD*%
%TO.P,C3,2*%
%TO.N,GND*%
%TA.AperFunction,SMDPad,CuDef*%
G36*
G01*
X147875000Y-99550000D02*
X147875000Y-100050000D01*
G75*
G02*
X147650000Y-100275000I-225000J0D01*
G01*
X147200000Y-100275000D01*
G75*
G02*
X146975000Y-100050000I0J225000D01*
G01*
X146975000Y-99550000D01*
G75*
G02*
X147200000Y-99325000I225000J0D01*
G01*
X147650000Y-99325000D01*
G75*
G02*
X147875000Y-99550000I0J-225000D01*
G01*
G37*
%TD.AperFunction*%
%TO.P,C3,1*%
%TO.N,+3V3*%
%TA.AperFunction,SMDPad,CuDef*%
G36*
G01*
X149425000Y-99550000D02*
X149425000Y-100050000D01*
G75*
G02*
X149200000Y-100275000I-225000J0D01*
G01*
X148750000Y-100275000D01*
G75*
G02*
X148525000Y-100050000I0J225000D01*
G01*
X148525000Y-99550000D01*
G75*
G02*
X148750000Y-99325000I225000J0D01*
G01*
X149200000Y-99325000D01*
G75*
G02*
X149425000Y-99550000I0J-225000D01*
G01*
G37*
%TD.AperFunction*%
%TD*%
%TO.P,C2,2*%
%TO.N,GND*%
%TA.AperFunction,SMDPad,CuDef*%
G36*
G01*
X148605000Y-89050000D02*
X148605000Y-88550000D01*
G75*
G02*
X148830000Y-88325000I225000J0D01*
G01*
X149280000Y-88325000D01*
G75*
G02*
X149505000Y-88550000I0J-225000D01*
G01*
X149505000Y-89050000D01*
G75*
G02*
X149280000Y-89275000I-225000J0D01*
G01*
X148830000Y-89275000D01*
G75*
G02*
X148605000Y-89050000I0J225000D01*
G01*
G37*
%TD.AperFunction*%
%TO.P,C2,1*%
%TO.N,+5V*%
%TA.AperFunction,SMDPad,CuDef*%
G36*
G01*
X147055000Y-89050000D02*
X147055000Y-88550000D01*
G75*
G02*
X147280000Y-88325000I225000J0D01*
G01*
X147730000Y-88325000D01*
G75*
G02*
X147955000Y-88550000I0J-225000D01*
G01*
X147955000Y-89050000D01*
G75*
G02*
X147730000Y-89275000I-225000J0D01*
G01*
X147280000Y-89275000D01*
G75*
G02*
X147055000Y-89050000I0J225000D01*
G01*
G37*
%TD.AperFunction*%
%TD*%
%TO.P,C1,2*%
%TO.N,GND*%
%TA.AperFunction,SMDPad,CuDef*%
G36*
G01*
X150250000Y-103175000D02*
X149750000Y-103175000D01*
G75*
G02*
X149525000Y-102950000I0J225000D01*
G01*
X149525000Y-102500000D01*
G75*
G02*
X149750000Y-102275000I225000J0D01*
G01*
X150250000Y-102275000D01*
G75*
G02*
X150475000Y-102500000I0J-225000D01*
G01*
X150475000Y-102950000D01*
G75*
G02*
X150250000Y-103175000I-225000J0D01*
G01*
G37*
%TD.AperFunction*%
%TO.P,C1,1*%
%TO.N,EN*%
%TA.AperFunction,SMDPad,CuDef*%
G36*
G01*
X150250000Y-104725000D02*
X149750000Y-104725000D01*
G75*
G02*
X149525000Y-104500000I0J225000D01*
G01*
X149525000Y-104050000D01*
G75*
G02*
X149750000Y-103825000I225000J0D01*
G01*
X150250000Y-103825000D01*
G75*
G02*
X150475000Y-104050000I0J-225000D01*
G01*
X150475000Y-104500000D01*
G75*
G02*
X150250000Y-104725000I-225000J0D01*
G01*
G37*
%TD.AperFunction*%
%TD*%
D12*
%TO.P,J1,2*%
%TO.N,220V_L*%
X108080000Y-70800000D03*
D13*
%TO.P,J1,1*%
%TO.N,220V_N*%
X103000000Y-70800000D03*
%TD*%
%TO.P,R10,2*%
%TO.N,EN3*%
%TA.AperFunction,SMDPad,CuDef*%
G36*
G01*
X137725000Y-103925000D02*
X138275000Y-103925000D01*
G75*
G02*
X138475000Y-104125000I0J-200000D01*
G01*
X138475000Y-104525000D01*
G75*
G02*
X138275000Y-104725000I-200000J0D01*
G01*
X137725000Y-104725000D01*
G75*
G02*
X137525000Y-104525000I0J200000D01*
G01*
X137525000Y-104125000D01*
G75*
G02*
X137725000Y-103925000I200000J0D01*
G01*
G37*
%TD.AperFunction*%
%TO.P,R10,1*%
%TO.N,Net-(Q3-Pad1)*%
%TA.AperFunction,SMDPad,CuDef*%
G36*
G01*
X137725000Y-102275000D02*
X138275000Y-102275000D01*
G75*
G02*
X138475000Y-102475000I0J-200000D01*
G01*
X138475000Y-102875000D01*
G75*
G02*
X138275000Y-103075000I-200000J0D01*
G01*
X137725000Y-103075000D01*
G75*
G02*
X137525000Y-102875000I0J200000D01*
G01*
X137525000Y-102475000D01*
G75*
G02*
X137725000Y-102275000I200000J0D01*
G01*
G37*
%TD.AperFunction*%
%TD*%
%TO.P,R9,2*%
%TO.N,EN2*%
%TA.AperFunction,SMDPad,CuDef*%
G36*
G01*
X139725000Y-103925000D02*
X140275000Y-103925000D01*
G75*
G02*
X140475000Y-104125000I0J-200000D01*
G01*
X140475000Y-104525000D01*
G75*
G02*
X140275000Y-104725000I-200000J0D01*
G01*
X139725000Y-104725000D01*
G75*
G02*
X139525000Y-104525000I0J200000D01*
G01*
X139525000Y-104125000D01*
G75*
G02*
X139725000Y-103925000I200000J0D01*
G01*
G37*
%TD.AperFunction*%
%TO.P,R9,1*%
%TO.N,Net-(Q2-Pad1)*%
%TA.AperFunction,SMDPad,CuDef*%
G36*
G01*
X139725000Y-102275000D02*
X140275000Y-102275000D01*
G75*
G02*
X140475000Y-102475000I0J-200000D01*
G01*
X140475000Y-102875000D01*
G75*
G02*
X140275000Y-103075000I-200000J0D01*
G01*
X139725000Y-103075000D01*
G75*
G02*
X139525000Y-102875000I0J200000D01*
G01*
X139525000Y-102475000D01*
G75*
G02*
X139725000Y-102275000I200000J0D01*
G01*
G37*
%TD.AperFunction*%
%TD*%
D18*
%TO.P,Q3,3*%
%TO.N,Net-(D3-Pad2)*%
X133750000Y-100000000D03*
%TO.P,Q3,2*%
%TO.N,GND*%
X135750000Y-99050000D03*
%TO.P,Q3,1*%
%TO.N,Net-(Q3-Pad1)*%
X135750000Y-100950000D03*
%TD*%
%TO.P,Q2,3*%
%TO.N,Net-(D2-Pad2)*%
X138000000Y-100000000D03*
%TO.P,Q2,2*%
%TO.N,GND*%
X140000000Y-99050000D03*
%TO.P,Q2,1*%
%TO.N,Net-(Q2-Pad1)*%
X140000000Y-100950000D03*
%TD*%
D10*
%TO.P,K3,5*%
%TO.N,+5V*%
X123400000Y-125200000D03*
%TO.P,K3,4*%
%TO.N,N/C*%
X111200000Y-125200000D03*
%TO.P,K3,3*%
%TO.N,OUT1_L*%
X111200000Y-113200000D03*
%TO.P,K3,2*%
%TO.N,Net-(D3-Pad2)*%
X123400000Y-113200000D03*
D11*
%TO.P,K3,1*%
%TO.N,220V_L*%
X125400000Y-119200000D03*
%TD*%
D10*
%TO.P,K2,5*%
%TO.N,+5V*%
X123400000Y-107600000D03*
%TO.P,K2,4*%
%TO.N,N/C*%
X111200000Y-107600000D03*
%TO.P,K2,3*%
%TO.N,OUT2_L*%
X111200000Y-95600000D03*
%TO.P,K2,2*%
%TO.N,Net-(D2-Pad2)*%
X123400000Y-95600000D03*
D11*
%TO.P,K2,1*%
%TO.N,220V_L*%
X125400000Y-101600000D03*
%TD*%
%TO.P,D3,2*%
%TO.N,Net-(D3-Pad2)*%
%TA.AperFunction,SMDPad,CuDef*%
G36*
G01*
X130006250Y-111900000D02*
X129493750Y-111900000D01*
G75*
G02*
X129275000Y-111681250I0J218750D01*
G01*
X129275000Y-111243750D01*
G75*
G02*
X129493750Y-111025000I218750J0D01*
G01*
X130006250Y-111025000D01*
G75*
G02*
X130225000Y-111243750I0J-218750D01*
G01*
X130225000Y-111681250D01*
G75*
G02*
X130006250Y-111900000I-218750J0D01*
G01*
G37*
%TD.AperFunction*%
%TO.P,D3,1*%
%TO.N,+5V*%
%TA.AperFunction,SMDPad,CuDef*%
G36*
G01*
X130006250Y-113475000D02*
X129493750Y-113475000D01*
G75*
G02*
X129275000Y-113256250I0J218750D01*
G01*
X129275000Y-112818750D01*
G75*
G02*
X129493750Y-112600000I218750J0D01*
G01*
X130006250Y-112600000D01*
G75*
G02*
X130225000Y-112818750I0J-218750D01*
G01*
X130225000Y-113256250D01*
G75*
G02*
X130006250Y-113475000I-218750J0D01*
G01*
G37*
%TD.AperFunction*%
%TD*%
%TO.P,D2,2*%
%TO.N,Net-(D2-Pad2)*%
%TA.AperFunction,SMDPad,CuDef*%
G36*
G01*
X129756250Y-94150000D02*
X129243750Y-94150000D01*
G75*
G02*
X129025000Y-93931250I0J218750D01*
G01*
X129025000Y-93493750D01*
G75*
G02*
X129243750Y-93275000I218750J0D01*
G01*
X129756250Y-93275000D01*
G75*
G02*
X129975000Y-93493750I0J-218750D01*
G01*
X129975000Y-93931250D01*
G75*
G02*
X129756250Y-94150000I-218750J0D01*
G01*
G37*
%TD.AperFunction*%
%TO.P,D2,1*%
%TO.N,+5V*%
%TA.AperFunction,SMDPad,CuDef*%
G36*
G01*
X129756250Y-95725000D02*
X129243750Y-95725000D01*
G75*
G02*
X129025000Y-95506250I0J218750D01*
G01*
X129025000Y-95068750D01*
G75*
G02*
X129243750Y-94850000I218750J0D01*
G01*
X129756250Y-94850000D01*
G75*
G02*
X129975000Y-95068750I0J-218750D01*
G01*
X129975000Y-95506250D01*
G75*
G02*
X129756250Y-95725000I-218750J0D01*
G01*
G37*
%TD.AperFunction*%
%TD*%
D12*
%TO.P,J6,4*%
%TO.N,220V_N*%
X102760000Y-132000000D03*
D13*
%TO.P,J6,1*%
%TO.N,OUT3_L*%
X118000000Y-132000000D03*
D12*
%TO.P,J6,3*%
%TO.N,OUT1_L*%
X107840000Y-132000000D03*
%TO.P,J6,2*%
%TO.N,OUT2_L*%
X112920000Y-132000000D03*
%TD*%
D21*
%TO.N,GND*%
X150400000Y-88800000D03*
X138400000Y-97400000D03*
X134200000Y-97600000D03*
X142800000Y-97200000D03*
X136000000Y-126400000D03*
%TO.N,+5V*%
X153000000Y-94000000D03*
X149000000Y-93500000D03*
X147000000Y-87000000D03*
X133200000Y-88800000D03*
X127600000Y-95400000D03*
X127800000Y-113000000D03*
%TO.N,+3V3*%
X144000000Y-104000000D03*
X134000000Y-106500000D03*
X139200000Y-126400000D03*
%TO.N,ADC*%
X148000000Y-114250000D03*
%TD*%
D22*
%TO.N,GND*%
X136000000Y-124675000D02*
X135925000Y-124750000D01*
X136000000Y-122200000D02*
X136000000Y-124675000D01*
X132125000Y-134575000D02*
X132250000Y-134450000D01*
X129500000Y-134575000D02*
X132125000Y-134575000D01*
X149055000Y-88800000D02*
X150400000Y-88800000D01*
X140000000Y-99000000D02*
X138400000Y-97400000D01*
X140000000Y-99050000D02*
X140000000Y-99000000D01*
X135650000Y-99050000D02*
X134200000Y-97600000D01*
X135750000Y-99050000D02*
X135650000Y-99050000D01*
X144250000Y-98650000D02*
X142800000Y-97200000D01*
X144250000Y-99050000D02*
X144250000Y-98650000D01*
X135925000Y-126325000D02*
X136000000Y-126400000D01*
X135925000Y-124750000D02*
X135925000Y-126325000D01*
%TO.N,+5V*%
X124300000Y-125200000D02*
X123400000Y-125200000D01*
X129462500Y-91750000D02*
X129500000Y-91787500D01*
X125150000Y-91750000D02*
X129462500Y-91750000D01*
X123400000Y-90000000D02*
X125150000Y-91750000D01*
X126401054Y-125200000D02*
X123400000Y-125200000D01*
X129750000Y-121851054D02*
X126401054Y-125200000D01*
X129750000Y-113037500D02*
X129750000Y-121851054D01*
X147505000Y-90655000D02*
X148100000Y-91250000D01*
X147505000Y-88800000D02*
X147505000Y-90655000D01*
X153250000Y-94250000D02*
X153000000Y-94000000D01*
X153250000Y-109750000D02*
X153250000Y-94250000D01*
X148100000Y-92600000D02*
X149000000Y-93500000D01*
X148100000Y-91250000D02*
X148100000Y-92600000D01*
X147000000Y-88295000D02*
X147505000Y-88800000D01*
X147000000Y-87000000D02*
X147000000Y-88295000D01*
X147505000Y-88800000D02*
X133200000Y-88800000D01*
X129387500Y-95400000D02*
X129500000Y-95287500D01*
X127600000Y-95400000D02*
X129387500Y-95400000D01*
X129712500Y-113000000D02*
X129750000Y-113037500D01*
X127800000Y-113000000D02*
X129712500Y-113000000D01*
X129500000Y-95287500D02*
X129500000Y-101500000D01*
X129500000Y-101500000D02*
X123400000Y-107600000D01*
%TO.N,+3V3*%
X146000000Y-102675000D02*
X148000000Y-102675000D01*
X148000000Y-100775000D02*
X148975000Y-99800000D01*
X148000000Y-102675000D02*
X148000000Y-100775000D01*
X150400000Y-98375000D02*
X148975000Y-99800000D01*
X150400000Y-97550000D02*
X150400000Y-98375000D01*
X150400000Y-91250000D02*
X150400000Y-97550000D01*
X145325000Y-102675000D02*
X144000000Y-104000000D01*
X146000000Y-102675000D02*
X145325000Y-102675000D01*
X135700000Y-106500000D02*
X136000000Y-106800000D01*
X134000000Y-106500000D02*
X135700000Y-106500000D01*
X139200000Y-124775000D02*
X139175000Y-124750000D01*
X139200000Y-126400000D02*
X139200000Y-124775000D01*
X139200000Y-127000000D02*
X139200000Y-126400000D01*
X137950000Y-128250000D02*
X139200000Y-127000000D01*
X133075000Y-128250000D02*
X137950000Y-128250000D01*
%TO.N,Net-(D1-Pad2)*%
X133262500Y-90212500D02*
X129500000Y-90212500D01*
X142250000Y-99200000D02*
X133262500Y-90212500D01*
X142250000Y-100000000D02*
X142250000Y-99200000D01*
X127900000Y-88612500D02*
X129500000Y-90212500D01*
X127900000Y-82500000D02*
X127900000Y-88612500D01*
X123400000Y-78000000D02*
X127900000Y-82500000D01*
%TO.N,Net-(Q1-Pad1)*%
X144250000Y-101500000D02*
X143075000Y-102675000D01*
X143075000Y-102675000D02*
X142000000Y-102675000D01*
X144250000Y-100950000D02*
X144250000Y-101500000D01*
%TO.N,EN*%
X150075000Y-106725000D02*
X150000000Y-106800000D01*
X150000000Y-111750000D02*
X150000000Y-106800000D01*
X152000000Y-113750000D02*
X150000000Y-111750000D01*
X153250000Y-113750000D02*
X152000000Y-113750000D01*
X149950000Y-104325000D02*
X150000000Y-104275000D01*
X148000000Y-104325000D02*
X149950000Y-104325000D01*
X150000000Y-104275000D02*
X150000000Y-106800000D01*
%TO.N,Net-(D2-Pad2)*%
X123712500Y-95287500D02*
X123400000Y-95600000D01*
X125287500Y-93712500D02*
X129500000Y-93712500D01*
X123400000Y-95600000D02*
X125287500Y-93712500D01*
X132512500Y-93712500D02*
X129500000Y-93712500D01*
X138000000Y-99200000D02*
X132512500Y-93712500D01*
X138000000Y-100000000D02*
X138000000Y-99200000D01*
%TO.N,Net-(D3-Pad2)*%
X125137500Y-111462500D02*
X123400000Y-113200000D01*
X129750000Y-111462500D02*
X125137500Y-111462500D01*
X133750000Y-100000000D02*
X129750000Y-104000000D01*
X129750000Y-104000000D02*
X129750000Y-111462500D01*
%TO.N,IO0*%
X142000000Y-120500000D02*
X142000000Y-122200000D01*
X146750000Y-115750000D02*
X142000000Y-120500000D01*
X153250000Y-115750000D02*
X146750000Y-115750000D01*
X142000000Y-123575000D02*
X140825000Y-124750000D01*
X142000000Y-122200000D02*
X142000000Y-123575000D01*
%TO.N,Net-(Q2-Pad1)*%
X140000000Y-100950000D02*
X140000000Y-102675000D01*
%TO.N,Net-(Q3-Pad1)*%
X135750000Y-101500000D02*
X135750000Y-100950000D01*
X136925000Y-102675000D02*
X135750000Y-101500000D01*
X138000000Y-102675000D02*
X136925000Y-102675000D01*
%TO.N,TXD*%
X151000000Y-119750000D02*
X153250000Y-119750000D01*
X150000000Y-120750000D02*
X151000000Y-119750000D01*
X150000000Y-122200000D02*
X150000000Y-120750000D01*
%TO.N,RXD*%
X150750000Y-117750000D02*
X148000000Y-120500000D01*
X148000000Y-120500000D02*
X148000000Y-122200000D01*
X153250000Y-117750000D02*
X150750000Y-117750000D01*
%TO.N,Net-(R3-Pad2)*%
X146000000Y-104325000D02*
X146000000Y-106800000D01*
%TO.N,Net-(R5-Pad2)*%
X138000000Y-124325000D02*
X137575000Y-124750000D01*
X138000000Y-122200000D02*
X138000000Y-124325000D01*
%TO.N,EN1*%
X142000000Y-104325000D02*
X142000000Y-106800000D01*
%TO.N,EN2*%
X140000000Y-104325000D02*
X140000000Y-106800000D01*
%TO.N,EN3*%
X138000000Y-104325000D02*
X138000000Y-106800000D01*
%TO.N,ADC*%
X148000000Y-106800000D02*
X148000000Y-114250000D01*
%TO.N,CHECK_IO*%
X144000000Y-128830000D02*
X147170000Y-132000000D01*
X144000000Y-122200000D02*
X144000000Y-128830000D01*
%TO.N,BTN*%
X131425000Y-123075000D02*
X131425000Y-128250000D01*
X134500000Y-120000000D02*
X131425000Y-123075000D01*
X140000000Y-121000000D02*
X139000000Y-120000000D01*
X139000000Y-120000000D02*
X134500000Y-120000000D01*
X140000000Y-122200000D02*
X140000000Y-121000000D01*
X131425000Y-129225000D02*
X132250000Y-130050000D01*
X131425000Y-128250000D02*
X131425000Y-129225000D01*
%TO.N,Net-(D4-Pad2)*%
X144000000Y-109000000D02*
X129500000Y-123500000D01*
X129500000Y-123500000D02*
X129500000Y-129712500D01*
X144000000Y-106800000D02*
X144000000Y-109000000D01*
%TO.N,Net-(D4-Pad1)*%
X129500000Y-132925000D02*
X129500000Y-131287500D01*
%TD*%
D23*
%TO.N,GND*%
X154340001Y-130257465D02*
X154339502Y-130255820D01*
X154280537Y-130145506D01*
X154201185Y-130048815D01*
X154104494Y-129969463D01*
X153994180Y-129910498D01*
X153874482Y-129874188D01*
X153750000Y-129861928D01*
X150750000Y-129861928D01*
X150625518Y-129874188D01*
X150505820Y-129910498D01*
X150395506Y-129969463D01*
X150298815Y-130048815D01*
X150219463Y-130145506D01*
X150160498Y-130255820D01*
X150124188Y-130375518D01*
X150111928Y-130500000D01*
X150111928Y-133500000D01*
X150124188Y-133624482D01*
X150160498Y-133744180D01*
X150219463Y-133854494D01*
X150298815Y-133951185D01*
X150395506Y-134030537D01*
X150505820Y-134089502D01*
X150625518Y-134125812D01*
X150750000Y-134138072D01*
X153750000Y-134138072D01*
X153874482Y-134125812D01*
X153994180Y-134089502D01*
X154104494Y-134030537D01*
X154201185Y-133951185D01*
X154280537Y-133854494D01*
X154339502Y-133744180D01*
X154340001Y-133742535D01*
X154340001Y-135340000D01*
X133560364Y-135340000D01*
X133630537Y-135254494D01*
X133689502Y-135144180D01*
X133725812Y-135024482D01*
X133738072Y-134900000D01*
X133735000Y-134735750D01*
X133576250Y-134577000D01*
X132377000Y-134577000D01*
X132377000Y-134597000D01*
X132123000Y-134597000D01*
X132123000Y-134577000D01*
X130923750Y-134577000D01*
X130765000Y-134735750D01*
X130761928Y-134900000D01*
X130774188Y-135024482D01*
X130810498Y-135144180D01*
X130869463Y-135254494D01*
X130939636Y-135340000D01*
X130496915Y-135340000D01*
X130505537Y-135329494D01*
X130564502Y-135219180D01*
X130600812Y-135099482D01*
X130613072Y-134975000D01*
X130610000Y-134860750D01*
X130451250Y-134702000D01*
X129627000Y-134702000D01*
X129627000Y-134722000D01*
X129373000Y-134722000D01*
X129373000Y-134702000D01*
X129353000Y-134702000D01*
X129353000Y-134448000D01*
X129373000Y-134448000D01*
X129373000Y-134428000D01*
X129627000Y-134428000D01*
X129627000Y-134448000D01*
X130451250Y-134448000D01*
X130610000Y-134289250D01*
X130613072Y-134175000D01*
X130600812Y-134050518D01*
X130585488Y-134000000D01*
X130761928Y-134000000D01*
X130765000Y-134164250D01*
X130923750Y-134323000D01*
X132123000Y-134323000D01*
X132123000Y-133523750D01*
X132377000Y-133523750D01*
X132377000Y-134323000D01*
X133576250Y-134323000D01*
X133735000Y-134164250D01*
X133738072Y-134000000D01*
X133725812Y-133875518D01*
X133689502Y-133755820D01*
X133630537Y-133645506D01*
X133551185Y-133548815D01*
X133454494Y-133469463D01*
X133344180Y-133410498D01*
X133224482Y-133374188D01*
X133100000Y-133361928D01*
X132535750Y-133365000D01*
X132377000Y-133523750D01*
X132123000Y-133523750D01*
X131964250Y-133365000D01*
X131400000Y-133361928D01*
X131275518Y-133374188D01*
X131155820Y-133410498D01*
X131045506Y-133469463D01*
X130948815Y-133548815D01*
X130869463Y-133645506D01*
X130810498Y-133755820D01*
X130774188Y-133875518D01*
X130761928Y-134000000D01*
X130585488Y-134000000D01*
X130564502Y-133930820D01*
X130505537Y-133820506D01*
X130426185Y-133723815D01*
X130388137Y-133692590D01*
X130471831Y-133590608D01*
X130549278Y-133445716D01*
X130596969Y-133288500D01*
X130613072Y-133125000D01*
X130613072Y-132725000D01*
X130596969Y-132561500D01*
X130549278Y-132404284D01*
X130471831Y-132259392D01*
X130367606Y-132132394D01*
X130352505Y-132120001D01*
X130362115Y-132112115D01*
X130468671Y-131982275D01*
X130547850Y-131834142D01*
X130561324Y-131789721D01*
X134875000Y-131789721D01*
X134875000Y-132210279D01*
X134957047Y-132622756D01*
X135117988Y-133011302D01*
X135351637Y-133360983D01*
X135649017Y-133658363D01*
X135998698Y-133892012D01*
X136387244Y-134052953D01*
X136799721Y-134135000D01*
X137220279Y-134135000D01*
X137632756Y-134052953D01*
X138021302Y-133892012D01*
X138370983Y-133658363D01*
X138537693Y-133491653D01*
X140777952Y-133491653D01*
X140933962Y-133807214D01*
X141308745Y-133998020D01*
X141713551Y-134112044D01*
X142132824Y-134144902D01*
X142550451Y-134095334D01*
X142950383Y-133965243D01*
X143246038Y-133807214D01*
X143402048Y-133491653D01*
X142090000Y-132179605D01*
X140777952Y-133491653D01*
X138537693Y-133491653D01*
X138668363Y-133360983D01*
X138902012Y-133011302D01*
X139062953Y-132622756D01*
X139145000Y-132210279D01*
X139145000Y-132042824D01*
X139945098Y-132042824D01*
X139994666Y-132460451D01*
X140124757Y-132860383D01*
X140282786Y-133156038D01*
X140598347Y-133312048D01*
X141910395Y-132000000D01*
X142269605Y-132000000D01*
X143581653Y-133312048D01*
X143897214Y-133156038D01*
X144088020Y-132781255D01*
X144202044Y-132376449D01*
X144234902Y-131957176D01*
X144185334Y-131539549D01*
X144055243Y-131139617D01*
X143897214Y-130843962D01*
X143581653Y-130687952D01*
X142269605Y-132000000D01*
X141910395Y-132000000D01*
X140598347Y-130687952D01*
X140282786Y-130843962D01*
X140091980Y-131218745D01*
X139977956Y-131623551D01*
X139945098Y-132042824D01*
X139145000Y-132042824D01*
X139145000Y-131789721D01*
X139062953Y-131377244D01*
X138902012Y-130988698D01*
X138668363Y-130639017D01*
X138537693Y-130508347D01*
X140777952Y-130508347D01*
X142090000Y-131820395D01*
X143402048Y-130508347D01*
X143246038Y-130192786D01*
X142871255Y-130001980D01*
X142466449Y-129887956D01*
X142047176Y-129855098D01*
X141629549Y-129904666D01*
X141229617Y-130034757D01*
X140933962Y-130192786D01*
X140777952Y-130508347D01*
X138537693Y-130508347D01*
X138370983Y-130341637D01*
X138021302Y-130107988D01*
X137632756Y-129947047D01*
X137220279Y-129865000D01*
X136799721Y-129865000D01*
X136387244Y-129947047D01*
X135998698Y-130107988D01*
X135649017Y-130341637D01*
X135351637Y-130639017D01*
X135117988Y-130988698D01*
X134957047Y-131377244D01*
X134875000Y-131789721D01*
X130561324Y-131789721D01*
X130596608Y-131673408D01*
X130613072Y-131506250D01*
X130613072Y-131068750D01*
X130596608Y-130901592D01*
X130547850Y-130740858D01*
X130468671Y-130592725D01*
X130392574Y-130500000D01*
X130468671Y-130407275D01*
X130547850Y-130259142D01*
X130596608Y-130098408D01*
X130613072Y-129931250D01*
X130613072Y-129493750D01*
X130603033Y-129391822D01*
X130649828Y-129546086D01*
X130715549Y-129669040D01*
X130727365Y-129691146D01*
X130761928Y-129733261D01*
X130761928Y-130500000D01*
X130774188Y-130624482D01*
X130810498Y-130744180D01*
X130869463Y-130854494D01*
X130948815Y-130951185D01*
X131045506Y-131030537D01*
X131155820Y-131089502D01*
X131275518Y-131125812D01*
X131400000Y-131138072D01*
X133100000Y-131138072D01*
X133224482Y-131125812D01*
X133344180Y-131089502D01*
X133454494Y-131030537D01*
X133551185Y-130951185D01*
X133630537Y-130854494D01*
X133689502Y-130744180D01*
X133725812Y-130624482D01*
X133738072Y-130500000D01*
X133738072Y-129600000D01*
X133725812Y-129475518D01*
X133689502Y-129355820D01*
X133645154Y-129272853D01*
X133740608Y-129221831D01*
X133867606Y-129117606D01*
X133894365Y-129085000D01*
X137908982Y-129085000D01*
X137950000Y-129089040D01*
X137991018Y-129085000D01*
X137991019Y-129085000D01*
X138113689Y-129072918D01*
X138271087Y-129025172D01*
X138416146Y-128947636D01*
X138543291Y-128843291D01*
X138569445Y-128811422D01*
X139761433Y-127619436D01*
X139793291Y-127593291D01*
X139897636Y-127466146D01*
X139975172Y-127321087D01*
X140022918Y-127163689D01*
X140035000Y-127041019D01*
X140035000Y-127041018D01*
X140038204Y-127008490D01*
X140117205Y-126890256D01*
X140195226Y-126701898D01*
X140235000Y-126501939D01*
X140235000Y-126298061D01*
X140195226Y-126098102D01*
X140117205Y-125909744D01*
X140035000Y-125786715D01*
X140035000Y-125619745D01*
X140159392Y-125721831D01*
X140304284Y-125799278D01*
X140461500Y-125846969D01*
X140625000Y-125863072D01*
X141025000Y-125863072D01*
X141188500Y-125846969D01*
X141345716Y-125799278D01*
X141490608Y-125721831D01*
X141617606Y-125617606D01*
X141721831Y-125490608D01*
X141799278Y-125345716D01*
X141846969Y-125188500D01*
X141863072Y-125025000D01*
X141863072Y-124892796D01*
X142561432Y-124194437D01*
X142593291Y-124168291D01*
X142620613Y-124135000D01*
X142624079Y-124130776D01*
X142674482Y-124125812D01*
X142794180Y-124089502D01*
X142904494Y-124030537D01*
X143000000Y-123952158D01*
X143095506Y-124030537D01*
X143165000Y-124067683D01*
X143165001Y-128788972D01*
X143160960Y-128830000D01*
X143177082Y-128993688D01*
X143224828Y-129151086D01*
X143302364Y-129296145D01*
X143302365Y-129296146D01*
X143406710Y-129423291D01*
X143438574Y-129449441D01*
X145190074Y-131200941D01*
X145117047Y-131377244D01*
X145035000Y-131789721D01*
X145035000Y-132210279D01*
X145117047Y-132622756D01*
X145277988Y-133011302D01*
X145511637Y-133360983D01*
X145809017Y-133658363D01*
X146158698Y-133892012D01*
X146547244Y-134052953D01*
X146959721Y-134135000D01*
X147380279Y-134135000D01*
X147792756Y-134052953D01*
X148181302Y-133892012D01*
X148530983Y-133658363D01*
X148828363Y-133360983D01*
X149062012Y-133011302D01*
X149222953Y-132622756D01*
X149305000Y-132210279D01*
X149305000Y-131789721D01*
X149222953Y-131377244D01*
X149062012Y-130988698D01*
X148828363Y-130639017D01*
X148530983Y-130341637D01*
X148181302Y-130107988D01*
X147792756Y-129947047D01*
X147380279Y-129865000D01*
X146959721Y-129865000D01*
X146547244Y-129947047D01*
X146370941Y-130020074D01*
X144835000Y-128484133D01*
X144835000Y-124067683D01*
X144904494Y-124030537D01*
X145000000Y-123952158D01*
X145095506Y-124030537D01*
X145205820Y-124089502D01*
X145325518Y-124125812D01*
X145450000Y-124138072D01*
X146550000Y-124138072D01*
X146674482Y-124125812D01*
X146794180Y-124089502D01*
X146904494Y-124030537D01*
X147000000Y-123952158D01*
X147095506Y-124030537D01*
X147205820Y-124089502D01*
X147325518Y-124125812D01*
X147450000Y-124138072D01*
X148550000Y-124138072D01*
X148674482Y-124125812D01*
X148794180Y-124089502D01*
X148904494Y-124030537D01*
X149000000Y-123952158D01*
X149095506Y-124030537D01*
X149205820Y-124089502D01*
X149325518Y-124125812D01*
X149450000Y-124138072D01*
X150550000Y-124138072D01*
X150674482Y-124125812D01*
X150794180Y-124089502D01*
X150904494Y-124030537D01*
X151001185Y-123951185D01*
X151080537Y-123854494D01*
X151139502Y-123744180D01*
X151175812Y-123624482D01*
X151188072Y-123500000D01*
X151188072Y-120900000D01*
X151175812Y-120775518D01*
X151171050Y-120759819D01*
X151345868Y-120585000D01*
X152232405Y-120585000D01*
X152232456Y-120585077D01*
X152414923Y-120767544D01*
X152629482Y-120910907D01*
X152867887Y-121009658D01*
X153120976Y-121060000D01*
X153379024Y-121060000D01*
X153632113Y-121009658D01*
X153870518Y-120910907D01*
X154085077Y-120767544D01*
X154267544Y-120585077D01*
X154340001Y-120476637D01*
X154340001Y-130257465D01*
%TA.AperFunction,Conductor*%
D24*
G36*
X154340001Y-130257465D02*
G01*
X154339502Y-130255820D01*
X154280537Y-130145506D01*
X154201185Y-130048815D01*
X154104494Y-129969463D01*
X153994180Y-129910498D01*
X153874482Y-129874188D01*
X153750000Y-129861928D01*
X150750000Y-129861928D01*
X150625518Y-129874188D01*
X150505820Y-129910498D01*
X150395506Y-129969463D01*
X150298815Y-130048815D01*
X150219463Y-130145506D01*
X150160498Y-130255820D01*
X150124188Y-130375518D01*
X150111928Y-130500000D01*
X150111928Y-133500000D01*
X150124188Y-133624482D01*
X150160498Y-133744180D01*
X150219463Y-133854494D01*
X150298815Y-133951185D01*
X150395506Y-134030537D01*
X150505820Y-134089502D01*
X150625518Y-134125812D01*
X150750000Y-134138072D01*
X153750000Y-134138072D01*
X153874482Y-134125812D01*
X153994180Y-134089502D01*
X154104494Y-134030537D01*
X154201185Y-133951185D01*
X154280537Y-133854494D01*
X154339502Y-133744180D01*
X154340001Y-133742535D01*
X154340001Y-135340000D01*
X133560364Y-135340000D01*
X133630537Y-135254494D01*
X133689502Y-135144180D01*
X133725812Y-135024482D01*
X133738072Y-134900000D01*
X133735000Y-134735750D01*
X133576250Y-134577000D01*
X132377000Y-134577000D01*
X132377000Y-134597000D01*
X132123000Y-134597000D01*
X132123000Y-134577000D01*
X130923750Y-134577000D01*
X130765000Y-134735750D01*
X130761928Y-134900000D01*
X130774188Y-135024482D01*
X130810498Y-135144180D01*
X130869463Y-135254494D01*
X130939636Y-135340000D01*
X130496915Y-135340000D01*
X130505537Y-135329494D01*
X130564502Y-135219180D01*
X130600812Y-135099482D01*
X130613072Y-134975000D01*
X130610000Y-134860750D01*
X130451250Y-134702000D01*
X129627000Y-134702000D01*
X129627000Y-134722000D01*
X129373000Y-134722000D01*
X129373000Y-134702000D01*
X129353000Y-134702000D01*
X129353000Y-134448000D01*
X129373000Y-134448000D01*
X129373000Y-134428000D01*
X129627000Y-134428000D01*
X129627000Y-134448000D01*
X130451250Y-134448000D01*
X130610000Y-134289250D01*
X130613072Y-134175000D01*
X130600812Y-134050518D01*
X130585488Y-134000000D01*
X130761928Y-134000000D01*
X130765000Y-134164250D01*
X130923750Y-134323000D01*
X132123000Y-134323000D01*
X132123000Y-133523750D01*
X132377000Y-133523750D01*
X132377000Y-134323000D01*
X133576250Y-134323000D01*
X133735000Y-134164250D01*
X133738072Y-134000000D01*
X133725812Y-133875518D01*
X133689502Y-133755820D01*
X133630537Y-133645506D01*
X133551185Y-133548815D01*
X133454494Y-133469463D01*
X133344180Y-133410498D01*
X133224482Y-133374188D01*
X133100000Y-133361928D01*
X132535750Y-133365000D01*
X132377000Y-133523750D01*
X132123000Y-133523750D01*
X131964250Y-133365000D01*
X131400000Y-133361928D01*
X131275518Y-133374188D01*
X131155820Y-133410498D01*
X131045506Y-133469463D01*
X130948815Y-133548815D01*
X130869463Y-133645506D01*
X130810498Y-133755820D01*
X130774188Y-133875518D01*
X130761928Y-134000000D01*
X130585488Y-134000000D01*
X130564502Y-133930820D01*
X130505537Y-133820506D01*
X130426185Y-133723815D01*
X130388137Y-133692590D01*
X130471831Y-133590608D01*
X130549278Y-133445716D01*
X130596969Y-133288500D01*
X130613072Y-133125000D01*
X130613072Y-132725000D01*
X130596969Y-132561500D01*
X130549278Y-132404284D01*
X130471831Y-132259392D01*
X130367606Y-132132394D01*
X130352505Y-132120001D01*
X130362115Y-132112115D01*
X130468671Y-131982275D01*
X130547850Y-131834142D01*
X130561324Y-131789721D01*
X134875000Y-131789721D01*
X134875000Y-132210279D01*
X134957047Y-132622756D01*
X135117988Y-133011302D01*
X135351637Y-133360983D01*
X135649017Y-133658363D01*
X135998698Y-133892012D01*
X136387244Y-134052953D01*
X136799721Y-134135000D01*
X137220279Y-134135000D01*
X137632756Y-134052953D01*
X138021302Y-133892012D01*
X138370983Y-133658363D01*
X138537693Y-133491653D01*
X140777952Y-133491653D01*
X140933962Y-133807214D01*
X141308745Y-133998020D01*
X141713551Y-134112044D01*
X142132824Y-134144902D01*
X142550451Y-134095334D01*
X142950383Y-133965243D01*
X143246038Y-133807214D01*
X143402048Y-133491653D01*
X142090000Y-132179605D01*
X140777952Y-133491653D01*
X138537693Y-133491653D01*
X138668363Y-133360983D01*
X138902012Y-133011302D01*
X139062953Y-132622756D01*
X139145000Y-132210279D01*
X139145000Y-132042824D01*
X139945098Y-132042824D01*
X139994666Y-132460451D01*
X140124757Y-132860383D01*
X140282786Y-133156038D01*
X140598347Y-133312048D01*
X141910395Y-132000000D01*
X142269605Y-132000000D01*
X143581653Y-133312048D01*
X143897214Y-133156038D01*
X144088020Y-132781255D01*
X144202044Y-132376449D01*
X144234902Y-131957176D01*
X144185334Y-131539549D01*
X144055243Y-131139617D01*
X143897214Y-130843962D01*
X143581653Y-130687952D01*
X142269605Y-132000000D01*
X141910395Y-132000000D01*
X140598347Y-130687952D01*
X140282786Y-130843962D01*
X140091980Y-131218745D01*
X139977956Y-131623551D01*
X139945098Y-132042824D01*
X139145000Y-132042824D01*
X139145000Y-131789721D01*
X139062953Y-131377244D01*
X138902012Y-130988698D01*
X138668363Y-130639017D01*
X138537693Y-130508347D01*
X140777952Y-130508347D01*
X142090000Y-131820395D01*
X143402048Y-130508347D01*
X143246038Y-130192786D01*
X142871255Y-130001980D01*
X142466449Y-129887956D01*
X142047176Y-129855098D01*
X141629549Y-129904666D01*
X141229617Y-130034757D01*
X140933962Y-130192786D01*
X140777952Y-130508347D01*
X138537693Y-130508347D01*
X138370983Y-130341637D01*
X138021302Y-130107988D01*
X137632756Y-129947047D01*
X137220279Y-129865000D01*
X136799721Y-129865000D01*
X136387244Y-129947047D01*
X135998698Y-130107988D01*
X135649017Y-130341637D01*
X135351637Y-130639017D01*
X135117988Y-130988698D01*
X134957047Y-131377244D01*
X134875000Y-131789721D01*
X130561324Y-131789721D01*
X130596608Y-131673408D01*
X130613072Y-131506250D01*
X130613072Y-131068750D01*
X130596608Y-130901592D01*
X130547850Y-130740858D01*
X130468671Y-130592725D01*
X130392574Y-130500000D01*
X130468671Y-130407275D01*
X130547850Y-130259142D01*
X130596608Y-130098408D01*
X130613072Y-129931250D01*
X130613072Y-129493750D01*
X130603033Y-129391822D01*
X130649828Y-129546086D01*
X130715549Y-129669040D01*
X130727365Y-129691146D01*
X130761928Y-129733261D01*
X130761928Y-130500000D01*
X130774188Y-130624482D01*
X130810498Y-130744180D01*
X130869463Y-130854494D01*
X130948815Y-130951185D01*
X131045506Y-131030537D01*
X131155820Y-131089502D01*
X131275518Y-131125812D01*
X131400000Y-131138072D01*
X133100000Y-131138072D01*
X133224482Y-131125812D01*
X133344180Y-131089502D01*
X133454494Y-131030537D01*
X133551185Y-130951185D01*
X133630537Y-130854494D01*
X133689502Y-130744180D01*
X133725812Y-130624482D01*
X133738072Y-130500000D01*
X133738072Y-129600000D01*
X133725812Y-129475518D01*
X133689502Y-129355820D01*
X133645154Y-129272853D01*
X133740608Y-129221831D01*
X133867606Y-129117606D01*
X133894365Y-129085000D01*
X137908982Y-129085000D01*
X137950000Y-129089040D01*
X137991018Y-129085000D01*
X137991019Y-129085000D01*
X138113689Y-129072918D01*
X138271087Y-129025172D01*
X138416146Y-128947636D01*
X138543291Y-128843291D01*
X138569445Y-128811422D01*
X139761433Y-127619436D01*
X139793291Y-127593291D01*
X139897636Y-127466146D01*
X139975172Y-127321087D01*
X140022918Y-127163689D01*
X140035000Y-127041019D01*
X140035000Y-127041018D01*
X140038204Y-127008490D01*
X140117205Y-126890256D01*
X140195226Y-126701898D01*
X140235000Y-126501939D01*
X140235000Y-126298061D01*
X140195226Y-126098102D01*
X140117205Y-125909744D01*
X140035000Y-125786715D01*
X140035000Y-125619745D01*
X140159392Y-125721831D01*
X140304284Y-125799278D01*
X140461500Y-125846969D01*
X140625000Y-125863072D01*
X141025000Y-125863072D01*
X141188500Y-125846969D01*
X141345716Y-125799278D01*
X141490608Y-125721831D01*
X141617606Y-125617606D01*
X141721831Y-125490608D01*
X141799278Y-125345716D01*
X141846969Y-125188500D01*
X141863072Y-125025000D01*
X141863072Y-124892796D01*
X142561432Y-124194437D01*
X142593291Y-124168291D01*
X142620613Y-124135000D01*
X142624079Y-124130776D01*
X142674482Y-124125812D01*
X142794180Y-124089502D01*
X142904494Y-124030537D01*
X143000000Y-123952158D01*
X143095506Y-124030537D01*
X143165000Y-124067683D01*
X143165001Y-128788972D01*
X143160960Y-128830000D01*
X143177082Y-128993688D01*
X143224828Y-129151086D01*
X143302364Y-129296145D01*
X143302365Y-129296146D01*
X143406710Y-129423291D01*
X143438574Y-129449441D01*
X145190074Y-131200941D01*
X145117047Y-131377244D01*
X145035000Y-131789721D01*
X145035000Y-132210279D01*
X145117047Y-132622756D01*
X145277988Y-133011302D01*
X145511637Y-133360983D01*
X145809017Y-133658363D01*
X146158698Y-133892012D01*
X146547244Y-134052953D01*
X146959721Y-134135000D01*
X147380279Y-134135000D01*
X147792756Y-134052953D01*
X148181302Y-133892012D01*
X148530983Y-133658363D01*
X148828363Y-133360983D01*
X149062012Y-133011302D01*
X149222953Y-132622756D01*
X149305000Y-132210279D01*
X149305000Y-131789721D01*
X149222953Y-131377244D01*
X149062012Y-130988698D01*
X148828363Y-130639017D01*
X148530983Y-130341637D01*
X148181302Y-130107988D01*
X147792756Y-129947047D01*
X147380279Y-129865000D01*
X146959721Y-129865000D01*
X146547244Y-129947047D01*
X146370941Y-130020074D01*
X144835000Y-128484133D01*
X144835000Y-124067683D01*
X144904494Y-124030537D01*
X145000000Y-123952158D01*
X145095506Y-124030537D01*
X145205820Y-124089502D01*
X145325518Y-124125812D01*
X145450000Y-124138072D01*
X146550000Y-124138072D01*
X146674482Y-124125812D01*
X146794180Y-124089502D01*
X146904494Y-124030537D01*
X147000000Y-123952158D01*
X147095506Y-124030537D01*
X147205820Y-124089502D01*
X147325518Y-124125812D01*
X147450000Y-124138072D01*
X148550000Y-124138072D01*
X148674482Y-124125812D01*
X148794180Y-124089502D01*
X148904494Y-124030537D01*
X149000000Y-123952158D01*
X149095506Y-124030537D01*
X149205820Y-124089502D01*
X149325518Y-124125812D01*
X149450000Y-124138072D01*
X150550000Y-124138072D01*
X150674482Y-124125812D01*
X150794180Y-124089502D01*
X150904494Y-124030537D01*
X151001185Y-123951185D01*
X151080537Y-123854494D01*
X151139502Y-123744180D01*
X151175812Y-123624482D01*
X151188072Y-123500000D01*
X151188072Y-120900000D01*
X151175812Y-120775518D01*
X151171050Y-120759819D01*
X151345868Y-120585000D01*
X152232405Y-120585000D01*
X152232456Y-120585077D01*
X152414923Y-120767544D01*
X152629482Y-120910907D01*
X152867887Y-121009658D01*
X153120976Y-121060000D01*
X153379024Y-121060000D01*
X153632113Y-121009658D01*
X153870518Y-120910907D01*
X154085077Y-120767544D01*
X154267544Y-120585077D01*
X154340001Y-120476637D01*
X154340001Y-130257465D01*
G37*
%TD.AperFunction*%
D23*
X134811928Y-120900000D02*
X134815000Y-121914250D01*
X134973750Y-122073000D01*
X135873000Y-122073000D01*
X135873000Y-122053000D01*
X136127000Y-122053000D01*
X136127000Y-122073000D01*
X136147000Y-122073000D01*
X136147000Y-122327000D01*
X136127000Y-122327000D01*
X136127000Y-123723750D01*
X136052000Y-123798750D01*
X136052000Y-124623000D01*
X136072000Y-124623000D01*
X136072000Y-124877000D01*
X136052000Y-124877000D01*
X136052000Y-125701250D01*
X136210750Y-125860000D01*
X136325000Y-125863072D01*
X136449482Y-125850812D01*
X136569180Y-125814502D01*
X136679494Y-125755537D01*
X136776185Y-125676185D01*
X136807410Y-125638137D01*
X136909392Y-125721831D01*
X137054284Y-125799278D01*
X137211500Y-125846969D01*
X137375000Y-125863072D01*
X137775000Y-125863072D01*
X137938500Y-125846969D01*
X138095716Y-125799278D01*
X138240608Y-125721831D01*
X138365000Y-125619744D01*
X138365000Y-125786715D01*
X138282795Y-125909744D01*
X138204774Y-126098102D01*
X138165000Y-126298061D01*
X138165000Y-126501939D01*
X138204774Y-126701898D01*
X138237713Y-126781419D01*
X137604133Y-127415000D01*
X133894365Y-127415000D01*
X133867606Y-127382394D01*
X133740608Y-127278169D01*
X133595716Y-127200722D01*
X133438500Y-127153031D01*
X133275000Y-127136928D01*
X132875000Y-127136928D01*
X132711500Y-127153031D01*
X132554284Y-127200722D01*
X132409392Y-127278169D01*
X132282394Y-127382394D01*
X132260000Y-127409681D01*
X132260000Y-125225000D01*
X134886928Y-125225000D01*
X134899188Y-125349482D01*
X134935498Y-125469180D01*
X134994463Y-125579494D01*
X135073815Y-125676185D01*
X135170506Y-125755537D01*
X135280820Y-125814502D01*
X135400518Y-125850812D01*
X135525000Y-125863072D01*
X135639250Y-125860000D01*
X135798000Y-125701250D01*
X135798000Y-124877000D01*
X135048750Y-124877000D01*
X134890000Y-125035750D01*
X134886928Y-125225000D01*
X132260000Y-125225000D01*
X132260000Y-123500000D01*
X134811928Y-123500000D01*
X134824188Y-123624482D01*
X134860498Y-123744180D01*
X134919463Y-123854494D01*
X134986249Y-123935873D01*
X134935498Y-124030820D01*
X134899188Y-124150518D01*
X134886928Y-124275000D01*
X134890000Y-124464250D01*
X135048750Y-124623000D01*
X135798000Y-124623000D01*
X135798000Y-124051250D01*
X135873000Y-123976250D01*
X135873000Y-122327000D01*
X134973750Y-122327000D01*
X134815000Y-122485750D01*
X134811928Y-123500000D01*
X132260000Y-123500000D01*
X132260000Y-123420867D01*
X134815321Y-120865548D01*
X134811928Y-120900000D01*
%TA.AperFunction,Conductor*%
D24*
G36*
X134811928Y-120900000D02*
G01*
X134815000Y-121914250D01*
X134973750Y-122073000D01*
X135873000Y-122073000D01*
X135873000Y-122053000D01*
X136127000Y-122053000D01*
X136127000Y-122073000D01*
X136147000Y-122073000D01*
X136147000Y-122327000D01*
X136127000Y-122327000D01*
X136127000Y-123723750D01*
X136052000Y-123798750D01*
X136052000Y-124623000D01*
X136072000Y-124623000D01*
X136072000Y-124877000D01*
X136052000Y-124877000D01*
X136052000Y-125701250D01*
X136210750Y-125860000D01*
X136325000Y-125863072D01*
X136449482Y-125850812D01*
X136569180Y-125814502D01*
X136679494Y-125755537D01*
X136776185Y-125676185D01*
X136807410Y-125638137D01*
X136909392Y-125721831D01*
X137054284Y-125799278D01*
X137211500Y-125846969D01*
X137375000Y-125863072D01*
X137775000Y-125863072D01*
X137938500Y-125846969D01*
X138095716Y-125799278D01*
X138240608Y-125721831D01*
X138365000Y-125619744D01*
X138365000Y-125786715D01*
X138282795Y-125909744D01*
X138204774Y-126098102D01*
X138165000Y-126298061D01*
X138165000Y-126501939D01*
X138204774Y-126701898D01*
X138237713Y-126781419D01*
X137604133Y-127415000D01*
X133894365Y-127415000D01*
X133867606Y-127382394D01*
X133740608Y-127278169D01*
X133595716Y-127200722D01*
X133438500Y-127153031D01*
X133275000Y-127136928D01*
X132875000Y-127136928D01*
X132711500Y-127153031D01*
X132554284Y-127200722D01*
X132409392Y-127278169D01*
X132282394Y-127382394D01*
X132260000Y-127409681D01*
X132260000Y-125225000D01*
X134886928Y-125225000D01*
X134899188Y-125349482D01*
X134935498Y-125469180D01*
X134994463Y-125579494D01*
X135073815Y-125676185D01*
X135170506Y-125755537D01*
X135280820Y-125814502D01*
X135400518Y-125850812D01*
X135525000Y-125863072D01*
X135639250Y-125860000D01*
X135798000Y-125701250D01*
X135798000Y-124877000D01*
X135048750Y-124877000D01*
X134890000Y-125035750D01*
X134886928Y-125225000D01*
X132260000Y-125225000D01*
X132260000Y-123500000D01*
X134811928Y-123500000D01*
X134824188Y-123624482D01*
X134860498Y-123744180D01*
X134919463Y-123854494D01*
X134986249Y-123935873D01*
X134935498Y-124030820D01*
X134899188Y-124150518D01*
X134886928Y-124275000D01*
X134890000Y-124464250D01*
X135048750Y-124623000D01*
X135798000Y-124623000D01*
X135798000Y-124051250D01*
X135873000Y-123976250D01*
X135873000Y-122327000D01*
X134973750Y-122327000D01*
X134815000Y-122485750D01*
X134811928Y-123500000D01*
X132260000Y-123500000D01*
X132260000Y-123420867D01*
X134815321Y-120865548D01*
X134811928Y-120900000D01*
G37*
%TD.AperFunction*%
D23*
X152415000Y-108459962D02*
X152330820Y-108485498D01*
X152220506Y-108544463D01*
X152123815Y-108623815D01*
X152044463Y-108720506D01*
X151985498Y-108830820D01*
X151949188Y-108950518D01*
X151936928Y-109075000D01*
X151936928Y-110425000D01*
X151949188Y-110549482D01*
X151985498Y-110669180D01*
X152044463Y-110779494D01*
X152123815Y-110876185D01*
X152217559Y-110953119D01*
X152120527Y-111086371D01*
X152012762Y-111319472D01*
X151982090Y-111420600D01*
X152105776Y-111623000D01*
X153123000Y-111623000D01*
X153123000Y-111603000D01*
X153377000Y-111603000D01*
X153377000Y-111623000D01*
X153397000Y-111623000D01*
X153397000Y-111877000D01*
X153377000Y-111877000D01*
X153377000Y-111897000D01*
X153123000Y-111897000D01*
X153123000Y-111877000D01*
X152105776Y-111877000D01*
X151982090Y-112079400D01*
X152012762Y-112180528D01*
X152120527Y-112413629D01*
X152271697Y-112621227D01*
X152404060Y-112743319D01*
X152289123Y-112858256D01*
X150835000Y-111404133D01*
X150835000Y-108667683D01*
X150904494Y-108630537D01*
X151001185Y-108551185D01*
X151080537Y-108454494D01*
X151139502Y-108344180D01*
X151175812Y-108224482D01*
X151188072Y-108100000D01*
X151188072Y-105500000D01*
X151175812Y-105375518D01*
X151139502Y-105255820D01*
X151080537Y-105145506D01*
X151001185Y-105048815D01*
X150947134Y-105004457D01*
X150967618Y-104979497D01*
X151047375Y-104830283D01*
X151096488Y-104668377D01*
X151113072Y-104500000D01*
X151113072Y-104050000D01*
X151096488Y-103881623D01*
X151047375Y-103719717D01*
X150969300Y-103573649D01*
X151005537Y-103529494D01*
X151064502Y-103419180D01*
X151100812Y-103299482D01*
X151113072Y-103175000D01*
X151110000Y-103010750D01*
X150951250Y-102852000D01*
X150127000Y-102852000D01*
X150127000Y-102872000D01*
X149873000Y-102872000D01*
X149873000Y-102852000D01*
X149853000Y-102852000D01*
X149853000Y-102598000D01*
X149873000Y-102598000D01*
X149873000Y-101798750D01*
X150127000Y-101798750D01*
X150127000Y-102598000D01*
X150951250Y-102598000D01*
X151110000Y-102439250D01*
X151113072Y-102275000D01*
X151100812Y-102150518D01*
X151064502Y-102030820D01*
X151005537Y-101920506D01*
X150926185Y-101823815D01*
X150829494Y-101744463D01*
X150719180Y-101685498D01*
X150599482Y-101649188D01*
X150475000Y-101636928D01*
X150285750Y-101640000D01*
X150127000Y-101798750D01*
X149873000Y-101798750D01*
X149714250Y-101640000D01*
X149525000Y-101636928D01*
X149400518Y-101649188D01*
X149280820Y-101685498D01*
X149170506Y-101744463D01*
X149073815Y-101823815D01*
X148994463Y-101920506D01*
X148956765Y-101991034D01*
X148867606Y-101882394D01*
X148835000Y-101855635D01*
X148835000Y-101120867D01*
X149042795Y-100913072D01*
X149200000Y-100913072D01*
X149368377Y-100896488D01*
X149530283Y-100847375D01*
X149679497Y-100767618D01*
X149810284Y-100660284D01*
X149917618Y-100529497D01*
X149997375Y-100380283D01*
X150046488Y-100218377D01*
X150063072Y-100050000D01*
X150063072Y-99892795D01*
X150767796Y-99188072D01*
X152300000Y-99188072D01*
X152415001Y-99176746D01*
X152415000Y-108459962D01*
%TA.AperFunction,Conductor*%
D24*
G36*
X152415000Y-108459962D02*
G01*
X152330820Y-108485498D01*
X152220506Y-108544463D01*
X152123815Y-108623815D01*
X152044463Y-108720506D01*
X151985498Y-108830820D01*
X151949188Y-108950518D01*
X151936928Y-109075000D01*
X151936928Y-110425000D01*
X151949188Y-110549482D01*
X151985498Y-110669180D01*
X152044463Y-110779494D01*
X152123815Y-110876185D01*
X152217559Y-110953119D01*
X152120527Y-111086371D01*
X152012762Y-111319472D01*
X151982090Y-111420600D01*
X152105776Y-111623000D01*
X153123000Y-111623000D01*
X153123000Y-111603000D01*
X153377000Y-111603000D01*
X153377000Y-111623000D01*
X153397000Y-111623000D01*
X153397000Y-111877000D01*
X153377000Y-111877000D01*
X153377000Y-111897000D01*
X153123000Y-111897000D01*
X153123000Y-111877000D01*
X152105776Y-111877000D01*
X151982090Y-112079400D01*
X152012762Y-112180528D01*
X152120527Y-112413629D01*
X152271697Y-112621227D01*
X152404060Y-112743319D01*
X152289123Y-112858256D01*
X150835000Y-111404133D01*
X150835000Y-108667683D01*
X150904494Y-108630537D01*
X151001185Y-108551185D01*
X151080537Y-108454494D01*
X151139502Y-108344180D01*
X151175812Y-108224482D01*
X151188072Y-108100000D01*
X151188072Y-105500000D01*
X151175812Y-105375518D01*
X151139502Y-105255820D01*
X151080537Y-105145506D01*
X151001185Y-105048815D01*
X150947134Y-105004457D01*
X150967618Y-104979497D01*
X151047375Y-104830283D01*
X151096488Y-104668377D01*
X151113072Y-104500000D01*
X151113072Y-104050000D01*
X151096488Y-103881623D01*
X151047375Y-103719717D01*
X150969300Y-103573649D01*
X151005537Y-103529494D01*
X151064502Y-103419180D01*
X151100812Y-103299482D01*
X151113072Y-103175000D01*
X151110000Y-103010750D01*
X150951250Y-102852000D01*
X150127000Y-102852000D01*
X150127000Y-102872000D01*
X149873000Y-102872000D01*
X149873000Y-102852000D01*
X149853000Y-102852000D01*
X149853000Y-102598000D01*
X149873000Y-102598000D01*
X149873000Y-101798750D01*
X150127000Y-101798750D01*
X150127000Y-102598000D01*
X150951250Y-102598000D01*
X151110000Y-102439250D01*
X151113072Y-102275000D01*
X151100812Y-102150518D01*
X151064502Y-102030820D01*
X151005537Y-101920506D01*
X150926185Y-101823815D01*
X150829494Y-101744463D01*
X150719180Y-101685498D01*
X150599482Y-101649188D01*
X150475000Y-101636928D01*
X150285750Y-101640000D01*
X150127000Y-101798750D01*
X149873000Y-101798750D01*
X149714250Y-101640000D01*
X149525000Y-101636928D01*
X149400518Y-101649188D01*
X149280820Y-101685498D01*
X149170506Y-101744463D01*
X149073815Y-101823815D01*
X148994463Y-101920506D01*
X148956765Y-101991034D01*
X148867606Y-101882394D01*
X148835000Y-101855635D01*
X148835000Y-101120867D01*
X149042795Y-100913072D01*
X149200000Y-100913072D01*
X149368377Y-100896488D01*
X149530283Y-100847375D01*
X149679497Y-100767618D01*
X149810284Y-100660284D01*
X149917618Y-100529497D01*
X149997375Y-100380283D01*
X150046488Y-100218377D01*
X150063072Y-100050000D01*
X150063072Y-99892795D01*
X150767796Y-99188072D01*
X152300000Y-99188072D01*
X152415001Y-99176746D01*
X152415000Y-108459962D01*
G37*
%TD.AperFunction*%
D23*
X135634132Y-98015000D02*
X135622998Y-98015000D01*
X135622998Y-98173748D01*
X135464250Y-98015000D01*
X135300000Y-98011928D01*
X135175518Y-98024188D01*
X135055820Y-98060498D01*
X134945506Y-98119463D01*
X134848815Y-98198815D01*
X134769463Y-98295506D01*
X134710498Y-98405820D01*
X134674188Y-98525518D01*
X134661928Y-98650000D01*
X134665000Y-98764250D01*
X134823750Y-98923000D01*
X135623000Y-98923000D01*
X135623000Y-98903000D01*
X135877000Y-98903000D01*
X135877000Y-98923000D01*
X135897000Y-98923000D01*
X135897000Y-99177000D01*
X135877000Y-99177000D01*
X135877000Y-99197000D01*
X135623000Y-99197000D01*
X135623000Y-99177000D01*
X134823750Y-99177000D01*
X134739143Y-99261607D01*
X134730537Y-99245506D01*
X134651185Y-99148815D01*
X134554494Y-99069463D01*
X134444180Y-99010498D01*
X134324482Y-98974188D01*
X134200000Y-98961928D01*
X133300000Y-98961928D01*
X133175518Y-98974188D01*
X133055820Y-99010498D01*
X132945506Y-99069463D01*
X132848815Y-99148815D01*
X132769463Y-99245506D01*
X132710498Y-99355820D01*
X132674188Y-99475518D01*
X132661928Y-99600000D01*
X132661928Y-99907204D01*
X129188579Y-103380554D01*
X129156709Y-103406709D01*
X129072151Y-103509744D01*
X129052364Y-103533855D01*
X128974828Y-103678914D01*
X128927082Y-103836312D01*
X128910960Y-104000000D01*
X128915000Y-104041019D01*
X128915001Y-110615632D01*
X128900539Y-110627500D01*
X128431256Y-110627500D01*
X128405399Y-103775470D01*
X130061432Y-102119437D01*
X130093291Y-102093291D01*
X130119440Y-102061429D01*
X130197636Y-101966146D01*
X130275172Y-101821087D01*
X130288191Y-101778169D01*
X130322918Y-101663689D01*
X130335000Y-101541019D01*
X130335000Y-101541018D01*
X130339040Y-101500000D01*
X130335000Y-101458982D01*
X130335000Y-96134368D01*
X130362115Y-96112115D01*
X130468671Y-95982275D01*
X130547850Y-95834142D01*
X130596608Y-95673408D01*
X130613072Y-95506250D01*
X130613072Y-95068750D01*
X130596608Y-94901592D01*
X130547850Y-94740858D01*
X130468671Y-94592725D01*
X130431556Y-94547500D01*
X132166633Y-94547500D01*
X135634132Y-98015000D01*
%TA.AperFunction,Conductor*%
D24*
G36*
X135634132Y-98015000D02*
G01*
X135622998Y-98015000D01*
X135622998Y-98173748D01*
X135464250Y-98015000D01*
X135300000Y-98011928D01*
X135175518Y-98024188D01*
X135055820Y-98060498D01*
X134945506Y-98119463D01*
X134848815Y-98198815D01*
X134769463Y-98295506D01*
X134710498Y-98405820D01*
X134674188Y-98525518D01*
X134661928Y-98650000D01*
X134665000Y-98764250D01*
X134823750Y-98923000D01*
X135623000Y-98923000D01*
X135623000Y-98903000D01*
X135877000Y-98903000D01*
X135877000Y-98923000D01*
X135897000Y-98923000D01*
X135897000Y-99177000D01*
X135877000Y-99177000D01*
X135877000Y-99197000D01*
X135623000Y-99197000D01*
X135623000Y-99177000D01*
X134823750Y-99177000D01*
X134739143Y-99261607D01*
X134730537Y-99245506D01*
X134651185Y-99148815D01*
X134554494Y-99069463D01*
X134444180Y-99010498D01*
X134324482Y-98974188D01*
X134200000Y-98961928D01*
X133300000Y-98961928D01*
X133175518Y-98974188D01*
X133055820Y-99010498D01*
X132945506Y-99069463D01*
X132848815Y-99148815D01*
X132769463Y-99245506D01*
X132710498Y-99355820D01*
X132674188Y-99475518D01*
X132661928Y-99600000D01*
X132661928Y-99907204D01*
X129188579Y-103380554D01*
X129156709Y-103406709D01*
X129072151Y-103509744D01*
X129052364Y-103533855D01*
X128974828Y-103678914D01*
X128927082Y-103836312D01*
X128910960Y-104000000D01*
X128915000Y-104041019D01*
X128915001Y-110615632D01*
X128900539Y-110627500D01*
X128431256Y-110627500D01*
X128405399Y-103775470D01*
X130061432Y-102119437D01*
X130093291Y-102093291D01*
X130119440Y-102061429D01*
X130197636Y-101966146D01*
X130275172Y-101821087D01*
X130288191Y-101778169D01*
X130322918Y-101663689D01*
X130335000Y-101541019D01*
X130335000Y-101541018D01*
X130339040Y-101500000D01*
X130335000Y-101458982D01*
X130335000Y-96134368D01*
X130362115Y-96112115D01*
X130468671Y-95982275D01*
X130547850Y-95834142D01*
X130596608Y-95673408D01*
X130613072Y-95506250D01*
X130613072Y-95068750D01*
X130596608Y-94901592D01*
X130547850Y-94740858D01*
X130468671Y-94592725D01*
X130431556Y-94547500D01*
X132166633Y-94547500D01*
X135634132Y-98015000D01*
G37*
%TD.AperFunction*%
D23*
X154340001Y-108594119D02*
X154279494Y-108544463D01*
X154169180Y-108485498D01*
X154085000Y-108459962D01*
X154085000Y-94291007D01*
X154089039Y-94249999D01*
X154085000Y-94208991D01*
X154085000Y-94208981D01*
X154072918Y-94086311D01*
X154035000Y-93961312D01*
X154035000Y-93898061D01*
X153995226Y-93698102D01*
X153917205Y-93509744D01*
X153803937Y-93340226D01*
X153659774Y-93196063D01*
X153490256Y-93082795D01*
X153301898Y-93004774D01*
X153101939Y-92965000D01*
X152898061Y-92965000D01*
X152698102Y-93004774D01*
X152509744Y-93082795D01*
X152340226Y-93196063D01*
X152196063Y-93340226D01*
X152082795Y-93509744D01*
X152004774Y-93698102D01*
X151965000Y-93898061D01*
X151965000Y-94101939D01*
X152004774Y-94301898D01*
X152082795Y-94490256D01*
X152196063Y-94659774D01*
X152340226Y-94803937D01*
X152415001Y-94853900D01*
X152415001Y-95923254D01*
X152300000Y-95911928D01*
X151235000Y-95911928D01*
X151235000Y-92879701D01*
X151274482Y-92875812D01*
X151394180Y-92839502D01*
X151504494Y-92780537D01*
X151550000Y-92743191D01*
X151595506Y-92780537D01*
X151705820Y-92839502D01*
X151825518Y-92875812D01*
X151950000Y-92888072D01*
X152414250Y-92885000D01*
X152573000Y-92726250D01*
X152573000Y-91377000D01*
X152827000Y-91377000D01*
X152827000Y-92726250D01*
X152985750Y-92885000D01*
X153450000Y-92888072D01*
X153574482Y-92875812D01*
X153694180Y-92839502D01*
X153804494Y-92780537D01*
X153901185Y-92701185D01*
X153980537Y-92604494D01*
X154039502Y-92494180D01*
X154075812Y-92374482D01*
X154088072Y-92250000D01*
X154085000Y-91535750D01*
X153926250Y-91377000D01*
X152827000Y-91377000D01*
X152573000Y-91377000D01*
X152553000Y-91377000D01*
X152553000Y-91123000D01*
X152573000Y-91123000D01*
X152573000Y-89773750D01*
X152827000Y-89773750D01*
X152827000Y-91123000D01*
X153926250Y-91123000D01*
X154085000Y-90964250D01*
X154088072Y-90250000D01*
X154075812Y-90125518D01*
X154039502Y-90005820D01*
X153980537Y-89895506D01*
X153901185Y-89798815D01*
X153804494Y-89719463D01*
X153694180Y-89660498D01*
X153574482Y-89624188D01*
X153450000Y-89611928D01*
X152985750Y-89615000D01*
X152827000Y-89773750D01*
X152573000Y-89773750D01*
X152414250Y-89615000D01*
X151950000Y-89611928D01*
X151825518Y-89624188D01*
X151705820Y-89660498D01*
X151595506Y-89719463D01*
X151550000Y-89756809D01*
X151504494Y-89719463D01*
X151394180Y-89660498D01*
X151274482Y-89624188D01*
X151150000Y-89611928D01*
X150044926Y-89611928D01*
X150094502Y-89519180D01*
X150130812Y-89399482D01*
X150143072Y-89275000D01*
X150140000Y-89085750D01*
X149981250Y-88927000D01*
X149182000Y-88927000D01*
X149182000Y-88947000D01*
X148928000Y-88947000D01*
X148928000Y-88927000D01*
X148908000Y-88927000D01*
X148908000Y-88673000D01*
X148928000Y-88673000D01*
X148928000Y-87848750D01*
X149182000Y-87848750D01*
X149182000Y-88673000D01*
X149981250Y-88673000D01*
X150140000Y-88514250D01*
X150143072Y-88325000D01*
X150130812Y-88200518D01*
X150094502Y-88080820D01*
X150035537Y-87970506D01*
X149956185Y-87873815D01*
X149859494Y-87794463D01*
X149749180Y-87735498D01*
X149629482Y-87699188D01*
X149505000Y-87686928D01*
X149340750Y-87690000D01*
X149182000Y-87848750D01*
X148928000Y-87848750D01*
X148769250Y-87690000D01*
X148605000Y-87686928D01*
X148480518Y-87699188D01*
X148360820Y-87735498D01*
X148250506Y-87794463D01*
X148206351Y-87830700D01*
X148060283Y-87752625D01*
X147898377Y-87703512D01*
X147835000Y-87697270D01*
X147835000Y-87613285D01*
X147917205Y-87490256D01*
X147995226Y-87301898D01*
X148035000Y-87101939D01*
X148035000Y-86898061D01*
X147995226Y-86698102D01*
X147917205Y-86509744D01*
X147803937Y-86340226D01*
X147659774Y-86196063D01*
X147490256Y-86082795D01*
X147301898Y-86004774D01*
X147101939Y-85965000D01*
X146898061Y-85965000D01*
X146698102Y-86004774D01*
X146509744Y-86082795D01*
X146340226Y-86196063D01*
X146196063Y-86340226D01*
X146082795Y-86509744D01*
X146004774Y-86698102D01*
X145965000Y-86898061D01*
X145965000Y-87101939D01*
X146004774Y-87301898D01*
X146082795Y-87490256D01*
X146165000Y-87613286D01*
X146165001Y-87965000D01*
X133813285Y-87965000D01*
X133690256Y-87882795D01*
X133501898Y-87804774D01*
X133301939Y-87765000D01*
X133098061Y-87765000D01*
X132898102Y-87804774D01*
X132709744Y-87882795D01*
X132540226Y-87996063D01*
X132396063Y-88140226D01*
X132282795Y-88309744D01*
X132204774Y-88498102D01*
X132165000Y-88698061D01*
X132165000Y-88901939D01*
X132204774Y-89101898D01*
X132282795Y-89290256D01*
X132341089Y-89377500D01*
X130349461Y-89377500D01*
X130232275Y-89281329D01*
X130084142Y-89202150D01*
X129923408Y-89153392D01*
X129756250Y-89136928D01*
X129605296Y-89136928D01*
X128735000Y-88266633D01*
X128735000Y-83660000D01*
X141967581Y-83660000D01*
X142000000Y-83663193D01*
X142032419Y-83660000D01*
X142129383Y-83650450D01*
X142253793Y-83612710D01*
X142368450Y-83551425D01*
X142468948Y-83468948D01*
X142551425Y-83368450D01*
X142612710Y-83253793D01*
X142650450Y-83129383D01*
X142663193Y-83000000D01*
X142660000Y-82967581D01*
X142660000Y-80400000D01*
X147358057Y-80400000D01*
X147385764Y-80681309D01*
X147467818Y-80951808D01*
X147601068Y-81201101D01*
X147780392Y-81419608D01*
X147998899Y-81598932D01*
X148248192Y-81732182D01*
X148518691Y-81814236D01*
X148729508Y-81835000D01*
X152270492Y-81835000D01*
X152481309Y-81814236D01*
X152751808Y-81732182D01*
X153001101Y-81598932D01*
X153219608Y-81419608D01*
X153398932Y-81201101D01*
X153532182Y-80951808D01*
X153614236Y-80681309D01*
X153641943Y-80400000D01*
X153614236Y-80118691D01*
X153532182Y-79848192D01*
X153398932Y-79598899D01*
X153219608Y-79380392D01*
X153001101Y-79201068D01*
X152751808Y-79067818D01*
X152481309Y-78985764D01*
X152270492Y-78965000D01*
X148729508Y-78965000D01*
X148518691Y-78985764D01*
X148248192Y-79067818D01*
X147998899Y-79201068D01*
X147780392Y-79380392D01*
X147601068Y-79598899D01*
X147467818Y-79848192D01*
X147385764Y-80118691D01*
X147358057Y-80400000D01*
X142660000Y-80400000D01*
X142660000Y-73032419D01*
X142663193Y-73000000D01*
X142650450Y-72870617D01*
X142612710Y-72746207D01*
X142551425Y-72631550D01*
X142468948Y-72531052D01*
X142368450Y-72448575D01*
X142253793Y-72387290D01*
X142129383Y-72349550D01*
X142127000Y-72349315D01*
X142127000Y-67460000D01*
X154340000Y-67460000D01*
X154340001Y-108594119D01*
%TA.AperFunction,Conductor*%
D24*
G36*
X154340001Y-108594119D02*
G01*
X154279494Y-108544463D01*
X154169180Y-108485498D01*
X154085000Y-108459962D01*
X154085000Y-94291007D01*
X154089039Y-94249999D01*
X154085000Y-94208991D01*
X154085000Y-94208981D01*
X154072918Y-94086311D01*
X154035000Y-93961312D01*
X154035000Y-93898061D01*
X153995226Y-93698102D01*
X153917205Y-93509744D01*
X153803937Y-93340226D01*
X153659774Y-93196063D01*
X153490256Y-93082795D01*
X153301898Y-93004774D01*
X153101939Y-92965000D01*
X152898061Y-92965000D01*
X152698102Y-93004774D01*
X152509744Y-93082795D01*
X152340226Y-93196063D01*
X152196063Y-93340226D01*
X152082795Y-93509744D01*
X152004774Y-93698102D01*
X151965000Y-93898061D01*
X151965000Y-94101939D01*
X152004774Y-94301898D01*
X152082795Y-94490256D01*
X152196063Y-94659774D01*
X152340226Y-94803937D01*
X152415001Y-94853900D01*
X152415001Y-95923254D01*
X152300000Y-95911928D01*
X151235000Y-95911928D01*
X151235000Y-92879701D01*
X151274482Y-92875812D01*
X151394180Y-92839502D01*
X151504494Y-92780537D01*
X151550000Y-92743191D01*
X151595506Y-92780537D01*
X151705820Y-92839502D01*
X151825518Y-92875812D01*
X151950000Y-92888072D01*
X152414250Y-92885000D01*
X152573000Y-92726250D01*
X152573000Y-91377000D01*
X152827000Y-91377000D01*
X152827000Y-92726250D01*
X152985750Y-92885000D01*
X153450000Y-92888072D01*
X153574482Y-92875812D01*
X153694180Y-92839502D01*
X153804494Y-92780537D01*
X153901185Y-92701185D01*
X153980537Y-92604494D01*
X154039502Y-92494180D01*
X154075812Y-92374482D01*
X154088072Y-92250000D01*
X154085000Y-91535750D01*
X153926250Y-91377000D01*
X152827000Y-91377000D01*
X152573000Y-91377000D01*
X152553000Y-91377000D01*
X152553000Y-91123000D01*
X152573000Y-91123000D01*
X152573000Y-89773750D01*
X152827000Y-89773750D01*
X152827000Y-91123000D01*
X153926250Y-91123000D01*
X154085000Y-90964250D01*
X154088072Y-90250000D01*
X154075812Y-90125518D01*
X154039502Y-90005820D01*
X153980537Y-89895506D01*
X153901185Y-89798815D01*
X153804494Y-89719463D01*
X153694180Y-89660498D01*
X153574482Y-89624188D01*
X153450000Y-89611928D01*
X152985750Y-89615000D01*
X152827000Y-89773750D01*
X152573000Y-89773750D01*
X152414250Y-89615000D01*
X151950000Y-89611928D01*
X151825518Y-89624188D01*
X151705820Y-89660498D01*
X151595506Y-89719463D01*
X151550000Y-89756809D01*
X151504494Y-89719463D01*
X151394180Y-89660498D01*
X151274482Y-89624188D01*
X151150000Y-89611928D01*
X150044926Y-89611928D01*
X150094502Y-89519180D01*
X150130812Y-89399482D01*
X150143072Y-89275000D01*
X150140000Y-89085750D01*
X149981250Y-88927000D01*
X149182000Y-88927000D01*
X149182000Y-88947000D01*
X148928000Y-88947000D01*
X148928000Y-88927000D01*
X148908000Y-88927000D01*
X148908000Y-88673000D01*
X148928000Y-88673000D01*
X148928000Y-87848750D01*
X149182000Y-87848750D01*
X149182000Y-88673000D01*
X149981250Y-88673000D01*
X150140000Y-88514250D01*
X150143072Y-88325000D01*
X150130812Y-88200518D01*
X150094502Y-88080820D01*
X150035537Y-87970506D01*
X149956185Y-87873815D01*
X149859494Y-87794463D01*
X149749180Y-87735498D01*
X149629482Y-87699188D01*
X149505000Y-87686928D01*
X149340750Y-87690000D01*
X149182000Y-87848750D01*
X148928000Y-87848750D01*
X148769250Y-87690000D01*
X148605000Y-87686928D01*
X148480518Y-87699188D01*
X148360820Y-87735498D01*
X148250506Y-87794463D01*
X148206351Y-87830700D01*
X148060283Y-87752625D01*
X147898377Y-87703512D01*
X147835000Y-87697270D01*
X147835000Y-87613285D01*
X147917205Y-87490256D01*
X147995226Y-87301898D01*
X148035000Y-87101939D01*
X148035000Y-86898061D01*
X147995226Y-86698102D01*
X147917205Y-86509744D01*
X147803937Y-86340226D01*
X147659774Y-86196063D01*
X147490256Y-86082795D01*
X147301898Y-86004774D01*
X147101939Y-85965000D01*
X146898061Y-85965000D01*
X146698102Y-86004774D01*
X146509744Y-86082795D01*
X146340226Y-86196063D01*
X146196063Y-86340226D01*
X146082795Y-86509744D01*
X146004774Y-86698102D01*
X145965000Y-86898061D01*
X145965000Y-87101939D01*
X146004774Y-87301898D01*
X146082795Y-87490256D01*
X146165000Y-87613286D01*
X146165001Y-87965000D01*
X133813285Y-87965000D01*
X133690256Y-87882795D01*
X133501898Y-87804774D01*
X133301939Y-87765000D01*
X133098061Y-87765000D01*
X132898102Y-87804774D01*
X132709744Y-87882795D01*
X132540226Y-87996063D01*
X132396063Y-88140226D01*
X132282795Y-88309744D01*
X132204774Y-88498102D01*
X132165000Y-88698061D01*
X132165000Y-88901939D01*
X132204774Y-89101898D01*
X132282795Y-89290256D01*
X132341089Y-89377500D01*
X130349461Y-89377500D01*
X130232275Y-89281329D01*
X130084142Y-89202150D01*
X129923408Y-89153392D01*
X129756250Y-89136928D01*
X129605296Y-89136928D01*
X128735000Y-88266633D01*
X128735000Y-83660000D01*
X141967581Y-83660000D01*
X142000000Y-83663193D01*
X142032419Y-83660000D01*
X142129383Y-83650450D01*
X142253793Y-83612710D01*
X142368450Y-83551425D01*
X142468948Y-83468948D01*
X142551425Y-83368450D01*
X142612710Y-83253793D01*
X142650450Y-83129383D01*
X142663193Y-83000000D01*
X142660000Y-82967581D01*
X142660000Y-80400000D01*
X147358057Y-80400000D01*
X147385764Y-80681309D01*
X147467818Y-80951808D01*
X147601068Y-81201101D01*
X147780392Y-81419608D01*
X147998899Y-81598932D01*
X148248192Y-81732182D01*
X148518691Y-81814236D01*
X148729508Y-81835000D01*
X152270492Y-81835000D01*
X152481309Y-81814236D01*
X152751808Y-81732182D01*
X153001101Y-81598932D01*
X153219608Y-81419608D01*
X153398932Y-81201101D01*
X153532182Y-80951808D01*
X153614236Y-80681309D01*
X153641943Y-80400000D01*
X153614236Y-80118691D01*
X153532182Y-79848192D01*
X153398932Y-79598899D01*
X153219608Y-79380392D01*
X153001101Y-79201068D01*
X152751808Y-79067818D01*
X152481309Y-78985764D01*
X152270492Y-78965000D01*
X148729508Y-78965000D01*
X148518691Y-78985764D01*
X148248192Y-79067818D01*
X147998899Y-79201068D01*
X147780392Y-79380392D01*
X147601068Y-79598899D01*
X147467818Y-79848192D01*
X147385764Y-80118691D01*
X147358057Y-80400000D01*
X142660000Y-80400000D01*
X142660000Y-73032419D01*
X142663193Y-73000000D01*
X142650450Y-72870617D01*
X142612710Y-72746207D01*
X142551425Y-72631550D01*
X142468948Y-72531052D01*
X142368450Y-72448575D01*
X142253793Y-72387290D01*
X142129383Y-72349550D01*
X142127000Y-72349315D01*
X142127000Y-67460000D01*
X154340000Y-67460000D01*
X154340001Y-108594119D01*
G37*
%TD.AperFunction*%
D23*
X146669716Y-89660284D02*
X146670000Y-89660517D01*
X146670001Y-90613972D01*
X146665960Y-90655000D01*
X146682082Y-90818688D01*
X146711928Y-90917077D01*
X146711928Y-92250000D01*
X146724188Y-92374482D01*
X146760498Y-92494180D01*
X146819463Y-92604494D01*
X146898815Y-92701185D01*
X146995506Y-92780537D01*
X147105820Y-92839502D01*
X147225518Y-92875812D01*
X147313730Y-92884500D01*
X147324828Y-92921086D01*
X147372217Y-93009744D01*
X147402365Y-93066146D01*
X147506710Y-93193291D01*
X147538574Y-93219441D01*
X147975907Y-93656775D01*
X148004774Y-93801898D01*
X148082795Y-93990256D01*
X148196063Y-94159774D01*
X148340226Y-94303937D01*
X148509744Y-94417205D01*
X148698102Y-94495226D01*
X148898061Y-94535000D01*
X149101939Y-94535000D01*
X149301898Y-94495226D01*
X149490256Y-94417205D01*
X149565000Y-94367262D01*
X149565001Y-95911928D01*
X148500000Y-95911928D01*
X148375518Y-95924188D01*
X148255820Y-95960498D01*
X148145506Y-96019463D01*
X148048815Y-96098815D01*
X147969463Y-96195506D01*
X147910498Y-96305820D01*
X147874188Y-96425518D01*
X147861928Y-96550000D01*
X147861928Y-98550000D01*
X147874188Y-98674482D01*
X147878055Y-98687229D01*
X147875000Y-98686928D01*
X147710750Y-98690000D01*
X147552000Y-98848750D01*
X147552000Y-99673000D01*
X147572000Y-99673000D01*
X147572000Y-99927000D01*
X147552000Y-99927000D01*
X147552000Y-99947000D01*
X147298000Y-99947000D01*
X147298000Y-99927000D01*
X146498750Y-99927000D01*
X146340000Y-100085750D01*
X146336928Y-100275000D01*
X146349188Y-100399482D01*
X146385498Y-100519180D01*
X146444463Y-100629494D01*
X146523815Y-100726185D01*
X146620506Y-100805537D01*
X146730820Y-100864502D01*
X146850518Y-100900812D01*
X146975000Y-100913072D01*
X147139250Y-100910000D01*
X147165001Y-100884249D01*
X147165000Y-101840000D01*
X146815949Y-101840000D01*
X146740608Y-101778169D01*
X146595716Y-101700722D01*
X146438500Y-101653031D01*
X146275000Y-101636928D01*
X145725000Y-101636928D01*
X145561500Y-101653031D01*
X145404284Y-101700722D01*
X145259392Y-101778169D01*
X145170423Y-101851185D01*
X145161311Y-101852082D01*
X145037418Y-101889664D01*
X145054494Y-101880537D01*
X145151185Y-101801185D01*
X145230537Y-101704494D01*
X145289502Y-101594180D01*
X145325812Y-101474482D01*
X145338072Y-101350000D01*
X145338072Y-100550000D01*
X145325812Y-100425518D01*
X145289502Y-100305820D01*
X145230537Y-100195506D01*
X145151185Y-100098815D01*
X145054494Y-100019463D01*
X145018082Y-100000000D01*
X145054494Y-99980537D01*
X145151185Y-99901185D01*
X145230537Y-99804494D01*
X145289502Y-99694180D01*
X145325812Y-99574482D01*
X145338072Y-99450000D01*
X145335000Y-99335750D01*
X145324250Y-99325000D01*
X146336928Y-99325000D01*
X146340000Y-99514250D01*
X146498750Y-99673000D01*
X147298000Y-99673000D01*
X147298000Y-98848750D01*
X147139250Y-98690000D01*
X146975000Y-98686928D01*
X146850518Y-98699188D01*
X146730820Y-98735498D01*
X146620506Y-98794463D01*
X146523815Y-98873815D01*
X146444463Y-98970506D01*
X146385498Y-99080820D01*
X146349188Y-99200518D01*
X146336928Y-99325000D01*
X145324250Y-99325000D01*
X145176250Y-99177000D01*
X144377000Y-99177000D01*
X144377000Y-99197000D01*
X144123000Y-99197000D01*
X144123000Y-99177000D01*
X143323750Y-99177000D01*
X143239143Y-99261607D01*
X143230537Y-99245506D01*
X143151185Y-99148815D01*
X143078091Y-99088828D01*
X143072918Y-99036311D01*
X143025172Y-98878913D01*
X142947636Y-98733854D01*
X142878819Y-98650000D01*
X143161928Y-98650000D01*
X143165000Y-98764250D01*
X143323750Y-98923000D01*
X144123000Y-98923000D01*
X144123000Y-98173750D01*
X144377000Y-98173750D01*
X144377000Y-98923000D01*
X145176250Y-98923000D01*
X145335000Y-98764250D01*
X145338072Y-98650000D01*
X145325812Y-98525518D01*
X145289502Y-98405820D01*
X145230537Y-98295506D01*
X145151185Y-98198815D01*
X145054494Y-98119463D01*
X144944180Y-98060498D01*
X144824482Y-98024188D01*
X144700000Y-98011928D01*
X144535750Y-98015000D01*
X144377000Y-98173750D01*
X144123000Y-98173750D01*
X143964250Y-98015000D01*
X143800000Y-98011928D01*
X143675518Y-98024188D01*
X143555820Y-98060498D01*
X143445506Y-98119463D01*
X143348815Y-98198815D01*
X143269463Y-98295506D01*
X143210498Y-98405820D01*
X143174188Y-98525518D01*
X143161928Y-98650000D01*
X142878819Y-98650000D01*
X142843291Y-98606709D01*
X142811427Y-98580559D01*
X133881946Y-89651079D01*
X133868750Y-89635000D01*
X146648966Y-89635000D01*
X146669716Y-89660284D01*
%TA.AperFunction,Conductor*%
D24*
G36*
X146669716Y-89660284D02*
G01*
X146670000Y-89660517D01*
X146670001Y-90613972D01*
X146665960Y-90655000D01*
X146682082Y-90818688D01*
X146711928Y-90917077D01*
X146711928Y-92250000D01*
X146724188Y-92374482D01*
X146760498Y-92494180D01*
X146819463Y-92604494D01*
X146898815Y-92701185D01*
X146995506Y-92780537D01*
X147105820Y-92839502D01*
X147225518Y-92875812D01*
X147313730Y-92884500D01*
X147324828Y-92921086D01*
X147372217Y-93009744D01*
X147402365Y-93066146D01*
X147506710Y-93193291D01*
X147538574Y-93219441D01*
X147975907Y-93656775D01*
X148004774Y-93801898D01*
X148082795Y-93990256D01*
X148196063Y-94159774D01*
X148340226Y-94303937D01*
X148509744Y-94417205D01*
X148698102Y-94495226D01*
X148898061Y-94535000D01*
X149101939Y-94535000D01*
X149301898Y-94495226D01*
X149490256Y-94417205D01*
X149565000Y-94367262D01*
X149565001Y-95911928D01*
X148500000Y-95911928D01*
X148375518Y-95924188D01*
X148255820Y-95960498D01*
X148145506Y-96019463D01*
X148048815Y-96098815D01*
X147969463Y-96195506D01*
X147910498Y-96305820D01*
X147874188Y-96425518D01*
X147861928Y-96550000D01*
X147861928Y-98550000D01*
X147874188Y-98674482D01*
X147878055Y-98687229D01*
X147875000Y-98686928D01*
X147710750Y-98690000D01*
X147552000Y-98848750D01*
X147552000Y-99673000D01*
X147572000Y-99673000D01*
X147572000Y-99927000D01*
X147552000Y-99927000D01*
X147552000Y-99947000D01*
X147298000Y-99947000D01*
X147298000Y-99927000D01*
X146498750Y-99927000D01*
X146340000Y-100085750D01*
X146336928Y-100275000D01*
X146349188Y-100399482D01*
X146385498Y-100519180D01*
X146444463Y-100629494D01*
X146523815Y-100726185D01*
X146620506Y-100805537D01*
X146730820Y-100864502D01*
X146850518Y-100900812D01*
X146975000Y-100913072D01*
X147139250Y-100910000D01*
X147165001Y-100884249D01*
X147165000Y-101840000D01*
X146815949Y-101840000D01*
X146740608Y-101778169D01*
X146595716Y-101700722D01*
X146438500Y-101653031D01*
X146275000Y-101636928D01*
X145725000Y-101636928D01*
X145561500Y-101653031D01*
X145404284Y-101700722D01*
X145259392Y-101778169D01*
X145170423Y-101851185D01*
X145161311Y-101852082D01*
X145037418Y-101889664D01*
X145054494Y-101880537D01*
X145151185Y-101801185D01*
X145230537Y-101704494D01*
X145289502Y-101594180D01*
X145325812Y-101474482D01*
X145338072Y-101350000D01*
X145338072Y-100550000D01*
X145325812Y-100425518D01*
X145289502Y-100305820D01*
X145230537Y-100195506D01*
X145151185Y-100098815D01*
X145054494Y-100019463D01*
X145018082Y-100000000D01*
X145054494Y-99980537D01*
X145151185Y-99901185D01*
X145230537Y-99804494D01*
X145289502Y-99694180D01*
X145325812Y-99574482D01*
X145338072Y-99450000D01*
X145335000Y-99335750D01*
X145324250Y-99325000D01*
X146336928Y-99325000D01*
X146340000Y-99514250D01*
X146498750Y-99673000D01*
X147298000Y-99673000D01*
X147298000Y-98848750D01*
X147139250Y-98690000D01*
X146975000Y-98686928D01*
X146850518Y-98699188D01*
X146730820Y-98735498D01*
X146620506Y-98794463D01*
X146523815Y-98873815D01*
X146444463Y-98970506D01*
X146385498Y-99080820D01*
X146349188Y-99200518D01*
X146336928Y-99325000D01*
X145324250Y-99325000D01*
X145176250Y-99177000D01*
X144377000Y-99177000D01*
X144377000Y-99197000D01*
X144123000Y-99197000D01*
X144123000Y-99177000D01*
X143323750Y-99177000D01*
X143239143Y-99261607D01*
X143230537Y-99245506D01*
X143151185Y-99148815D01*
X143078091Y-99088828D01*
X143072918Y-99036311D01*
X143025172Y-98878913D01*
X142947636Y-98733854D01*
X142878819Y-98650000D01*
X143161928Y-98650000D01*
X143165000Y-98764250D01*
X143323750Y-98923000D01*
X144123000Y-98923000D01*
X144123000Y-98173750D01*
X144377000Y-98173750D01*
X144377000Y-98923000D01*
X145176250Y-98923000D01*
X145335000Y-98764250D01*
X145338072Y-98650000D01*
X145325812Y-98525518D01*
X145289502Y-98405820D01*
X145230537Y-98295506D01*
X145151185Y-98198815D01*
X145054494Y-98119463D01*
X144944180Y-98060498D01*
X144824482Y-98024188D01*
X144700000Y-98011928D01*
X144535750Y-98015000D01*
X144377000Y-98173750D01*
X144123000Y-98173750D01*
X143964250Y-98015000D01*
X143800000Y-98011928D01*
X143675518Y-98024188D01*
X143555820Y-98060498D01*
X143445506Y-98119463D01*
X143348815Y-98198815D01*
X143269463Y-98295506D01*
X143210498Y-98405820D01*
X143174188Y-98525518D01*
X143161928Y-98650000D01*
X142878819Y-98650000D01*
X142843291Y-98606709D01*
X142811427Y-98580559D01*
X133881946Y-89651079D01*
X133868750Y-89635000D01*
X146648966Y-89635000D01*
X146669716Y-89660284D01*
G37*
%TD.AperFunction*%
D23*
X139884132Y-98015000D02*
X139872998Y-98015000D01*
X139872998Y-98173748D01*
X139714250Y-98015000D01*
X139550000Y-98011928D01*
X139425518Y-98024188D01*
X139305820Y-98060498D01*
X139195506Y-98119463D01*
X139098815Y-98198815D01*
X139019463Y-98295506D01*
X138960498Y-98405820D01*
X138924188Y-98525518D01*
X138911928Y-98650000D01*
X138915000Y-98764250D01*
X139073750Y-98923000D01*
X139873000Y-98923000D01*
X139873000Y-98903000D01*
X140127000Y-98903000D01*
X140127000Y-98923000D01*
X140147000Y-98923000D01*
X140147000Y-99177000D01*
X140127000Y-99177000D01*
X140127000Y-99197000D01*
X139873000Y-99197000D01*
X139873000Y-99177000D01*
X139073750Y-99177000D01*
X138989143Y-99261607D01*
X138980537Y-99245506D01*
X138901185Y-99148815D01*
X138828090Y-99088828D01*
X138822918Y-99036311D01*
X138775172Y-98878913D01*
X138697636Y-98733854D01*
X138619439Y-98638570D01*
X138619437Y-98638568D01*
X138593291Y-98606709D01*
X138561432Y-98580563D01*
X133131946Y-93151079D01*
X133105791Y-93119209D01*
X132978646Y-93014864D01*
X132833587Y-92937328D01*
X132676189Y-92889582D01*
X132553519Y-92877500D01*
X132553518Y-92877500D01*
X132512500Y-92873460D01*
X132471482Y-92877500D01*
X130349461Y-92877500D01*
X130232275Y-92781329D01*
X130173663Y-92750000D01*
X130232275Y-92718671D01*
X130362115Y-92612115D01*
X130468671Y-92482275D01*
X130547850Y-92334142D01*
X130596608Y-92173408D01*
X130613072Y-92006250D01*
X130613072Y-91568750D01*
X130596608Y-91401592D01*
X130547850Y-91240858D01*
X130468671Y-91092725D01*
X130431556Y-91047500D01*
X132916633Y-91047500D01*
X139884132Y-98015000D01*
%TA.AperFunction,Conductor*%
D24*
G36*
X139884132Y-98015000D02*
G01*
X139872998Y-98015000D01*
X139872998Y-98173748D01*
X139714250Y-98015000D01*
X139550000Y-98011928D01*
X139425518Y-98024188D01*
X139305820Y-98060498D01*
X139195506Y-98119463D01*
X139098815Y-98198815D01*
X139019463Y-98295506D01*
X138960498Y-98405820D01*
X138924188Y-98525518D01*
X138911928Y-98650000D01*
X138915000Y-98764250D01*
X139073750Y-98923000D01*
X139873000Y-98923000D01*
X139873000Y-98903000D01*
X140127000Y-98903000D01*
X140127000Y-98923000D01*
X140147000Y-98923000D01*
X140147000Y-99177000D01*
X140127000Y-99177000D01*
X140127000Y-99197000D01*
X139873000Y-99197000D01*
X139873000Y-99177000D01*
X139073750Y-99177000D01*
X138989143Y-99261607D01*
X138980537Y-99245506D01*
X138901185Y-99148815D01*
X138828090Y-99088828D01*
X138822918Y-99036311D01*
X138775172Y-98878913D01*
X138697636Y-98733854D01*
X138619439Y-98638570D01*
X138619437Y-98638568D01*
X138593291Y-98606709D01*
X138561432Y-98580563D01*
X133131946Y-93151079D01*
X133105791Y-93119209D01*
X132978646Y-93014864D01*
X132833587Y-92937328D01*
X132676189Y-92889582D01*
X132553519Y-92877500D01*
X132553518Y-92877500D01*
X132512500Y-92873460D01*
X132471482Y-92877500D01*
X130349461Y-92877500D01*
X130232275Y-92781329D01*
X130173663Y-92750000D01*
X130232275Y-92718671D01*
X130362115Y-92612115D01*
X130468671Y-92482275D01*
X130547850Y-92334142D01*
X130596608Y-92173408D01*
X130613072Y-92006250D01*
X130613072Y-91568750D01*
X130596608Y-91401592D01*
X130547850Y-91240858D01*
X130468671Y-91092725D01*
X130431556Y-91047500D01*
X132916633Y-91047500D01*
X139884132Y-98015000D01*
G37*
%TD.AperFunction*%
%TD*%
D25*
X150400000Y-88800000D03*
X138400000Y-97400000D03*
X134200000Y-97600000D03*
X142800000Y-97200000D03*
X136000000Y-126400000D03*
X153000000Y-94000000D03*
X149000000Y-93500000D03*
X147000000Y-87000000D03*
X133200000Y-88800000D03*
X127600000Y-95400000D03*
X127800000Y-113000000D03*
X144000000Y-104000000D03*
X134000000Y-106500000D03*
X139200000Y-126400000D03*
X148000000Y-114250000D03*
X123400000Y-90000000D03*
X111200000Y-90000000D03*
X111200000Y-78000000D03*
X123400000Y-78000000D03*
X125400000Y-84000000D03*
X137010000Y-132000000D03*
X152250000Y-132000000D03*
X142090000Y-132000000D03*
X147170000Y-132000000D03*
X153250000Y-119750000D03*
X153250000Y-117750000D03*
X153250000Y-115750000D03*
X153250000Y-113750000D03*
X153250000Y-111750000D03*
X153250000Y-109750000D03*
X108080000Y-70800000D03*
X103000000Y-70800000D03*
X123400000Y-125200000D03*
X111200000Y-125200000D03*
X111200000Y-113200000D03*
X123400000Y-113200000D03*
X125400000Y-119200000D03*
X123400000Y-107600000D03*
X111200000Y-107600000D03*
X111200000Y-95600000D03*
X123400000Y-95600000D03*
X125400000Y-101600000D03*
D26*
X131500000Y-80400000D03*
X136100000Y-80400000D03*
D27*
X150500000Y-80400000D03*
D25*
X102760000Y-132000000D03*
X118000000Y-132000000D03*
X107840000Y-132000000D03*
X112920000Y-132000000D03*
M02*
