M48
; DRILL file {KiCad (5.1.8)-1} date 05/08/22 18:20:05
; FORMAT={-:-/ absolute / metric / decimal}
; #@! TF.CreationDate,2022-05-08T18:20:05+08:00
; #@! TF.GenerationSoftware,Kicad,Pcbnew,(5.1.8)-1
; #@! TF.FileFunction,Plated,1,2,PTH
FMAT,2
METRIC
T1C0.400
T2C0.800
T3C1.300
T4C1.520
%
G90
G05
T1
X127.6Y-95.4
X127.8Y-113.0
X133.2Y-88.8
X134.0Y-106.5
X134.2Y-97.6
X136.0Y-126.4
X138.4Y-97.4
X139.2Y-126.4
X142.8Y-97.2
X144.0Y-104.0
X147.0Y-87.0
X148.0Y-114.25
X149.0Y-93.5
X150.4Y-88.8
X153.0Y-94.0
T2
X153.25Y-109.75
X153.25Y-111.75
X153.25Y-113.75
X153.25Y-115.75
X153.25Y-117.75
X153.25Y-119.75
T3
X111.2Y-95.6
X111.2Y-107.6
X123.4Y-95.6
X123.4Y-107.6
X125.4Y-101.6
X111.2Y-113.2
X111.2Y-125.2
X123.4Y-113.2
X123.4Y-125.2
X125.4Y-119.2
X111.2Y-78.0
X111.2Y-90.0
X123.4Y-78.0
X123.4Y-90.0
X125.4Y-84.0
T4
X102.76Y-132.0
X107.84Y-132.0
X112.92Y-132.0
X118.0Y-132.0
X103.0Y-70.8
X108.08Y-70.8
X137.01Y-132.0
X142.09Y-132.0
X147.17Y-132.0
X152.25Y-132.0
T0
M30
