%TF.GenerationSoftware,KiCad,Pcbnew,(5.1.8)-1*%
%TF.CreationDate,2022-05-08T18:20:05+08:00*%
%TF.ProjectId,smartkey,736d6172-746b-4657-992e-6b696361645f,rev?*%
%TF.SameCoordinates,Original*%
%TF.FileFunction,Legend,Top*%
%TF.FilePolarity,Positive*%
%FSLAX46Y46*%
G04 Gerber Fmt 4.6, Leading zero omitted, Abs format (unit mm)*
G04 Created by KiCad (PCBNEW (5.1.8)-1) date 2022-05-08 18:20:05*
%MOMM*%
%LPD*%
G01*
G04 APERTURE LIST*
%ADD10C,0.150000*%
%ADD11C,0.200000*%
%ADD12C,0.120000*%
%ADD13C,0.101600*%
G04 APERTURE END LIST*
D10*
X132328571Y-126966666D02*
X132328571Y-127300000D01*
X132852380Y-127300000D02*
X131852380Y-127300000D01*
X131852380Y-126823809D01*
X132852380Y-126442857D02*
X131852380Y-126442857D01*
X132852380Y-125871428D01*
X131852380Y-125871428D01*
X132947619Y-125633333D02*
X132947619Y-124871428D01*
X132328571Y-124300000D02*
X132376190Y-124157142D01*
X132423809Y-124109523D01*
X132519047Y-124061904D01*
X132661904Y-124061904D01*
X132757142Y-124109523D01*
X132804761Y-124157142D01*
X132852380Y-124252380D01*
X132852380Y-124633333D01*
X131852380Y-124633333D01*
X131852380Y-124300000D01*
X131900000Y-124204761D01*
X131947619Y-124157142D01*
X132042857Y-124109523D01*
X132138095Y-124109523D01*
X132233333Y-124157142D01*
X132280952Y-124204761D01*
X132328571Y-124300000D01*
X132328571Y-124633333D01*
X131852380Y-123776190D02*
X131852380Y-123204761D01*
X132852380Y-123490476D02*
X131852380Y-123490476D01*
X132852380Y-122871428D02*
X131852380Y-122871428D01*
X132852380Y-122300000D01*
X131852380Y-122300000D01*
X128154761Y-134726190D02*
X128202380Y-134583333D01*
X128202380Y-134345238D01*
X128154761Y-134250000D01*
X128107142Y-134202380D01*
X128011904Y-134154761D01*
X127916666Y-134154761D01*
X127821428Y-134202380D01*
X127773809Y-134250000D01*
X127726190Y-134345238D01*
X127678571Y-134535714D01*
X127630952Y-134630952D01*
X127583333Y-134678571D01*
X127488095Y-134726190D01*
X127392857Y-134726190D01*
X127297619Y-134678571D01*
X127250000Y-134630952D01*
X127202380Y-134535714D01*
X127202380Y-134297619D01*
X127250000Y-134154761D01*
X127202380Y-133869047D02*
X127202380Y-133297619D01*
X128202380Y-133583333D02*
X127202380Y-133583333D01*
X127916666Y-133011904D02*
X127916666Y-132535714D01*
X128202380Y-133107142D02*
X127202380Y-132773809D01*
X128202380Y-132440476D01*
X127202380Y-132250000D02*
X127202380Y-131678571D01*
X128202380Y-131964285D02*
X127202380Y-131964285D01*
X127202380Y-131345238D02*
X128011904Y-131345238D01*
X128107142Y-131297619D01*
X128154761Y-131250000D01*
X128202380Y-131154761D01*
X128202380Y-130964285D01*
X128154761Y-130869047D01*
X128107142Y-130821428D01*
X128011904Y-130773809D01*
X127202380Y-130773809D01*
X128154761Y-130345238D02*
X128202380Y-130202380D01*
X128202380Y-129964285D01*
X128154761Y-129869047D01*
X128107142Y-129821428D01*
X128011904Y-129773809D01*
X127916666Y-129773809D01*
X127821428Y-129821428D01*
X127773809Y-129869047D01*
X127726190Y-129964285D01*
X127678571Y-130154761D01*
X127630952Y-130250000D01*
X127583333Y-130297619D01*
X127488095Y-130345238D01*
X127392857Y-130345238D01*
X127297619Y-130297619D01*
X127250000Y-130250000D01*
X127202380Y-130154761D01*
X127202380Y-129916666D01*
X127250000Y-129773809D01*
D11*
X109147619Y-70214285D02*
X110147619Y-70214285D01*
X109147619Y-70785714D01*
X110147619Y-70785714D01*
D12*
%TO.C,K1*%
X123200000Y-85350000D02*
X123200000Y-88500000D01*
X123200000Y-79500000D02*
X123200000Y-82650000D01*
X128310000Y-83000000D02*
X128310000Y-85000000D01*
X122600000Y-83650000D02*
X122600000Y-84350000D01*
X123800000Y-83650000D02*
X122600000Y-83650000D01*
X123800000Y-84350000D02*
X123800000Y-83650000D01*
X122600000Y-84350000D02*
X123800000Y-84350000D01*
X123000000Y-83650000D02*
X123400000Y-84350000D01*
X105350000Y-75650000D02*
X105350000Y-92350000D01*
X128050000Y-75650000D02*
X105350000Y-75650000D01*
X128050000Y-92350000D02*
X128050000Y-75650000D01*
X105350000Y-92350000D02*
X128050000Y-92350000D01*
%TO.C,D4*%
X128765000Y-129700000D02*
X128765000Y-131985000D01*
X128765000Y-131985000D02*
X130235000Y-131985000D01*
X130235000Y-131985000D02*
X130235000Y-129700000D01*
%TO.C,R6*%
X128977500Y-133987258D02*
X128977500Y-133512742D01*
X130022500Y-133987258D02*
X130022500Y-133512742D01*
%TO.C,J2*%
X154790000Y-128190000D02*
X134470000Y-128190000D01*
X154790000Y-135810000D02*
X134470000Y-135810000D01*
X134470000Y-129460000D02*
X154790000Y-129460000D01*
X134470000Y-128190000D02*
X134470000Y-135810000D01*
X154790000Y-135810000D02*
X154790000Y-128190000D01*
D10*
%TO.C,U1*%
X151100000Y-106900000D02*
G75*
G03*
X151100000Y-106900000I-100000J0D01*
G01*
X151223607Y-107000000D02*
G75*
G03*
X151223607Y-107000000I-223607J0D01*
G01*
X151100000Y-107000000D02*
G75*
G03*
X151100000Y-107000000I-100000J0D01*
G01*
X151500000Y-122500000D02*
X134500000Y-122500000D01*
X134500000Y-122500000D02*
X134500000Y-106500000D01*
X134500000Y-106500000D02*
X151500000Y-106500000D01*
X151500000Y-106500000D02*
X151500000Y-122500000D01*
D12*
%TO.C,U3*%
X146990000Y-96310000D02*
X148250000Y-96310000D01*
X153810000Y-96310000D02*
X152550000Y-96310000D01*
X146990000Y-92550000D02*
X146990000Y-96310000D01*
X153810000Y-90300000D02*
X153810000Y-96310000D01*
%TO.C,SW1*%
X130850000Y-130600000D02*
X131150000Y-130600000D01*
X130850000Y-133900000D02*
X130850000Y-130600000D01*
X131150000Y-133900000D02*
X130850000Y-133900000D01*
X133650000Y-130600000D02*
X133350000Y-130600000D01*
X133650000Y-133900000D02*
X133650000Y-130600000D01*
X133350000Y-133900000D02*
X133650000Y-133900000D01*
%TO.C,R7*%
X142522500Y-103262742D02*
X142522500Y-103737258D01*
X141477500Y-103262742D02*
X141477500Y-103737258D01*
%TO.C,R5*%
X136512742Y-124227500D02*
X136987258Y-124227500D01*
X136512742Y-125272500D02*
X136987258Y-125272500D01*
%TO.C,R4*%
X132487258Y-128772500D02*
X132012742Y-128772500D01*
X132487258Y-127727500D02*
X132012742Y-127727500D01*
%TO.C,R3*%
X146522500Y-103262742D02*
X146522500Y-103737258D01*
X145477500Y-103262742D02*
X145477500Y-103737258D01*
%TO.C,R2*%
X139762742Y-124227500D02*
X140237258Y-124227500D01*
X139762742Y-125272500D02*
X140237258Y-125272500D01*
%TO.C,R1*%
X147477500Y-103737258D02*
X147477500Y-103262742D01*
X148522500Y-103737258D02*
X148522500Y-103262742D01*
%TO.C,Q1*%
X142490000Y-98420000D02*
X142490000Y-99350000D01*
X142490000Y-101580000D02*
X142490000Y-100650000D01*
X142490000Y-101580000D02*
X144650000Y-101580000D01*
X142490000Y-98420000D02*
X143950000Y-98420000D01*
%TO.C,J4*%
X152190000Y-120810000D02*
X154310000Y-120810000D01*
X152190000Y-110750000D02*
X152190000Y-120810000D01*
X154310000Y-110750000D02*
X154310000Y-120810000D01*
X152190000Y-110750000D02*
X154310000Y-110750000D01*
X152190000Y-109750000D02*
X152190000Y-108690000D01*
X152190000Y-108690000D02*
X153250000Y-108690000D01*
%TO.C,D1*%
X128765000Y-90200000D02*
X128765000Y-92485000D01*
X128765000Y-92485000D02*
X130235000Y-92485000D01*
X130235000Y-92485000D02*
X130235000Y-90200000D01*
%TO.C,C3*%
X148340580Y-100310000D02*
X148059420Y-100310000D01*
X148340580Y-99290000D02*
X148059420Y-99290000D01*
%TO.C,C2*%
X148139420Y-88290000D02*
X148420580Y-88290000D01*
X148139420Y-89310000D02*
X148420580Y-89310000D01*
%TO.C,C1*%
X149490000Y-103640580D02*
X149490000Y-103359420D01*
X150510000Y-103640580D02*
X150510000Y-103359420D01*
%TO.C,J1*%
X110620000Y-73340000D02*
X100460000Y-73340000D01*
X110620000Y-74610000D02*
X110620000Y-66990000D01*
X110620000Y-66990000D02*
X100460000Y-66990000D01*
X100460000Y-66990000D02*
X100460000Y-74610000D01*
X100460000Y-74610000D02*
X110620000Y-74610000D01*
%TO.C,R10*%
X137477500Y-103262742D02*
X137477500Y-103737258D01*
X138522500Y-103262742D02*
X138522500Y-103737258D01*
%TO.C,R9*%
X139477500Y-103262742D02*
X139477500Y-103737258D01*
X140522500Y-103262742D02*
X140522500Y-103737258D01*
%TO.C,Q3*%
X133990000Y-98420000D02*
X135450000Y-98420000D01*
X133990000Y-101580000D02*
X136150000Y-101580000D01*
X133990000Y-101580000D02*
X133990000Y-100650000D01*
X133990000Y-98420000D02*
X133990000Y-99350000D01*
%TO.C,Q2*%
X138240000Y-98420000D02*
X139700000Y-98420000D01*
X138240000Y-101580000D02*
X140400000Y-101580000D01*
X138240000Y-101580000D02*
X138240000Y-100650000D01*
X138240000Y-98420000D02*
X138240000Y-99350000D01*
%TO.C,K3*%
X123200000Y-120550000D02*
X123200000Y-123700000D01*
X123200000Y-114700000D02*
X123200000Y-117850000D01*
X128310000Y-118200000D02*
X128310000Y-120200000D01*
X122600000Y-118850000D02*
X122600000Y-119550000D01*
X123800000Y-118850000D02*
X122600000Y-118850000D01*
X123800000Y-119550000D02*
X123800000Y-118850000D01*
X122600000Y-119550000D02*
X123800000Y-119550000D01*
X123000000Y-118850000D02*
X123400000Y-119550000D01*
X105350000Y-110850000D02*
X105350000Y-127550000D01*
X128050000Y-110850000D02*
X105350000Y-110850000D01*
X128050000Y-127550000D02*
X128050000Y-110850000D01*
X105350000Y-127550000D02*
X128050000Y-127550000D01*
%TO.C,K2*%
X123200000Y-102950000D02*
X123200000Y-106100000D01*
X123200000Y-97100000D02*
X123200000Y-100250000D01*
X128310000Y-100600000D02*
X128310000Y-102600000D01*
X122600000Y-101250000D02*
X122600000Y-101950000D01*
X123800000Y-101250000D02*
X122600000Y-101250000D01*
X123800000Y-101950000D02*
X123800000Y-101250000D01*
X122600000Y-101950000D02*
X123800000Y-101950000D01*
X123000000Y-101250000D02*
X123400000Y-101950000D01*
X105350000Y-93250000D02*
X105350000Y-109950000D01*
X128050000Y-93250000D02*
X105350000Y-93250000D01*
X128050000Y-109950000D02*
X128050000Y-93250000D01*
X105350000Y-109950000D02*
X128050000Y-109950000D01*
%TO.C,D3*%
X130485000Y-113735000D02*
X130485000Y-111450000D01*
X129015000Y-113735000D02*
X130485000Y-113735000D01*
X129015000Y-111450000D02*
X129015000Y-113735000D01*
%TO.C,D2*%
X130235000Y-95985000D02*
X130235000Y-93700000D01*
X128765000Y-95985000D02*
X130235000Y-95985000D01*
X128765000Y-93700000D02*
X128765000Y-95985000D01*
%TO.C,J6*%
X120540000Y-128190000D02*
X100220000Y-128190000D01*
X120540000Y-135810000D02*
X100220000Y-135810000D01*
X100220000Y-129460000D02*
X120540000Y-129460000D01*
X100220000Y-128190000D02*
X100220000Y-135810000D01*
X120540000Y-135810000D02*
X120540000Y-128190000D01*
%TO.C,U1*%
D13*
X151804523Y-115467619D02*
X152832619Y-115467619D01*
X152953571Y-115407142D01*
X153014047Y-115346666D01*
X153074523Y-115225714D01*
X153074523Y-114983809D01*
X153014047Y-114862857D01*
X152953571Y-114802380D01*
X152832619Y-114741904D01*
X151804523Y-114741904D01*
X153074523Y-113471904D02*
X153074523Y-114197619D01*
X153074523Y-113834761D02*
X151804523Y-113834761D01*
X151985952Y-113955714D01*
X152106904Y-114076666D01*
X152167380Y-114197619D01*
%TO.C,J1*%
D10*
X105206666Y-65172380D02*
X105206666Y-65886666D01*
X105159047Y-66029523D01*
X105063809Y-66124761D01*
X104920952Y-66172380D01*
X104825714Y-66172380D01*
X106206666Y-66172380D02*
X105635238Y-66172380D01*
X105920952Y-66172380D02*
X105920952Y-65172380D01*
X105825714Y-65315238D01*
X105730476Y-65410476D01*
X105635238Y-65458095D01*
%TD*%
M02*
