%TF.GenerationSoftware,KiCad,Pcbnew,(5.1.8)-1*%
%TF.CreationDate,2022-05-08T18:20:05+08:00*%
%TF.ProjectId,smartkey,736d6172-746b-4657-992e-6b696361645f,rev?*%
%TF.SameCoordinates,Original*%
%TF.FileFunction,Soldermask,Top*%
%TF.FilePolarity,Negative*%
%FSLAX46Y46*%
G04 Gerber Fmt 4.6, Leading zero omitted, Abs format (unit mm)*
G04 Created by KiCad (PCBNEW (5.1.8)-1) date 2022-05-08 18:20:05*
%MOMM*%
%LPD*%
G01*
G04 APERTURE LIST*
%ADD10O,2.602000X2.602000*%
%ADD11C,3.102000*%
%ADD12O,1.452000X1.452000*%
%ADD13O,3.102000X1.702000*%
%ADD14O,5.102000X1.702000*%
G04 APERTURE END LIST*
D10*
%TO.C,K1*%
X123400000Y-90000000D03*
X111200000Y-90000000D03*
X111200000Y-78000000D03*
X123400000Y-78000000D03*
G36*
G01*
X124150000Y-82699000D02*
X126650000Y-82699000D01*
G75*
G02*
X126701000Y-82750000I0J-51000D01*
G01*
X126701000Y-85250000D01*
G75*
G02*
X126650000Y-85301000I-51000J0D01*
G01*
X124150000Y-85301000D01*
G75*
G02*
X124099000Y-85250000I0J51000D01*
G01*
X124099000Y-82750000D01*
G75*
G02*
X124150000Y-82699000I51000J0D01*
G01*
G37*
%TD*%
%TO.C,D4*%
G36*
G01*
X129781750Y-130201000D02*
X129218250Y-130201000D01*
G75*
G02*
X128974000Y-129956750I0J244250D01*
G01*
X128974000Y-129468250D01*
G75*
G02*
X129218250Y-129224000I244250J0D01*
G01*
X129781750Y-129224000D01*
G75*
G02*
X130026000Y-129468250I0J-244250D01*
G01*
X130026000Y-129956750D01*
G75*
G02*
X129781750Y-130201000I-244250J0D01*
G01*
G37*
G36*
G01*
X129781750Y-131776000D02*
X129218250Y-131776000D01*
G75*
G02*
X128974000Y-131531750I0J244250D01*
G01*
X128974000Y-131043250D01*
G75*
G02*
X129218250Y-130799000I244250J0D01*
G01*
X129781750Y-130799000D01*
G75*
G02*
X130026000Y-131043250I0J-244250D01*
G01*
X130026000Y-131531750D01*
G75*
G02*
X129781750Y-131776000I-244250J0D01*
G01*
G37*
%TD*%
%TO.C,R6*%
G36*
G01*
X129800500Y-133376000D02*
X129199500Y-133376000D01*
G75*
G02*
X128974000Y-133150500I0J225500D01*
G01*
X128974000Y-132699500D01*
G75*
G02*
X129199500Y-132474000I225500J0D01*
G01*
X129800500Y-132474000D01*
G75*
G02*
X130026000Y-132699500I0J-225500D01*
G01*
X130026000Y-133150500D01*
G75*
G02*
X129800500Y-133376000I-225500J0D01*
G01*
G37*
G36*
G01*
X129800500Y-135026000D02*
X129199500Y-135026000D01*
G75*
G02*
X128974000Y-134800500I0J225500D01*
G01*
X128974000Y-134349500D01*
G75*
G02*
X129199500Y-134124000I225500J0D01*
G01*
X129800500Y-134124000D01*
G75*
G02*
X130026000Y-134349500I0J-225500D01*
G01*
X130026000Y-134800500D01*
G75*
G02*
X129800500Y-135026000I-225500J0D01*
G01*
G37*
%TD*%
D11*
%TO.C,J2*%
X137010000Y-132000000D03*
G36*
G01*
X153801000Y-130500000D02*
X153801000Y-133500000D01*
G75*
G02*
X153750000Y-133551000I-51000J0D01*
G01*
X150750000Y-133551000D01*
G75*
G02*
X150699000Y-133500000I0J51000D01*
G01*
X150699000Y-130500000D01*
G75*
G02*
X150750000Y-130449000I51000J0D01*
G01*
X153750000Y-130449000D01*
G75*
G02*
X153801000Y-130500000I0J-51000D01*
G01*
G37*
X142090000Y-132000000D03*
X147170000Y-132000000D03*
%TD*%
%TO.C,U1*%
G36*
G01*
X149450000Y-120849000D02*
X150550000Y-120849000D01*
G75*
G02*
X150601000Y-120900000I0J-51000D01*
G01*
X150601000Y-123500000D01*
G75*
G02*
X150550000Y-123551000I-51000J0D01*
G01*
X149450000Y-123551000D01*
G75*
G02*
X149399000Y-123500000I0J51000D01*
G01*
X149399000Y-120900000D01*
G75*
G02*
X149450000Y-120849000I51000J0D01*
G01*
G37*
G36*
G01*
X147450000Y-120849000D02*
X148550000Y-120849000D01*
G75*
G02*
X148601000Y-120900000I0J-51000D01*
G01*
X148601000Y-123500000D01*
G75*
G02*
X148550000Y-123551000I-51000J0D01*
G01*
X147450000Y-123551000D01*
G75*
G02*
X147399000Y-123500000I0J51000D01*
G01*
X147399000Y-120900000D01*
G75*
G02*
X147450000Y-120849000I51000J0D01*
G01*
G37*
G36*
G01*
X145450000Y-120849000D02*
X146550000Y-120849000D01*
G75*
G02*
X146601000Y-120900000I0J-51000D01*
G01*
X146601000Y-123500000D01*
G75*
G02*
X146550000Y-123551000I-51000J0D01*
G01*
X145450000Y-123551000D01*
G75*
G02*
X145399000Y-123500000I0J51000D01*
G01*
X145399000Y-120900000D01*
G75*
G02*
X145450000Y-120849000I51000J0D01*
G01*
G37*
G36*
G01*
X143450000Y-120849000D02*
X144550000Y-120849000D01*
G75*
G02*
X144601000Y-120900000I0J-51000D01*
G01*
X144601000Y-123500000D01*
G75*
G02*
X144550000Y-123551000I-51000J0D01*
G01*
X143450000Y-123551000D01*
G75*
G02*
X143399000Y-123500000I0J51000D01*
G01*
X143399000Y-120900000D01*
G75*
G02*
X143450000Y-120849000I51000J0D01*
G01*
G37*
G36*
G01*
X141450000Y-120849000D02*
X142550000Y-120849000D01*
G75*
G02*
X142601000Y-120900000I0J-51000D01*
G01*
X142601000Y-123500000D01*
G75*
G02*
X142550000Y-123551000I-51000J0D01*
G01*
X141450000Y-123551000D01*
G75*
G02*
X141399000Y-123500000I0J51000D01*
G01*
X141399000Y-120900000D01*
G75*
G02*
X141450000Y-120849000I51000J0D01*
G01*
G37*
G36*
G01*
X139450000Y-120849000D02*
X140550000Y-120849000D01*
G75*
G02*
X140601000Y-120900000I0J-51000D01*
G01*
X140601000Y-123500000D01*
G75*
G02*
X140550000Y-123551000I-51000J0D01*
G01*
X139450000Y-123551000D01*
G75*
G02*
X139399000Y-123500000I0J51000D01*
G01*
X139399000Y-120900000D01*
G75*
G02*
X139450000Y-120849000I51000J0D01*
G01*
G37*
G36*
G01*
X137450000Y-120849000D02*
X138550000Y-120849000D01*
G75*
G02*
X138601000Y-120900000I0J-51000D01*
G01*
X138601000Y-123500000D01*
G75*
G02*
X138550000Y-123551000I-51000J0D01*
G01*
X137450000Y-123551000D01*
G75*
G02*
X137399000Y-123500000I0J51000D01*
G01*
X137399000Y-120900000D01*
G75*
G02*
X137450000Y-120849000I51000J0D01*
G01*
G37*
G36*
G01*
X135450000Y-120849000D02*
X136550000Y-120849000D01*
G75*
G02*
X136601000Y-120900000I0J-51000D01*
G01*
X136601000Y-123500000D01*
G75*
G02*
X136550000Y-123551000I-51000J0D01*
G01*
X135450000Y-123551000D01*
G75*
G02*
X135399000Y-123500000I0J51000D01*
G01*
X135399000Y-120900000D01*
G75*
G02*
X135450000Y-120849000I51000J0D01*
G01*
G37*
G36*
G01*
X135450000Y-105449000D02*
X136550000Y-105449000D01*
G75*
G02*
X136601000Y-105500000I0J-51000D01*
G01*
X136601000Y-108100000D01*
G75*
G02*
X136550000Y-108151000I-51000J0D01*
G01*
X135450000Y-108151000D01*
G75*
G02*
X135399000Y-108100000I0J51000D01*
G01*
X135399000Y-105500000D01*
G75*
G02*
X135450000Y-105449000I51000J0D01*
G01*
G37*
G36*
G01*
X137450000Y-105449000D02*
X138550000Y-105449000D01*
G75*
G02*
X138601000Y-105500000I0J-51000D01*
G01*
X138601000Y-108100000D01*
G75*
G02*
X138550000Y-108151000I-51000J0D01*
G01*
X137450000Y-108151000D01*
G75*
G02*
X137399000Y-108100000I0J51000D01*
G01*
X137399000Y-105500000D01*
G75*
G02*
X137450000Y-105449000I51000J0D01*
G01*
G37*
G36*
G01*
X139450000Y-105449000D02*
X140550000Y-105449000D01*
G75*
G02*
X140601000Y-105500000I0J-51000D01*
G01*
X140601000Y-108100000D01*
G75*
G02*
X140550000Y-108151000I-51000J0D01*
G01*
X139450000Y-108151000D01*
G75*
G02*
X139399000Y-108100000I0J51000D01*
G01*
X139399000Y-105500000D01*
G75*
G02*
X139450000Y-105449000I51000J0D01*
G01*
G37*
G36*
G01*
X141450000Y-105449000D02*
X142550000Y-105449000D01*
G75*
G02*
X142601000Y-105500000I0J-51000D01*
G01*
X142601000Y-108100000D01*
G75*
G02*
X142550000Y-108151000I-51000J0D01*
G01*
X141450000Y-108151000D01*
G75*
G02*
X141399000Y-108100000I0J51000D01*
G01*
X141399000Y-105500000D01*
G75*
G02*
X141450000Y-105449000I51000J0D01*
G01*
G37*
G36*
G01*
X143450000Y-105449000D02*
X144550000Y-105449000D01*
G75*
G02*
X144601000Y-105500000I0J-51000D01*
G01*
X144601000Y-108100000D01*
G75*
G02*
X144550000Y-108151000I-51000J0D01*
G01*
X143450000Y-108151000D01*
G75*
G02*
X143399000Y-108100000I0J51000D01*
G01*
X143399000Y-105500000D01*
G75*
G02*
X143450000Y-105449000I51000J0D01*
G01*
G37*
G36*
G01*
X145450000Y-105449000D02*
X146550000Y-105449000D01*
G75*
G02*
X146601000Y-105500000I0J-51000D01*
G01*
X146601000Y-108100000D01*
G75*
G02*
X146550000Y-108151000I-51000J0D01*
G01*
X145450000Y-108151000D01*
G75*
G02*
X145399000Y-108100000I0J51000D01*
G01*
X145399000Y-105500000D01*
G75*
G02*
X145450000Y-105449000I51000J0D01*
G01*
G37*
G36*
G01*
X147450000Y-105449000D02*
X148550000Y-105449000D01*
G75*
G02*
X148601000Y-105500000I0J-51000D01*
G01*
X148601000Y-108100000D01*
G75*
G02*
X148550000Y-108151000I-51000J0D01*
G01*
X147450000Y-108151000D01*
G75*
G02*
X147399000Y-108100000I0J51000D01*
G01*
X147399000Y-105500000D01*
G75*
G02*
X147450000Y-105449000I51000J0D01*
G01*
G37*
G36*
G01*
X149450000Y-105449000D02*
X150550000Y-105449000D01*
G75*
G02*
X150601000Y-105500000I0J-51000D01*
G01*
X150601000Y-108100000D01*
G75*
G02*
X150550000Y-108151000I-51000J0D01*
G01*
X149450000Y-108151000D01*
G75*
G02*
X149399000Y-108100000I0J51000D01*
G01*
X149399000Y-105500000D01*
G75*
G02*
X149450000Y-105449000I51000J0D01*
G01*
G37*
%TD*%
%TO.C,U3*%
G36*
G01*
X151950000Y-90199000D02*
X153450000Y-90199000D01*
G75*
G02*
X153501000Y-90250000I0J-51000D01*
G01*
X153501000Y-92250000D01*
G75*
G02*
X153450000Y-92301000I-51000J0D01*
G01*
X151950000Y-92301000D01*
G75*
G02*
X151899000Y-92250000I0J51000D01*
G01*
X151899000Y-90250000D01*
G75*
G02*
X151950000Y-90199000I51000J0D01*
G01*
G37*
G36*
G01*
X147350000Y-90199000D02*
X148850000Y-90199000D01*
G75*
G02*
X148901000Y-90250000I0J-51000D01*
G01*
X148901000Y-92250000D01*
G75*
G02*
X148850000Y-92301000I-51000J0D01*
G01*
X147350000Y-92301000D01*
G75*
G02*
X147299000Y-92250000I0J51000D01*
G01*
X147299000Y-90250000D01*
G75*
G02*
X147350000Y-90199000I51000J0D01*
G01*
G37*
G36*
G01*
X149650000Y-90199000D02*
X151150000Y-90199000D01*
G75*
G02*
X151201000Y-90250000I0J-51000D01*
G01*
X151201000Y-92250000D01*
G75*
G02*
X151150000Y-92301000I-51000J0D01*
G01*
X149650000Y-92301000D01*
G75*
G02*
X149599000Y-92250000I0J51000D01*
G01*
X149599000Y-90250000D01*
G75*
G02*
X149650000Y-90199000I51000J0D01*
G01*
G37*
G36*
G01*
X148500000Y-96499000D02*
X152300000Y-96499000D01*
G75*
G02*
X152351000Y-96550000I0J-51000D01*
G01*
X152351000Y-98550000D01*
G75*
G02*
X152300000Y-98601000I-51000J0D01*
G01*
X148500000Y-98601000D01*
G75*
G02*
X148449000Y-98550000I0J51000D01*
G01*
X148449000Y-96550000D01*
G75*
G02*
X148500000Y-96499000I51000J0D01*
G01*
G37*
%TD*%
%TO.C,SW1*%
G36*
G01*
X133100000Y-130551000D02*
X131400000Y-130551000D01*
G75*
G02*
X131349000Y-130500000I0J51000D01*
G01*
X131349000Y-129600000D01*
G75*
G02*
X131400000Y-129549000I51000J0D01*
G01*
X133100000Y-129549000D01*
G75*
G02*
X133151000Y-129600000I0J-51000D01*
G01*
X133151000Y-130500000D01*
G75*
G02*
X133100000Y-130551000I-51000J0D01*
G01*
G37*
G36*
G01*
X133100000Y-134951000D02*
X131400000Y-134951000D01*
G75*
G02*
X131349000Y-134900000I0J51000D01*
G01*
X131349000Y-134000000D01*
G75*
G02*
X131400000Y-133949000I51000J0D01*
G01*
X133100000Y-133949000D01*
G75*
G02*
X133151000Y-134000000I0J-51000D01*
G01*
X133151000Y-134900000D01*
G75*
G02*
X133100000Y-134951000I-51000J0D01*
G01*
G37*
%TD*%
%TO.C,R7*%
G36*
G01*
X141699500Y-103874000D02*
X142300500Y-103874000D01*
G75*
G02*
X142526000Y-104099500I0J-225500D01*
G01*
X142526000Y-104550500D01*
G75*
G02*
X142300500Y-104776000I-225500J0D01*
G01*
X141699500Y-104776000D01*
G75*
G02*
X141474000Y-104550500I0J225500D01*
G01*
X141474000Y-104099500D01*
G75*
G02*
X141699500Y-103874000I225500J0D01*
G01*
G37*
G36*
G01*
X141699500Y-102224000D02*
X142300500Y-102224000D01*
G75*
G02*
X142526000Y-102449500I0J-225500D01*
G01*
X142526000Y-102900500D01*
G75*
G02*
X142300500Y-103126000I-225500J0D01*
G01*
X141699500Y-103126000D01*
G75*
G02*
X141474000Y-102900500I0J225500D01*
G01*
X141474000Y-102449500D01*
G75*
G02*
X141699500Y-102224000I225500J0D01*
G01*
G37*
%TD*%
%TO.C,R5*%
G36*
G01*
X137124000Y-125050500D02*
X137124000Y-124449500D01*
G75*
G02*
X137349500Y-124224000I225500J0D01*
G01*
X137800500Y-124224000D01*
G75*
G02*
X138026000Y-124449500I0J-225500D01*
G01*
X138026000Y-125050500D01*
G75*
G02*
X137800500Y-125276000I-225500J0D01*
G01*
X137349500Y-125276000D01*
G75*
G02*
X137124000Y-125050500I0J225500D01*
G01*
G37*
G36*
G01*
X135474000Y-125050500D02*
X135474000Y-124449500D01*
G75*
G02*
X135699500Y-124224000I225500J0D01*
G01*
X136150500Y-124224000D01*
G75*
G02*
X136376000Y-124449500I0J-225500D01*
G01*
X136376000Y-125050500D01*
G75*
G02*
X136150500Y-125276000I-225500J0D01*
G01*
X135699500Y-125276000D01*
G75*
G02*
X135474000Y-125050500I0J225500D01*
G01*
G37*
%TD*%
%TO.C,R4*%
G36*
G01*
X131876000Y-127949500D02*
X131876000Y-128550500D01*
G75*
G02*
X131650500Y-128776000I-225500J0D01*
G01*
X131199500Y-128776000D01*
G75*
G02*
X130974000Y-128550500I0J225500D01*
G01*
X130974000Y-127949500D01*
G75*
G02*
X131199500Y-127724000I225500J0D01*
G01*
X131650500Y-127724000D01*
G75*
G02*
X131876000Y-127949500I0J-225500D01*
G01*
G37*
G36*
G01*
X133526000Y-127949500D02*
X133526000Y-128550500D01*
G75*
G02*
X133300500Y-128776000I-225500J0D01*
G01*
X132849500Y-128776000D01*
G75*
G02*
X132624000Y-128550500I0J225500D01*
G01*
X132624000Y-127949500D01*
G75*
G02*
X132849500Y-127724000I225500J0D01*
G01*
X133300500Y-127724000D01*
G75*
G02*
X133526000Y-127949500I0J-225500D01*
G01*
G37*
%TD*%
%TO.C,R3*%
G36*
G01*
X145699500Y-103874000D02*
X146300500Y-103874000D01*
G75*
G02*
X146526000Y-104099500I0J-225500D01*
G01*
X146526000Y-104550500D01*
G75*
G02*
X146300500Y-104776000I-225500J0D01*
G01*
X145699500Y-104776000D01*
G75*
G02*
X145474000Y-104550500I0J225500D01*
G01*
X145474000Y-104099500D01*
G75*
G02*
X145699500Y-103874000I225500J0D01*
G01*
G37*
G36*
G01*
X145699500Y-102224000D02*
X146300500Y-102224000D01*
G75*
G02*
X146526000Y-102449500I0J-225500D01*
G01*
X146526000Y-102900500D01*
G75*
G02*
X146300500Y-103126000I-225500J0D01*
G01*
X145699500Y-103126000D01*
G75*
G02*
X145474000Y-102900500I0J225500D01*
G01*
X145474000Y-102449500D01*
G75*
G02*
X145699500Y-102224000I225500J0D01*
G01*
G37*
%TD*%
%TO.C,R2*%
G36*
G01*
X140374000Y-125050500D02*
X140374000Y-124449500D01*
G75*
G02*
X140599500Y-124224000I225500J0D01*
G01*
X141050500Y-124224000D01*
G75*
G02*
X141276000Y-124449500I0J-225500D01*
G01*
X141276000Y-125050500D01*
G75*
G02*
X141050500Y-125276000I-225500J0D01*
G01*
X140599500Y-125276000D01*
G75*
G02*
X140374000Y-125050500I0J225500D01*
G01*
G37*
G36*
G01*
X138724000Y-125050500D02*
X138724000Y-124449500D01*
G75*
G02*
X138949500Y-124224000I225500J0D01*
G01*
X139400500Y-124224000D01*
G75*
G02*
X139626000Y-124449500I0J-225500D01*
G01*
X139626000Y-125050500D01*
G75*
G02*
X139400500Y-125276000I-225500J0D01*
G01*
X138949500Y-125276000D01*
G75*
G02*
X138724000Y-125050500I0J225500D01*
G01*
G37*
%TD*%
%TO.C,R1*%
G36*
G01*
X148300500Y-103126000D02*
X147699500Y-103126000D01*
G75*
G02*
X147474000Y-102900500I0J225500D01*
G01*
X147474000Y-102449500D01*
G75*
G02*
X147699500Y-102224000I225500J0D01*
G01*
X148300500Y-102224000D01*
G75*
G02*
X148526000Y-102449500I0J-225500D01*
G01*
X148526000Y-102900500D01*
G75*
G02*
X148300500Y-103126000I-225500J0D01*
G01*
G37*
G36*
G01*
X148300500Y-104776000D02*
X147699500Y-104776000D01*
G75*
G02*
X147474000Y-104550500I0J225500D01*
G01*
X147474000Y-104099500D01*
G75*
G02*
X147699500Y-103874000I225500J0D01*
G01*
X148300500Y-103874000D01*
G75*
G02*
X148526000Y-104099500I0J-225500D01*
G01*
X148526000Y-104550500D01*
G75*
G02*
X148300500Y-104776000I-225500J0D01*
G01*
G37*
%TD*%
%TO.C,Q1*%
G36*
G01*
X142751000Y-99600000D02*
X142751000Y-100400000D01*
G75*
G02*
X142700000Y-100451000I-51000J0D01*
G01*
X141800000Y-100451000D01*
G75*
G02*
X141749000Y-100400000I0J51000D01*
G01*
X141749000Y-99600000D01*
G75*
G02*
X141800000Y-99549000I51000J0D01*
G01*
X142700000Y-99549000D01*
G75*
G02*
X142751000Y-99600000I0J-51000D01*
G01*
G37*
G36*
G01*
X144751000Y-98650000D02*
X144751000Y-99450000D01*
G75*
G02*
X144700000Y-99501000I-51000J0D01*
G01*
X143800000Y-99501000D01*
G75*
G02*
X143749000Y-99450000I0J51000D01*
G01*
X143749000Y-98650000D01*
G75*
G02*
X143800000Y-98599000I51000J0D01*
G01*
X144700000Y-98599000D01*
G75*
G02*
X144751000Y-98650000I0J-51000D01*
G01*
G37*
G36*
G01*
X144751000Y-100550000D02*
X144751000Y-101350000D01*
G75*
G02*
X144700000Y-101401000I-51000J0D01*
G01*
X143800000Y-101401000D01*
G75*
G02*
X143749000Y-101350000I0J51000D01*
G01*
X143749000Y-100550000D01*
G75*
G02*
X143800000Y-100499000I51000J0D01*
G01*
X144700000Y-100499000D01*
G75*
G02*
X144751000Y-100550000I0J-51000D01*
G01*
G37*
%TD*%
D12*
%TO.C,J4*%
X153250000Y-119750000D03*
X153250000Y-117750000D03*
X153250000Y-115750000D03*
X153250000Y-113750000D03*
X153250000Y-111750000D03*
G36*
G01*
X152524000Y-110425000D02*
X152524000Y-109075000D01*
G75*
G02*
X152575000Y-109024000I51000J0D01*
G01*
X153925000Y-109024000D01*
G75*
G02*
X153976000Y-109075000I0J-51000D01*
G01*
X153976000Y-110425000D01*
G75*
G02*
X153925000Y-110476000I-51000J0D01*
G01*
X152575000Y-110476000D01*
G75*
G02*
X152524000Y-110425000I0J51000D01*
G01*
G37*
%TD*%
%TO.C,D1*%
G36*
G01*
X129781750Y-90701000D02*
X129218250Y-90701000D01*
G75*
G02*
X128974000Y-90456750I0J244250D01*
G01*
X128974000Y-89968250D01*
G75*
G02*
X129218250Y-89724000I244250J0D01*
G01*
X129781750Y-89724000D01*
G75*
G02*
X130026000Y-89968250I0J-244250D01*
G01*
X130026000Y-90456750D01*
G75*
G02*
X129781750Y-90701000I-244250J0D01*
G01*
G37*
G36*
G01*
X129781750Y-92276000D02*
X129218250Y-92276000D01*
G75*
G02*
X128974000Y-92031750I0J244250D01*
G01*
X128974000Y-91543250D01*
G75*
G02*
X129218250Y-91299000I244250J0D01*
G01*
X129781750Y-91299000D01*
G75*
G02*
X130026000Y-91543250I0J-244250D01*
G01*
X130026000Y-92031750D01*
G75*
G02*
X129781750Y-92276000I-244250J0D01*
G01*
G37*
%TD*%
%TO.C,C3*%
G36*
G01*
X147926000Y-99524500D02*
X147926000Y-100075500D01*
G75*
G02*
X147675500Y-100326000I-250500J0D01*
G01*
X147174500Y-100326000D01*
G75*
G02*
X146924000Y-100075500I0J250500D01*
G01*
X146924000Y-99524500D01*
G75*
G02*
X147174500Y-99274000I250500J0D01*
G01*
X147675500Y-99274000D01*
G75*
G02*
X147926000Y-99524500I0J-250500D01*
G01*
G37*
G36*
G01*
X149476000Y-99524500D02*
X149476000Y-100075500D01*
G75*
G02*
X149225500Y-100326000I-250500J0D01*
G01*
X148724500Y-100326000D01*
G75*
G02*
X148474000Y-100075500I0J250500D01*
G01*
X148474000Y-99524500D01*
G75*
G02*
X148724500Y-99274000I250500J0D01*
G01*
X149225500Y-99274000D01*
G75*
G02*
X149476000Y-99524500I0J-250500D01*
G01*
G37*
%TD*%
%TO.C,C2*%
G36*
G01*
X148554000Y-89075500D02*
X148554000Y-88524500D01*
G75*
G02*
X148804500Y-88274000I250500J0D01*
G01*
X149305500Y-88274000D01*
G75*
G02*
X149556000Y-88524500I0J-250500D01*
G01*
X149556000Y-89075500D01*
G75*
G02*
X149305500Y-89326000I-250500J0D01*
G01*
X148804500Y-89326000D01*
G75*
G02*
X148554000Y-89075500I0J250500D01*
G01*
G37*
G36*
G01*
X147004000Y-89075500D02*
X147004000Y-88524500D01*
G75*
G02*
X147254500Y-88274000I250500J0D01*
G01*
X147755500Y-88274000D01*
G75*
G02*
X148006000Y-88524500I0J-250500D01*
G01*
X148006000Y-89075500D01*
G75*
G02*
X147755500Y-89326000I-250500J0D01*
G01*
X147254500Y-89326000D01*
G75*
G02*
X147004000Y-89075500I0J250500D01*
G01*
G37*
%TD*%
%TO.C,C1*%
G36*
G01*
X150275500Y-103226000D02*
X149724500Y-103226000D01*
G75*
G02*
X149474000Y-102975500I0J250500D01*
G01*
X149474000Y-102474500D01*
G75*
G02*
X149724500Y-102224000I250500J0D01*
G01*
X150275500Y-102224000D01*
G75*
G02*
X150526000Y-102474500I0J-250500D01*
G01*
X150526000Y-102975500D01*
G75*
G02*
X150275500Y-103226000I-250500J0D01*
G01*
G37*
G36*
G01*
X150275500Y-104776000D02*
X149724500Y-104776000D01*
G75*
G02*
X149474000Y-104525500I0J250500D01*
G01*
X149474000Y-104024500D01*
G75*
G02*
X149724500Y-103774000I250500J0D01*
G01*
X150275500Y-103774000D01*
G75*
G02*
X150526000Y-104024500I0J-250500D01*
G01*
X150526000Y-104525500D01*
G75*
G02*
X150275500Y-104776000I-250500J0D01*
G01*
G37*
%TD*%
D11*
%TO.C,J1*%
X108080000Y-70800000D03*
G36*
G01*
X101449000Y-72300000D02*
X101449000Y-69300000D01*
G75*
G02*
X101500000Y-69249000I51000J0D01*
G01*
X104500000Y-69249000D01*
G75*
G02*
X104551000Y-69300000I0J-51000D01*
G01*
X104551000Y-72300000D01*
G75*
G02*
X104500000Y-72351000I-51000J0D01*
G01*
X101500000Y-72351000D01*
G75*
G02*
X101449000Y-72300000I0J51000D01*
G01*
G37*
%TD*%
%TO.C,R10*%
G36*
G01*
X137699500Y-103874000D02*
X138300500Y-103874000D01*
G75*
G02*
X138526000Y-104099500I0J-225500D01*
G01*
X138526000Y-104550500D01*
G75*
G02*
X138300500Y-104776000I-225500J0D01*
G01*
X137699500Y-104776000D01*
G75*
G02*
X137474000Y-104550500I0J225500D01*
G01*
X137474000Y-104099500D01*
G75*
G02*
X137699500Y-103874000I225500J0D01*
G01*
G37*
G36*
G01*
X137699500Y-102224000D02*
X138300500Y-102224000D01*
G75*
G02*
X138526000Y-102449500I0J-225500D01*
G01*
X138526000Y-102900500D01*
G75*
G02*
X138300500Y-103126000I-225500J0D01*
G01*
X137699500Y-103126000D01*
G75*
G02*
X137474000Y-102900500I0J225500D01*
G01*
X137474000Y-102449500D01*
G75*
G02*
X137699500Y-102224000I225500J0D01*
G01*
G37*
%TD*%
%TO.C,R9*%
G36*
G01*
X139699500Y-103874000D02*
X140300500Y-103874000D01*
G75*
G02*
X140526000Y-104099500I0J-225500D01*
G01*
X140526000Y-104550500D01*
G75*
G02*
X140300500Y-104776000I-225500J0D01*
G01*
X139699500Y-104776000D01*
G75*
G02*
X139474000Y-104550500I0J225500D01*
G01*
X139474000Y-104099500D01*
G75*
G02*
X139699500Y-103874000I225500J0D01*
G01*
G37*
G36*
G01*
X139699500Y-102224000D02*
X140300500Y-102224000D01*
G75*
G02*
X140526000Y-102449500I0J-225500D01*
G01*
X140526000Y-102900500D01*
G75*
G02*
X140300500Y-103126000I-225500J0D01*
G01*
X139699500Y-103126000D01*
G75*
G02*
X139474000Y-102900500I0J225500D01*
G01*
X139474000Y-102449500D01*
G75*
G02*
X139699500Y-102224000I225500J0D01*
G01*
G37*
%TD*%
%TO.C,Q3*%
G36*
G01*
X134251000Y-99600000D02*
X134251000Y-100400000D01*
G75*
G02*
X134200000Y-100451000I-51000J0D01*
G01*
X133300000Y-100451000D01*
G75*
G02*
X133249000Y-100400000I0J51000D01*
G01*
X133249000Y-99600000D01*
G75*
G02*
X133300000Y-99549000I51000J0D01*
G01*
X134200000Y-99549000D01*
G75*
G02*
X134251000Y-99600000I0J-51000D01*
G01*
G37*
G36*
G01*
X136251000Y-98650000D02*
X136251000Y-99450000D01*
G75*
G02*
X136200000Y-99501000I-51000J0D01*
G01*
X135300000Y-99501000D01*
G75*
G02*
X135249000Y-99450000I0J51000D01*
G01*
X135249000Y-98650000D01*
G75*
G02*
X135300000Y-98599000I51000J0D01*
G01*
X136200000Y-98599000D01*
G75*
G02*
X136251000Y-98650000I0J-51000D01*
G01*
G37*
G36*
G01*
X136251000Y-100550000D02*
X136251000Y-101350000D01*
G75*
G02*
X136200000Y-101401000I-51000J0D01*
G01*
X135300000Y-101401000D01*
G75*
G02*
X135249000Y-101350000I0J51000D01*
G01*
X135249000Y-100550000D01*
G75*
G02*
X135300000Y-100499000I51000J0D01*
G01*
X136200000Y-100499000D01*
G75*
G02*
X136251000Y-100550000I0J-51000D01*
G01*
G37*
%TD*%
%TO.C,Q2*%
G36*
G01*
X138501000Y-99600000D02*
X138501000Y-100400000D01*
G75*
G02*
X138450000Y-100451000I-51000J0D01*
G01*
X137550000Y-100451000D01*
G75*
G02*
X137499000Y-100400000I0J51000D01*
G01*
X137499000Y-99600000D01*
G75*
G02*
X137550000Y-99549000I51000J0D01*
G01*
X138450000Y-99549000D01*
G75*
G02*
X138501000Y-99600000I0J-51000D01*
G01*
G37*
G36*
G01*
X140501000Y-98650000D02*
X140501000Y-99450000D01*
G75*
G02*
X140450000Y-99501000I-51000J0D01*
G01*
X139550000Y-99501000D01*
G75*
G02*
X139499000Y-99450000I0J51000D01*
G01*
X139499000Y-98650000D01*
G75*
G02*
X139550000Y-98599000I51000J0D01*
G01*
X140450000Y-98599000D01*
G75*
G02*
X140501000Y-98650000I0J-51000D01*
G01*
G37*
G36*
G01*
X140501000Y-100550000D02*
X140501000Y-101350000D01*
G75*
G02*
X140450000Y-101401000I-51000J0D01*
G01*
X139550000Y-101401000D01*
G75*
G02*
X139499000Y-101350000I0J51000D01*
G01*
X139499000Y-100550000D01*
G75*
G02*
X139550000Y-100499000I51000J0D01*
G01*
X140450000Y-100499000D01*
G75*
G02*
X140501000Y-100550000I0J-51000D01*
G01*
G37*
%TD*%
D10*
%TO.C,K3*%
X123400000Y-125200000D03*
X111200000Y-125200000D03*
X111200000Y-113200000D03*
X123400000Y-113200000D03*
G36*
G01*
X124150000Y-117899000D02*
X126650000Y-117899000D01*
G75*
G02*
X126701000Y-117950000I0J-51000D01*
G01*
X126701000Y-120450000D01*
G75*
G02*
X126650000Y-120501000I-51000J0D01*
G01*
X124150000Y-120501000D01*
G75*
G02*
X124099000Y-120450000I0J51000D01*
G01*
X124099000Y-117950000D01*
G75*
G02*
X124150000Y-117899000I51000J0D01*
G01*
G37*
%TD*%
%TO.C,K2*%
X123400000Y-107600000D03*
X111200000Y-107600000D03*
X111200000Y-95600000D03*
X123400000Y-95600000D03*
G36*
G01*
X124150000Y-100299000D02*
X126650000Y-100299000D01*
G75*
G02*
X126701000Y-100350000I0J-51000D01*
G01*
X126701000Y-102850000D01*
G75*
G02*
X126650000Y-102901000I-51000J0D01*
G01*
X124150000Y-102901000D01*
G75*
G02*
X124099000Y-102850000I0J51000D01*
G01*
X124099000Y-100350000D01*
G75*
G02*
X124150000Y-100299000I51000J0D01*
G01*
G37*
%TD*%
%TO.C,D3*%
G36*
G01*
X130031750Y-111951000D02*
X129468250Y-111951000D01*
G75*
G02*
X129224000Y-111706750I0J244250D01*
G01*
X129224000Y-111218250D01*
G75*
G02*
X129468250Y-110974000I244250J0D01*
G01*
X130031750Y-110974000D01*
G75*
G02*
X130276000Y-111218250I0J-244250D01*
G01*
X130276000Y-111706750D01*
G75*
G02*
X130031750Y-111951000I-244250J0D01*
G01*
G37*
G36*
G01*
X130031750Y-113526000D02*
X129468250Y-113526000D01*
G75*
G02*
X129224000Y-113281750I0J244250D01*
G01*
X129224000Y-112793250D01*
G75*
G02*
X129468250Y-112549000I244250J0D01*
G01*
X130031750Y-112549000D01*
G75*
G02*
X130276000Y-112793250I0J-244250D01*
G01*
X130276000Y-113281750D01*
G75*
G02*
X130031750Y-113526000I-244250J0D01*
G01*
G37*
%TD*%
%TO.C,D2*%
G36*
G01*
X129781750Y-94201000D02*
X129218250Y-94201000D01*
G75*
G02*
X128974000Y-93956750I0J244250D01*
G01*
X128974000Y-93468250D01*
G75*
G02*
X129218250Y-93224000I244250J0D01*
G01*
X129781750Y-93224000D01*
G75*
G02*
X130026000Y-93468250I0J-244250D01*
G01*
X130026000Y-93956750D01*
G75*
G02*
X129781750Y-94201000I-244250J0D01*
G01*
G37*
G36*
G01*
X129781750Y-95776000D02*
X129218250Y-95776000D01*
G75*
G02*
X128974000Y-95531750I0J244250D01*
G01*
X128974000Y-95043250D01*
G75*
G02*
X129218250Y-94799000I244250J0D01*
G01*
X129781750Y-94799000D01*
G75*
G02*
X130026000Y-95043250I0J-244250D01*
G01*
X130026000Y-95531750D01*
G75*
G02*
X129781750Y-95776000I-244250J0D01*
G01*
G37*
%TD*%
D13*
%TO.C,U2*%
X131500000Y-80400000D03*
X136100000Y-80400000D03*
D14*
X150500000Y-80400000D03*
%TD*%
D11*
%TO.C,J6*%
X102760000Y-132000000D03*
G36*
G01*
X119551000Y-130500000D02*
X119551000Y-133500000D01*
G75*
G02*
X119500000Y-133551000I-51000J0D01*
G01*
X116500000Y-133551000D01*
G75*
G02*
X116449000Y-133500000I0J51000D01*
G01*
X116449000Y-130500000D01*
G75*
G02*
X116500000Y-130449000I51000J0D01*
G01*
X119500000Y-130449000D01*
G75*
G02*
X119551000Y-130500000I0J-51000D01*
G01*
G37*
X107840000Y-132000000D03*
X112920000Y-132000000D03*
%TD*%
M02*
