%TF.GenerationSoftware,KiCad,Pcbnew,(5.1.8)-1*%
%TF.CreationDate,2022-05-08T18:20:05+08:00*%
%TF.ProjectId,smartkey,736d6172-746b-4657-992e-6b696361645f,rev?*%
%TF.SameCoordinates,Original*%
%TF.FileFunction,Paste,Top*%
%TF.FilePolarity,Positive*%
%FSLAX46Y46*%
G04 Gerber Fmt 4.6, Leading zero omitted, Abs format (unit mm)*
G04 Created by KiCad (PCBNEW (5.1.8)-1) date 2022-05-08 18:20:05*
%MOMM*%
%LPD*%
G01*
G04 APERTURE LIST*
%ADD10R,1.100000X2.600000*%
%ADD11R,1.500000X2.000000*%
%ADD12R,3.800000X2.000000*%
%ADD13R,1.700000X0.900000*%
%ADD14R,0.900000X0.800000*%
G04 APERTURE END LIST*
%TO.C,D4*%
G36*
G01*
X129756250Y-130150000D02*
X129243750Y-130150000D01*
G75*
G02*
X129025000Y-129931250I0J218750D01*
G01*
X129025000Y-129493750D01*
G75*
G02*
X129243750Y-129275000I218750J0D01*
G01*
X129756250Y-129275000D01*
G75*
G02*
X129975000Y-129493750I0J-218750D01*
G01*
X129975000Y-129931250D01*
G75*
G02*
X129756250Y-130150000I-218750J0D01*
G01*
G37*
G36*
G01*
X129756250Y-131725000D02*
X129243750Y-131725000D01*
G75*
G02*
X129025000Y-131506250I0J218750D01*
G01*
X129025000Y-131068750D01*
G75*
G02*
X129243750Y-130850000I218750J0D01*
G01*
X129756250Y-130850000D01*
G75*
G02*
X129975000Y-131068750I0J-218750D01*
G01*
X129975000Y-131506250D01*
G75*
G02*
X129756250Y-131725000I-218750J0D01*
G01*
G37*
%TD*%
%TO.C,R6*%
G36*
G01*
X129775000Y-133325000D02*
X129225000Y-133325000D01*
G75*
G02*
X129025000Y-133125000I0J200000D01*
G01*
X129025000Y-132725000D01*
G75*
G02*
X129225000Y-132525000I200000J0D01*
G01*
X129775000Y-132525000D01*
G75*
G02*
X129975000Y-132725000I0J-200000D01*
G01*
X129975000Y-133125000D01*
G75*
G02*
X129775000Y-133325000I-200000J0D01*
G01*
G37*
G36*
G01*
X129775000Y-134975000D02*
X129225000Y-134975000D01*
G75*
G02*
X129025000Y-134775000I0J200000D01*
G01*
X129025000Y-134375000D01*
G75*
G02*
X129225000Y-134175000I200000J0D01*
G01*
X129775000Y-134175000D01*
G75*
G02*
X129975000Y-134375000I0J-200000D01*
G01*
X129975000Y-134775000D01*
G75*
G02*
X129775000Y-134975000I-200000J0D01*
G01*
G37*
%TD*%
D10*
%TO.C,U1*%
X150000000Y-122200000D03*
X148000000Y-122200000D03*
X146000000Y-122200000D03*
X144000000Y-122200000D03*
X142000000Y-122200000D03*
X140000000Y-122200000D03*
X138000000Y-122200000D03*
X136000000Y-122200000D03*
X136000000Y-106800000D03*
X138000000Y-106800000D03*
X140000000Y-106800000D03*
X142000000Y-106800000D03*
X144000000Y-106800000D03*
X146000000Y-106800000D03*
X148000000Y-106800000D03*
X150000000Y-106800000D03*
%TD*%
D11*
%TO.C,U3*%
X152700000Y-91250000D03*
X148100000Y-91250000D03*
X150400000Y-91250000D03*
D12*
X150400000Y-97550000D03*
%TD*%
D13*
%TO.C,SW1*%
X132250000Y-130050000D03*
X132250000Y-134450000D03*
%TD*%
%TO.C,R7*%
G36*
G01*
X141725000Y-103925000D02*
X142275000Y-103925000D01*
G75*
G02*
X142475000Y-104125000I0J-200000D01*
G01*
X142475000Y-104525000D01*
G75*
G02*
X142275000Y-104725000I-200000J0D01*
G01*
X141725000Y-104725000D01*
G75*
G02*
X141525000Y-104525000I0J200000D01*
G01*
X141525000Y-104125000D01*
G75*
G02*
X141725000Y-103925000I200000J0D01*
G01*
G37*
G36*
G01*
X141725000Y-102275000D02*
X142275000Y-102275000D01*
G75*
G02*
X142475000Y-102475000I0J-200000D01*
G01*
X142475000Y-102875000D01*
G75*
G02*
X142275000Y-103075000I-200000J0D01*
G01*
X141725000Y-103075000D01*
G75*
G02*
X141525000Y-102875000I0J200000D01*
G01*
X141525000Y-102475000D01*
G75*
G02*
X141725000Y-102275000I200000J0D01*
G01*
G37*
%TD*%
%TO.C,R5*%
G36*
G01*
X137175000Y-125025000D02*
X137175000Y-124475000D01*
G75*
G02*
X137375000Y-124275000I200000J0D01*
G01*
X137775000Y-124275000D01*
G75*
G02*
X137975000Y-124475000I0J-200000D01*
G01*
X137975000Y-125025000D01*
G75*
G02*
X137775000Y-125225000I-200000J0D01*
G01*
X137375000Y-125225000D01*
G75*
G02*
X137175000Y-125025000I0J200000D01*
G01*
G37*
G36*
G01*
X135525000Y-125025000D02*
X135525000Y-124475000D01*
G75*
G02*
X135725000Y-124275000I200000J0D01*
G01*
X136125000Y-124275000D01*
G75*
G02*
X136325000Y-124475000I0J-200000D01*
G01*
X136325000Y-125025000D01*
G75*
G02*
X136125000Y-125225000I-200000J0D01*
G01*
X135725000Y-125225000D01*
G75*
G02*
X135525000Y-125025000I0J200000D01*
G01*
G37*
%TD*%
%TO.C,R4*%
G36*
G01*
X131825000Y-127975000D02*
X131825000Y-128525000D01*
G75*
G02*
X131625000Y-128725000I-200000J0D01*
G01*
X131225000Y-128725000D01*
G75*
G02*
X131025000Y-128525000I0J200000D01*
G01*
X131025000Y-127975000D01*
G75*
G02*
X131225000Y-127775000I200000J0D01*
G01*
X131625000Y-127775000D01*
G75*
G02*
X131825000Y-127975000I0J-200000D01*
G01*
G37*
G36*
G01*
X133475000Y-127975000D02*
X133475000Y-128525000D01*
G75*
G02*
X133275000Y-128725000I-200000J0D01*
G01*
X132875000Y-128725000D01*
G75*
G02*
X132675000Y-128525000I0J200000D01*
G01*
X132675000Y-127975000D01*
G75*
G02*
X132875000Y-127775000I200000J0D01*
G01*
X133275000Y-127775000D01*
G75*
G02*
X133475000Y-127975000I0J-200000D01*
G01*
G37*
%TD*%
%TO.C,R3*%
G36*
G01*
X145725000Y-103925000D02*
X146275000Y-103925000D01*
G75*
G02*
X146475000Y-104125000I0J-200000D01*
G01*
X146475000Y-104525000D01*
G75*
G02*
X146275000Y-104725000I-200000J0D01*
G01*
X145725000Y-104725000D01*
G75*
G02*
X145525000Y-104525000I0J200000D01*
G01*
X145525000Y-104125000D01*
G75*
G02*
X145725000Y-103925000I200000J0D01*
G01*
G37*
G36*
G01*
X145725000Y-102275000D02*
X146275000Y-102275000D01*
G75*
G02*
X146475000Y-102475000I0J-200000D01*
G01*
X146475000Y-102875000D01*
G75*
G02*
X146275000Y-103075000I-200000J0D01*
G01*
X145725000Y-103075000D01*
G75*
G02*
X145525000Y-102875000I0J200000D01*
G01*
X145525000Y-102475000D01*
G75*
G02*
X145725000Y-102275000I200000J0D01*
G01*
G37*
%TD*%
%TO.C,R2*%
G36*
G01*
X140425000Y-125025000D02*
X140425000Y-124475000D01*
G75*
G02*
X140625000Y-124275000I200000J0D01*
G01*
X141025000Y-124275000D01*
G75*
G02*
X141225000Y-124475000I0J-200000D01*
G01*
X141225000Y-125025000D01*
G75*
G02*
X141025000Y-125225000I-200000J0D01*
G01*
X140625000Y-125225000D01*
G75*
G02*
X140425000Y-125025000I0J200000D01*
G01*
G37*
G36*
G01*
X138775000Y-125025000D02*
X138775000Y-124475000D01*
G75*
G02*
X138975000Y-124275000I200000J0D01*
G01*
X139375000Y-124275000D01*
G75*
G02*
X139575000Y-124475000I0J-200000D01*
G01*
X139575000Y-125025000D01*
G75*
G02*
X139375000Y-125225000I-200000J0D01*
G01*
X138975000Y-125225000D01*
G75*
G02*
X138775000Y-125025000I0J200000D01*
G01*
G37*
%TD*%
%TO.C,R1*%
G36*
G01*
X148275000Y-103075000D02*
X147725000Y-103075000D01*
G75*
G02*
X147525000Y-102875000I0J200000D01*
G01*
X147525000Y-102475000D01*
G75*
G02*
X147725000Y-102275000I200000J0D01*
G01*
X148275000Y-102275000D01*
G75*
G02*
X148475000Y-102475000I0J-200000D01*
G01*
X148475000Y-102875000D01*
G75*
G02*
X148275000Y-103075000I-200000J0D01*
G01*
G37*
G36*
G01*
X148275000Y-104725000D02*
X147725000Y-104725000D01*
G75*
G02*
X147525000Y-104525000I0J200000D01*
G01*
X147525000Y-104125000D01*
G75*
G02*
X147725000Y-103925000I200000J0D01*
G01*
X148275000Y-103925000D01*
G75*
G02*
X148475000Y-104125000I0J-200000D01*
G01*
X148475000Y-104525000D01*
G75*
G02*
X148275000Y-104725000I-200000J0D01*
G01*
G37*
%TD*%
D14*
%TO.C,Q1*%
X142250000Y-100000000D03*
X144250000Y-99050000D03*
X144250000Y-100950000D03*
%TD*%
%TO.C,D1*%
G36*
G01*
X129756250Y-90650000D02*
X129243750Y-90650000D01*
G75*
G02*
X129025000Y-90431250I0J218750D01*
G01*
X129025000Y-89993750D01*
G75*
G02*
X129243750Y-89775000I218750J0D01*
G01*
X129756250Y-89775000D01*
G75*
G02*
X129975000Y-89993750I0J-218750D01*
G01*
X129975000Y-90431250D01*
G75*
G02*
X129756250Y-90650000I-218750J0D01*
G01*
G37*
G36*
G01*
X129756250Y-92225000D02*
X129243750Y-92225000D01*
G75*
G02*
X129025000Y-92006250I0J218750D01*
G01*
X129025000Y-91568750D01*
G75*
G02*
X129243750Y-91350000I218750J0D01*
G01*
X129756250Y-91350000D01*
G75*
G02*
X129975000Y-91568750I0J-218750D01*
G01*
X129975000Y-92006250D01*
G75*
G02*
X129756250Y-92225000I-218750J0D01*
G01*
G37*
%TD*%
%TO.C,C3*%
G36*
G01*
X147875000Y-99550000D02*
X147875000Y-100050000D01*
G75*
G02*
X147650000Y-100275000I-225000J0D01*
G01*
X147200000Y-100275000D01*
G75*
G02*
X146975000Y-100050000I0J225000D01*
G01*
X146975000Y-99550000D01*
G75*
G02*
X147200000Y-99325000I225000J0D01*
G01*
X147650000Y-99325000D01*
G75*
G02*
X147875000Y-99550000I0J-225000D01*
G01*
G37*
G36*
G01*
X149425000Y-99550000D02*
X149425000Y-100050000D01*
G75*
G02*
X149200000Y-100275000I-225000J0D01*
G01*
X148750000Y-100275000D01*
G75*
G02*
X148525000Y-100050000I0J225000D01*
G01*
X148525000Y-99550000D01*
G75*
G02*
X148750000Y-99325000I225000J0D01*
G01*
X149200000Y-99325000D01*
G75*
G02*
X149425000Y-99550000I0J-225000D01*
G01*
G37*
%TD*%
%TO.C,C2*%
G36*
G01*
X148605000Y-89050000D02*
X148605000Y-88550000D01*
G75*
G02*
X148830000Y-88325000I225000J0D01*
G01*
X149280000Y-88325000D01*
G75*
G02*
X149505000Y-88550000I0J-225000D01*
G01*
X149505000Y-89050000D01*
G75*
G02*
X149280000Y-89275000I-225000J0D01*
G01*
X148830000Y-89275000D01*
G75*
G02*
X148605000Y-89050000I0J225000D01*
G01*
G37*
G36*
G01*
X147055000Y-89050000D02*
X147055000Y-88550000D01*
G75*
G02*
X147280000Y-88325000I225000J0D01*
G01*
X147730000Y-88325000D01*
G75*
G02*
X147955000Y-88550000I0J-225000D01*
G01*
X147955000Y-89050000D01*
G75*
G02*
X147730000Y-89275000I-225000J0D01*
G01*
X147280000Y-89275000D01*
G75*
G02*
X147055000Y-89050000I0J225000D01*
G01*
G37*
%TD*%
%TO.C,C1*%
G36*
G01*
X150250000Y-103175000D02*
X149750000Y-103175000D01*
G75*
G02*
X149525000Y-102950000I0J225000D01*
G01*
X149525000Y-102500000D01*
G75*
G02*
X149750000Y-102275000I225000J0D01*
G01*
X150250000Y-102275000D01*
G75*
G02*
X150475000Y-102500000I0J-225000D01*
G01*
X150475000Y-102950000D01*
G75*
G02*
X150250000Y-103175000I-225000J0D01*
G01*
G37*
G36*
G01*
X150250000Y-104725000D02*
X149750000Y-104725000D01*
G75*
G02*
X149525000Y-104500000I0J225000D01*
G01*
X149525000Y-104050000D01*
G75*
G02*
X149750000Y-103825000I225000J0D01*
G01*
X150250000Y-103825000D01*
G75*
G02*
X150475000Y-104050000I0J-225000D01*
G01*
X150475000Y-104500000D01*
G75*
G02*
X150250000Y-104725000I-225000J0D01*
G01*
G37*
%TD*%
%TO.C,R10*%
G36*
G01*
X137725000Y-103925000D02*
X138275000Y-103925000D01*
G75*
G02*
X138475000Y-104125000I0J-200000D01*
G01*
X138475000Y-104525000D01*
G75*
G02*
X138275000Y-104725000I-200000J0D01*
G01*
X137725000Y-104725000D01*
G75*
G02*
X137525000Y-104525000I0J200000D01*
G01*
X137525000Y-104125000D01*
G75*
G02*
X137725000Y-103925000I200000J0D01*
G01*
G37*
G36*
G01*
X137725000Y-102275000D02*
X138275000Y-102275000D01*
G75*
G02*
X138475000Y-102475000I0J-200000D01*
G01*
X138475000Y-102875000D01*
G75*
G02*
X138275000Y-103075000I-200000J0D01*
G01*
X137725000Y-103075000D01*
G75*
G02*
X137525000Y-102875000I0J200000D01*
G01*
X137525000Y-102475000D01*
G75*
G02*
X137725000Y-102275000I200000J0D01*
G01*
G37*
%TD*%
%TO.C,R9*%
G36*
G01*
X139725000Y-103925000D02*
X140275000Y-103925000D01*
G75*
G02*
X140475000Y-104125000I0J-200000D01*
G01*
X140475000Y-104525000D01*
G75*
G02*
X140275000Y-104725000I-200000J0D01*
G01*
X139725000Y-104725000D01*
G75*
G02*
X139525000Y-104525000I0J200000D01*
G01*
X139525000Y-104125000D01*
G75*
G02*
X139725000Y-103925000I200000J0D01*
G01*
G37*
G36*
G01*
X139725000Y-102275000D02*
X140275000Y-102275000D01*
G75*
G02*
X140475000Y-102475000I0J-200000D01*
G01*
X140475000Y-102875000D01*
G75*
G02*
X140275000Y-103075000I-200000J0D01*
G01*
X139725000Y-103075000D01*
G75*
G02*
X139525000Y-102875000I0J200000D01*
G01*
X139525000Y-102475000D01*
G75*
G02*
X139725000Y-102275000I200000J0D01*
G01*
G37*
%TD*%
%TO.C,Q3*%
X133750000Y-100000000D03*
X135750000Y-99050000D03*
X135750000Y-100950000D03*
%TD*%
%TO.C,Q2*%
X138000000Y-100000000D03*
X140000000Y-99050000D03*
X140000000Y-100950000D03*
%TD*%
%TO.C,D3*%
G36*
G01*
X130006250Y-111900000D02*
X129493750Y-111900000D01*
G75*
G02*
X129275000Y-111681250I0J218750D01*
G01*
X129275000Y-111243750D01*
G75*
G02*
X129493750Y-111025000I218750J0D01*
G01*
X130006250Y-111025000D01*
G75*
G02*
X130225000Y-111243750I0J-218750D01*
G01*
X130225000Y-111681250D01*
G75*
G02*
X130006250Y-111900000I-218750J0D01*
G01*
G37*
G36*
G01*
X130006250Y-113475000D02*
X129493750Y-113475000D01*
G75*
G02*
X129275000Y-113256250I0J218750D01*
G01*
X129275000Y-112818750D01*
G75*
G02*
X129493750Y-112600000I218750J0D01*
G01*
X130006250Y-112600000D01*
G75*
G02*
X130225000Y-112818750I0J-218750D01*
G01*
X130225000Y-113256250D01*
G75*
G02*
X130006250Y-113475000I-218750J0D01*
G01*
G37*
%TD*%
%TO.C,D2*%
G36*
G01*
X129756250Y-94150000D02*
X129243750Y-94150000D01*
G75*
G02*
X129025000Y-93931250I0J218750D01*
G01*
X129025000Y-93493750D01*
G75*
G02*
X129243750Y-93275000I218750J0D01*
G01*
X129756250Y-93275000D01*
G75*
G02*
X129975000Y-93493750I0J-218750D01*
G01*
X129975000Y-93931250D01*
G75*
G02*
X129756250Y-94150000I-218750J0D01*
G01*
G37*
G36*
G01*
X129756250Y-95725000D02*
X129243750Y-95725000D01*
G75*
G02*
X129025000Y-95506250I0J218750D01*
G01*
X129025000Y-95068750D01*
G75*
G02*
X129243750Y-94850000I218750J0D01*
G01*
X129756250Y-94850000D01*
G75*
G02*
X129975000Y-95068750I0J-218750D01*
G01*
X129975000Y-95506250D01*
G75*
G02*
X129756250Y-95725000I-218750J0D01*
G01*
G37*
%TD*%
M02*
