%TF.GenerationSoftware,KiCad,Pcbnew,(5.1.8)-1*%
%TF.CreationDate,2022-05-08T18:20:05+08:00*%
%TF.ProjectId,smartkey,736d6172-746b-4657-992e-6b696361645f,rev?*%
%TF.SameCoordinates,Original*%
%TF.FileFunction,Copper,L2,Bot*%
%TF.FilePolarity,Positive*%
%FSLAX46Y46*%
G04 Gerber Fmt 4.6, Leading zero omitted, Abs format (unit mm)*
G04 Created by KiCad (PCBNEW (5.1.8)-1) date 2022-05-08 18:20:05*
%MOMM*%
%LPD*%
G01*
G04 APERTURE LIST*
%TA.AperFunction,ComponentPad*%
%ADD10O,2.500000X2.500000*%
%TD*%
%TA.AperFunction,ComponentPad*%
%ADD11R,2.500000X2.500000*%
%TD*%
%TA.AperFunction,ComponentPad*%
%ADD12C,3.000000*%
%TD*%
%TA.AperFunction,ComponentPad*%
%ADD13R,3.000000X3.000000*%
%TD*%
%TA.AperFunction,ComponentPad*%
%ADD14O,1.350000X1.350000*%
%TD*%
%TA.AperFunction,ComponentPad*%
%ADD15R,1.350000X1.350000*%
%TD*%
%TA.AperFunction,SMDPad,CuDef*%
%ADD16R,2.000000X2.000000*%
%TD*%
%TA.AperFunction,ViaPad*%
%ADD17C,0.800000*%
%TD*%
%TA.AperFunction,Conductor*%
%ADD18C,0.400000*%
%TD*%
%TA.AperFunction,Conductor*%
%ADD19C,2.000000*%
%TD*%
%TA.AperFunction,Conductor*%
%ADD20C,1.000000*%
%TD*%
%TA.AperFunction,Conductor*%
%ADD21C,0.254000*%
%TD*%
%TA.AperFunction,Conductor*%
%ADD22C,0.350000*%
%TD*%
%ADD23C,0.350000*%
%ADD24O,2.999999X1.599999*%
%ADD25O,4.999999X1.599999*%
G04 APERTURE END LIST*
D10*
%TO.P,K1,5*%
%TO.N,+5V*%
X123400000Y-90000000D03*
%TO.P,K1,4*%
%TO.N,N/C*%
X111200000Y-90000000D03*
%TO.P,K1,3*%
%TO.N,OUT3_L*%
X111200000Y-78000000D03*
%TO.P,K1,2*%
%TO.N,Net-(D1-Pad2)*%
X123400000Y-78000000D03*
D11*
%TO.P,K1,1*%
%TO.N,220V_L*%
X125400000Y-84000000D03*
%TD*%
D12*
%TO.P,J2,4*%
%TO.N,+5V*%
X137010000Y-132000000D03*
D13*
%TO.P,J2,1*%
%TO.N,ADC*%
X152250000Y-132000000D03*
D12*
%TO.P,J2,3*%
%TO.N,GND*%
X142090000Y-132000000D03*
%TO.P,J2,2*%
%TO.N,CHECK_IO*%
X147170000Y-132000000D03*
%TD*%
D14*
%TO.P,J4,6*%
%TO.N,TXD*%
X153250000Y-119750000D03*
%TO.P,J4,5*%
%TO.N,RXD*%
X153250000Y-117750000D03*
%TO.P,J4,4*%
%TO.N,IO0*%
X153250000Y-115750000D03*
%TO.P,J4,3*%
%TO.N,EN*%
X153250000Y-113750000D03*
%TO.P,J4,2*%
%TO.N,GND*%
X153250000Y-111750000D03*
D15*
%TO.P,J4,1*%
%TO.N,+5V*%
X153250000Y-109750000D03*
%TD*%
D12*
%TO.P,J1,2*%
%TO.N,220V_L*%
X108080000Y-70800000D03*
D13*
%TO.P,J1,1*%
%TO.N,220V_N*%
X103000000Y-70800000D03*
%TD*%
D10*
%TO.P,K3,5*%
%TO.N,+5V*%
X123400000Y-125200000D03*
%TO.P,K3,4*%
%TO.N,N/C*%
X111200000Y-125200000D03*
%TO.P,K3,3*%
%TO.N,OUT1_L*%
X111200000Y-113200000D03*
%TO.P,K3,2*%
%TO.N,Net-(D3-Pad2)*%
X123400000Y-113200000D03*
D11*
%TO.P,K3,1*%
%TO.N,220V_L*%
X125400000Y-119200000D03*
%TD*%
D10*
%TO.P,K2,5*%
%TO.N,+5V*%
X123400000Y-107600000D03*
%TO.P,K2,4*%
%TO.N,N/C*%
X111200000Y-107600000D03*
%TO.P,K2,3*%
%TO.N,OUT2_L*%
X111200000Y-95600000D03*
%TO.P,K2,2*%
%TO.N,Net-(D2-Pad2)*%
X123400000Y-95600000D03*
D11*
%TO.P,K2,1*%
%TO.N,220V_L*%
X125400000Y-101600000D03*
%TD*%
D16*
%TO.P,U2,1*%
%TO.N,220V_L*%
X131500000Y-78600000D03*
%TO.P,U2,2*%
%TO.N,220V_N*%
X136100000Y-78600000D03*
%TO.P,U2,4*%
%TO.N,+5V*%
X149100000Y-78600000D03*
%TO.P,U2,3*%
%TO.N,GND*%
X151900000Y-78600000D03*
%TD*%
D12*
%TO.P,J6,4*%
%TO.N,220V_N*%
X102760000Y-132000000D03*
D13*
%TO.P,J6,1*%
%TO.N,OUT3_L*%
X118000000Y-132000000D03*
D12*
%TO.P,J6,3*%
%TO.N,OUT1_L*%
X107840000Y-132000000D03*
%TO.P,J6,2*%
%TO.N,OUT2_L*%
X112920000Y-132000000D03*
%TD*%
D17*
%TO.N,GND*%
X150400000Y-88800000D03*
X138400000Y-97400000D03*
X134200000Y-97600000D03*
X142800000Y-97200000D03*
X136000000Y-126400000D03*
%TO.N,+5V*%
X153000000Y-94000000D03*
X149000000Y-93500000D03*
X147000000Y-87000000D03*
X133200000Y-88800000D03*
X127600000Y-95400000D03*
X127800000Y-113000000D03*
%TO.N,+3V3*%
X144000000Y-104000000D03*
X134000000Y-106500000D03*
X139200000Y-126400000D03*
%TO.N,ADC*%
X148000000Y-114250000D03*
%TD*%
D18*
%TO.N,+5V*%
X152500000Y-93500000D02*
X149000000Y-93500000D01*
X153000000Y-94000000D02*
X152500000Y-93500000D01*
X147000000Y-79300000D02*
X147000000Y-87000000D01*
X147700000Y-78600000D02*
X147000000Y-79300000D01*
X149100000Y-78600000D02*
X147700000Y-78600000D01*
X124600000Y-88800000D02*
X123400000Y-90000000D01*
X133200000Y-88800000D02*
X124600000Y-88800000D01*
X127400000Y-113000000D02*
X127800000Y-113000000D01*
X123400000Y-109000000D02*
X127400000Y-113000000D01*
X123400000Y-107600000D02*
X123400000Y-109000000D01*
X127000000Y-95400000D02*
X127600000Y-95400000D01*
X123400000Y-91800000D02*
X127000000Y-95400000D01*
X123400000Y-90000000D02*
X123400000Y-91800000D01*
X137010000Y-129410000D02*
X137010000Y-132000000D01*
X132800000Y-125200000D02*
X137010000Y-129410000D01*
X123400000Y-125200000D02*
X132800000Y-125200000D01*
%TO.N,+3V3*%
X141500000Y-106500000D02*
X134000000Y-106500000D01*
X144000000Y-104000000D02*
X141500000Y-106500000D01*
X138000000Y-126400000D02*
X139200000Y-126400000D01*
X132400000Y-120800000D02*
X138000000Y-126400000D01*
X132400000Y-108100000D02*
X132400000Y-120800000D01*
X134000000Y-106500000D02*
X132400000Y-108100000D01*
D19*
%TO.N,220V_N*%
X102800000Y-131960000D02*
X102760000Y-132000000D01*
X103000000Y-70800000D02*
X102800000Y-71000000D01*
D20*
X130750000Y-68250000D02*
X105550000Y-68250000D01*
X105550000Y-68250000D02*
X103000000Y-70800000D01*
X136000000Y-73500000D02*
X130750000Y-68250000D01*
X136000000Y-78000000D02*
X136000000Y-73500000D01*
X102800000Y-71000000D02*
X102800000Y-131960000D01*
%TO.N,OUT1_L*%
X107700000Y-131860000D02*
X107840000Y-132000000D01*
X107700000Y-116700000D02*
X107700000Y-131860000D01*
X111200000Y-113200000D02*
X107700000Y-116700000D01*
%TO.N,OUT3_L*%
X116400000Y-130400000D02*
X118000000Y-132000000D01*
X116400000Y-83200000D02*
X116400000Y-130400000D01*
X111200000Y-78000000D02*
X116400000Y-83200000D01*
%TO.N,OUT2_L*%
X113800000Y-131120000D02*
X112920000Y-132000000D01*
X111200000Y-95600000D02*
X113800000Y-98200000D01*
X113800000Y-98200000D02*
X113800000Y-131120000D01*
D18*
%TO.N,ADC*%
X148000000Y-127750000D02*
X152250000Y-132000000D01*
X148000000Y-114250000D02*
X148000000Y-127750000D01*
D20*
%TO.N,220V_L*%
X108280000Y-71000000D02*
X108080000Y-70800000D01*
X129000000Y-71000000D02*
X108280000Y-71000000D01*
X131500000Y-73500000D02*
X129000000Y-71000000D01*
X131500000Y-78500000D02*
X131500000Y-73500000D01*
X110100000Y-70800000D02*
X108080000Y-70800000D01*
X123300000Y-84000000D02*
X110100000Y-70800000D01*
X125400000Y-84000000D02*
X123300000Y-84000000D01*
X121900000Y-101600000D02*
X125400000Y-101600000D01*
X118900000Y-98600000D02*
X121900000Y-101600000D01*
X118900000Y-86900000D02*
X118900000Y-98600000D01*
X121800000Y-84000000D02*
X118900000Y-86900000D01*
X125400000Y-84000000D02*
X121800000Y-84000000D01*
X123200000Y-119200000D02*
X125400000Y-119200000D01*
X119000000Y-105100000D02*
X119000000Y-115000000D01*
X119000000Y-115000000D02*
X123200000Y-119200000D01*
X122500000Y-101600000D02*
X119000000Y-105100000D01*
X125400000Y-101600000D02*
X122500000Y-101600000D01*
%TD*%
D21*
%TO.N,GND*%
X154340001Y-108594119D02*
X154279494Y-108544463D01*
X154169180Y-108485498D01*
X154049482Y-108449188D01*
X153925000Y-108436928D01*
X152575000Y-108436928D01*
X152450518Y-108449188D01*
X152330820Y-108485498D01*
X152220506Y-108544463D01*
X152123815Y-108623815D01*
X152044463Y-108720506D01*
X151985498Y-108830820D01*
X151949188Y-108950518D01*
X151936928Y-109075000D01*
X151936928Y-110425000D01*
X151949188Y-110549482D01*
X151985498Y-110669180D01*
X152044463Y-110779494D01*
X152123815Y-110876185D01*
X152217559Y-110953119D01*
X152120527Y-111086371D01*
X152012762Y-111319472D01*
X151982090Y-111420600D01*
X152105776Y-111623000D01*
X153123000Y-111623000D01*
X153123000Y-111603000D01*
X153377000Y-111603000D01*
X153377000Y-111623000D01*
X153397000Y-111623000D01*
X153397000Y-111877000D01*
X153377000Y-111877000D01*
X153377000Y-111897000D01*
X153123000Y-111897000D01*
X153123000Y-111877000D01*
X152105776Y-111877000D01*
X151982090Y-112079400D01*
X152012762Y-112180528D01*
X152120527Y-112413629D01*
X152271697Y-112621227D01*
X152404060Y-112743319D01*
X152232456Y-112914923D01*
X152089093Y-113129482D01*
X151990342Y-113367887D01*
X151940000Y-113620976D01*
X151940000Y-113879024D01*
X151990342Y-114132113D01*
X152089093Y-114370518D01*
X152232456Y-114585077D01*
X152397379Y-114750000D01*
X152232456Y-114914923D01*
X152089093Y-115129482D01*
X151990342Y-115367887D01*
X151940000Y-115620976D01*
X151940000Y-115879024D01*
X151990342Y-116132113D01*
X152089093Y-116370518D01*
X152232456Y-116585077D01*
X152397379Y-116750000D01*
X152232456Y-116914923D01*
X152089093Y-117129482D01*
X151990342Y-117367887D01*
X151940000Y-117620976D01*
X151940000Y-117879024D01*
X151990342Y-118132113D01*
X152089093Y-118370518D01*
X152232456Y-118585077D01*
X152397379Y-118750000D01*
X152232456Y-118914923D01*
X152089093Y-119129482D01*
X151990342Y-119367887D01*
X151940000Y-119620976D01*
X151940000Y-119879024D01*
X151990342Y-120132113D01*
X152089093Y-120370518D01*
X152232456Y-120585077D01*
X152414923Y-120767544D01*
X152629482Y-120910907D01*
X152867887Y-121009658D01*
X153120976Y-121060000D01*
X153379024Y-121060000D01*
X153632113Y-121009658D01*
X153870518Y-120910907D01*
X154085077Y-120767544D01*
X154267544Y-120585077D01*
X154340001Y-120476637D01*
X154340001Y-130257465D01*
X154339502Y-130255820D01*
X154280537Y-130145506D01*
X154201185Y-130048815D01*
X154104494Y-129969463D01*
X153994180Y-129910498D01*
X153874482Y-129874188D01*
X153750000Y-129861928D01*
X151292796Y-129861928D01*
X148835000Y-127404133D01*
X148835000Y-114863285D01*
X148917205Y-114740256D01*
X148995226Y-114551898D01*
X149035000Y-114351939D01*
X149035000Y-114148061D01*
X148995226Y-113948102D01*
X148917205Y-113759744D01*
X148803937Y-113590226D01*
X148659774Y-113446063D01*
X148490256Y-113332795D01*
X148301898Y-113254774D01*
X148101939Y-113215000D01*
X147898061Y-113215000D01*
X147698102Y-113254774D01*
X147509744Y-113332795D01*
X147340226Y-113446063D01*
X147196063Y-113590226D01*
X147082795Y-113759744D01*
X147004774Y-113948102D01*
X146965000Y-114148061D01*
X146965000Y-114351939D01*
X147004774Y-114551898D01*
X147082795Y-114740256D01*
X147165000Y-114863285D01*
X147165001Y-127708971D01*
X147160960Y-127750000D01*
X147177082Y-127913688D01*
X147224828Y-128071086D01*
X147224829Y-128071087D01*
X147302365Y-128216146D01*
X147406710Y-128343291D01*
X147438574Y-128369441D01*
X150111928Y-131042796D01*
X150111928Y-133500000D01*
X150124188Y-133624482D01*
X150160498Y-133744180D01*
X150219463Y-133854494D01*
X150298815Y-133951185D01*
X150395506Y-134030537D01*
X150505820Y-134089502D01*
X150625518Y-134125812D01*
X150750000Y-134138072D01*
X153750000Y-134138072D01*
X153874482Y-134125812D01*
X153994180Y-134089502D01*
X154104494Y-134030537D01*
X154201185Y-133951185D01*
X154280537Y-133854494D01*
X154339502Y-133744180D01*
X154340001Y-133742535D01*
X154340001Y-135340000D01*
X128524511Y-135340000D01*
X128489397Y-126035000D01*
X132454133Y-126035000D01*
X136175000Y-129755868D01*
X136175000Y-130034961D01*
X135998698Y-130107988D01*
X135649017Y-130341637D01*
X135351637Y-130639017D01*
X135117988Y-130988698D01*
X134957047Y-131377244D01*
X134875000Y-131789721D01*
X134875000Y-132210279D01*
X134957047Y-132622756D01*
X135117988Y-133011302D01*
X135351637Y-133360983D01*
X135649017Y-133658363D01*
X135998698Y-133892012D01*
X136387244Y-134052953D01*
X136799721Y-134135000D01*
X137220279Y-134135000D01*
X137632756Y-134052953D01*
X138021302Y-133892012D01*
X138370983Y-133658363D01*
X138537693Y-133491653D01*
X140777952Y-133491653D01*
X140933962Y-133807214D01*
X141308745Y-133998020D01*
X141713551Y-134112044D01*
X142132824Y-134144902D01*
X142550451Y-134095334D01*
X142950383Y-133965243D01*
X143246038Y-133807214D01*
X143402048Y-133491653D01*
X142090000Y-132179605D01*
X140777952Y-133491653D01*
X138537693Y-133491653D01*
X138668363Y-133360983D01*
X138902012Y-133011302D01*
X139062953Y-132622756D01*
X139145000Y-132210279D01*
X139145000Y-132042824D01*
X139945098Y-132042824D01*
X139994666Y-132460451D01*
X140124757Y-132860383D01*
X140282786Y-133156038D01*
X140598347Y-133312048D01*
X141910395Y-132000000D01*
X142269605Y-132000000D01*
X143581653Y-133312048D01*
X143897214Y-133156038D01*
X144088020Y-132781255D01*
X144202044Y-132376449D01*
X144234902Y-131957176D01*
X144215027Y-131789721D01*
X145035000Y-131789721D01*
X145035000Y-132210279D01*
X145117047Y-132622756D01*
X145277988Y-133011302D01*
X145511637Y-133360983D01*
X145809017Y-133658363D01*
X146158698Y-133892012D01*
X146547244Y-134052953D01*
X146959721Y-134135000D01*
X147380279Y-134135000D01*
X147792756Y-134052953D01*
X148181302Y-133892012D01*
X148530983Y-133658363D01*
X148828363Y-133360983D01*
X149062012Y-133011302D01*
X149222953Y-132622756D01*
X149305000Y-132210279D01*
X149305000Y-131789721D01*
X149222953Y-131377244D01*
X149062012Y-130988698D01*
X148828363Y-130639017D01*
X148530983Y-130341637D01*
X148181302Y-130107988D01*
X147792756Y-129947047D01*
X147380279Y-129865000D01*
X146959721Y-129865000D01*
X146547244Y-129947047D01*
X146158698Y-130107988D01*
X145809017Y-130341637D01*
X145511637Y-130639017D01*
X145277988Y-130988698D01*
X145117047Y-131377244D01*
X145035000Y-131789721D01*
X144215027Y-131789721D01*
X144185334Y-131539549D01*
X144055243Y-131139617D01*
X143897214Y-130843962D01*
X143581653Y-130687952D01*
X142269605Y-132000000D01*
X141910395Y-132000000D01*
X140598347Y-130687952D01*
X140282786Y-130843962D01*
X140091980Y-131218745D01*
X139977956Y-131623551D01*
X139945098Y-132042824D01*
X139145000Y-132042824D01*
X139145000Y-131789721D01*
X139062953Y-131377244D01*
X138902012Y-130988698D01*
X138668363Y-130639017D01*
X138537693Y-130508347D01*
X140777952Y-130508347D01*
X142090000Y-131820395D01*
X143402048Y-130508347D01*
X143246038Y-130192786D01*
X142871255Y-130001980D01*
X142466449Y-129887956D01*
X142047176Y-129855098D01*
X141629549Y-129904666D01*
X141229617Y-130034757D01*
X140933962Y-130192786D01*
X140777952Y-130508347D01*
X138537693Y-130508347D01*
X138370983Y-130341637D01*
X138021302Y-130107988D01*
X137845000Y-130034961D01*
X137845000Y-129451018D01*
X137849040Y-129409999D01*
X137832918Y-129246311D01*
X137785172Y-129088913D01*
X137707636Y-128943854D01*
X137603291Y-128816709D01*
X137571428Y-128790560D01*
X133419446Y-124638579D01*
X133393291Y-124606709D01*
X133266146Y-124502364D01*
X133121087Y-124424828D01*
X132963689Y-124377082D01*
X132841019Y-124365000D01*
X132841018Y-124365000D01*
X132800000Y-124360960D01*
X132758982Y-124365000D01*
X128483095Y-124365000D01*
X128443284Y-113814955D01*
X128459774Y-113803937D01*
X128603937Y-113659774D01*
X128717205Y-113490256D01*
X128795226Y-113301898D01*
X128835000Y-113101939D01*
X128835000Y-112898061D01*
X128795226Y-112698102D01*
X128717205Y-112509744D01*
X128603937Y-112340226D01*
X128459774Y-112196063D01*
X128437118Y-112180925D01*
X128421719Y-108100000D01*
X131560960Y-108100000D01*
X131565000Y-108141019D01*
X131565001Y-120758971D01*
X131560960Y-120800000D01*
X131577082Y-120963688D01*
X131624828Y-121121086D01*
X131624829Y-121121087D01*
X131702365Y-121266146D01*
X131806710Y-121393291D01*
X131838574Y-121419441D01*
X137380563Y-126961432D01*
X137406709Y-126993291D01*
X137438568Y-127019437D01*
X137438570Y-127019439D01*
X137533854Y-127097636D01*
X137678913Y-127175172D01*
X137836311Y-127222918D01*
X138000000Y-127239040D01*
X138041018Y-127235000D01*
X138586715Y-127235000D01*
X138709744Y-127317205D01*
X138898102Y-127395226D01*
X139098061Y-127435000D01*
X139301939Y-127435000D01*
X139501898Y-127395226D01*
X139690256Y-127317205D01*
X139859774Y-127203937D01*
X140003937Y-127059774D01*
X140117205Y-126890256D01*
X140195226Y-126701898D01*
X140235000Y-126501939D01*
X140235000Y-126298061D01*
X140195226Y-126098102D01*
X140117205Y-125909744D01*
X140003937Y-125740226D01*
X139859774Y-125596063D01*
X139690256Y-125482795D01*
X139501898Y-125404774D01*
X139301939Y-125365000D01*
X139098061Y-125365000D01*
X138898102Y-125404774D01*
X138709744Y-125482795D01*
X138586715Y-125565000D01*
X138345869Y-125565000D01*
X133235000Y-120454133D01*
X133235000Y-108445867D01*
X134156776Y-107524092D01*
X134301898Y-107495226D01*
X134490256Y-107417205D01*
X134613285Y-107335000D01*
X141458982Y-107335000D01*
X141500000Y-107339040D01*
X141541018Y-107335000D01*
X141541019Y-107335000D01*
X141663689Y-107322918D01*
X141821087Y-107275172D01*
X141966146Y-107197636D01*
X142093291Y-107093291D01*
X142119446Y-107061421D01*
X144156776Y-105024092D01*
X144301898Y-104995226D01*
X144490256Y-104917205D01*
X144659774Y-104803937D01*
X144803937Y-104659774D01*
X144917205Y-104490256D01*
X144995226Y-104301898D01*
X145035000Y-104101939D01*
X145035000Y-103898061D01*
X144995226Y-103698102D01*
X144917205Y-103509744D01*
X144803937Y-103340226D01*
X144659774Y-103196063D01*
X144490256Y-103082795D01*
X144301898Y-103004774D01*
X144101939Y-102965000D01*
X143898061Y-102965000D01*
X143698102Y-103004774D01*
X143509744Y-103082795D01*
X143340226Y-103196063D01*
X143196063Y-103340226D01*
X143082795Y-103509744D01*
X143004774Y-103698102D01*
X142975908Y-103843224D01*
X141154133Y-105665000D01*
X134613285Y-105665000D01*
X134490256Y-105582795D01*
X134301898Y-105504774D01*
X134101939Y-105465000D01*
X133898061Y-105465000D01*
X133698102Y-105504774D01*
X133509744Y-105582795D01*
X133340226Y-105696063D01*
X133196063Y-105840226D01*
X133082795Y-106009744D01*
X133004774Y-106198102D01*
X132975908Y-106343224D01*
X131838579Y-107480554D01*
X131806709Y-107506709D01*
X131702365Y-107633854D01*
X131702364Y-107633855D01*
X131624828Y-107778914D01*
X131577082Y-107936312D01*
X131560960Y-108100000D01*
X128421719Y-108100000D01*
X128376387Y-96087324D01*
X128403937Y-96059774D01*
X128517205Y-95890256D01*
X128595226Y-95701898D01*
X128635000Y-95501939D01*
X128635000Y-95298061D01*
X128595226Y-95098102D01*
X128517205Y-94909744D01*
X128403937Y-94740226D01*
X128371180Y-94707469D01*
X128366239Y-93398061D01*
X147965000Y-93398061D01*
X147965000Y-93601939D01*
X148004774Y-93801898D01*
X148082795Y-93990256D01*
X148196063Y-94159774D01*
X148340226Y-94303937D01*
X148509744Y-94417205D01*
X148698102Y-94495226D01*
X148898061Y-94535000D01*
X149101939Y-94535000D01*
X149301898Y-94495226D01*
X149490256Y-94417205D01*
X149613285Y-94335000D01*
X152018485Y-94335000D01*
X152082795Y-94490256D01*
X152196063Y-94659774D01*
X152340226Y-94803937D01*
X152509744Y-94917205D01*
X152698102Y-94995226D01*
X152898061Y-95035000D01*
X153101939Y-95035000D01*
X153301898Y-94995226D01*
X153490256Y-94917205D01*
X153659774Y-94803937D01*
X153803937Y-94659774D01*
X153917205Y-94490256D01*
X153995226Y-94301898D01*
X154035000Y-94101939D01*
X154035000Y-93898061D01*
X153995226Y-93698102D01*
X153917205Y-93509744D01*
X153803937Y-93340226D01*
X153659774Y-93196063D01*
X153490256Y-93082795D01*
X153301898Y-93004774D01*
X153156775Y-92975907D01*
X153119445Y-92938578D01*
X153093291Y-92906709D01*
X152966146Y-92802364D01*
X152821087Y-92724828D01*
X152663689Y-92677082D01*
X152541019Y-92665000D01*
X152541018Y-92665000D01*
X152500000Y-92660960D01*
X152458982Y-92665000D01*
X149613285Y-92665000D01*
X149490256Y-92582795D01*
X149301898Y-92504774D01*
X149101939Y-92465000D01*
X148898061Y-92465000D01*
X148698102Y-92504774D01*
X148509744Y-92582795D01*
X148340226Y-92696063D01*
X148196063Y-92840226D01*
X148082795Y-93009744D01*
X148004774Y-93198102D01*
X147965000Y-93398061D01*
X128366239Y-93398061D01*
X128352039Y-89635000D01*
X132586715Y-89635000D01*
X132709744Y-89717205D01*
X132898102Y-89795226D01*
X133098061Y-89835000D01*
X133301939Y-89835000D01*
X133501898Y-89795226D01*
X133690256Y-89717205D01*
X133859774Y-89603937D01*
X134003937Y-89459774D01*
X134117205Y-89290256D01*
X134195226Y-89101898D01*
X134235000Y-88901939D01*
X134235000Y-88698061D01*
X134195226Y-88498102D01*
X134117205Y-88309744D01*
X134003937Y-88140226D01*
X133859774Y-87996063D01*
X133690256Y-87882795D01*
X133501898Y-87804774D01*
X133301939Y-87765000D01*
X133098061Y-87765000D01*
X132898102Y-87804774D01*
X132709744Y-87882795D01*
X132586715Y-87965000D01*
X128345737Y-87965000D01*
X128341711Y-86898061D01*
X145965000Y-86898061D01*
X145965000Y-87101939D01*
X146004774Y-87301898D01*
X146082795Y-87490256D01*
X146196063Y-87659774D01*
X146340226Y-87803937D01*
X146509744Y-87917205D01*
X146698102Y-87995226D01*
X146898061Y-88035000D01*
X147101939Y-88035000D01*
X147301898Y-87995226D01*
X147490256Y-87917205D01*
X147659774Y-87803937D01*
X147803937Y-87659774D01*
X147917205Y-87490256D01*
X147995226Y-87301898D01*
X148035000Y-87101939D01*
X148035000Y-86898061D01*
X147995226Y-86698102D01*
X147917205Y-86509744D01*
X147835000Y-86386715D01*
X147835000Y-81464424D01*
X147998899Y-81598932D01*
X148248192Y-81732182D01*
X148518691Y-81814236D01*
X148729508Y-81835000D01*
X152270492Y-81835000D01*
X152481309Y-81814236D01*
X152751808Y-81732182D01*
X153001101Y-81598932D01*
X153219608Y-81419608D01*
X153398932Y-81201101D01*
X153532182Y-80951808D01*
X153614236Y-80681309D01*
X153641943Y-80400000D01*
X153614236Y-80118691D01*
X153532182Y-79848192D01*
X153504178Y-79795800D01*
X153525812Y-79724482D01*
X153538072Y-79600000D01*
X153535000Y-78885750D01*
X153376250Y-78727000D01*
X152027000Y-78727000D01*
X152027000Y-78747000D01*
X151773000Y-78747000D01*
X151773000Y-78727000D01*
X151753000Y-78727000D01*
X151753000Y-78473000D01*
X151773000Y-78473000D01*
X151773000Y-77123750D01*
X152027000Y-77123750D01*
X152027000Y-78473000D01*
X153376250Y-78473000D01*
X153535000Y-78314250D01*
X153538072Y-77600000D01*
X153525812Y-77475518D01*
X153489502Y-77355820D01*
X153430537Y-77245506D01*
X153351185Y-77148815D01*
X153254494Y-77069463D01*
X153144180Y-77010498D01*
X153024482Y-76974188D01*
X152900000Y-76961928D01*
X152185750Y-76965000D01*
X152027000Y-77123750D01*
X151773000Y-77123750D01*
X151614250Y-76965000D01*
X150900000Y-76961928D01*
X150775518Y-76974188D01*
X150655820Y-77010498D01*
X150545506Y-77069463D01*
X150500000Y-77106809D01*
X150454494Y-77069463D01*
X150344180Y-77010498D01*
X150224482Y-76974188D01*
X150100000Y-76961928D01*
X148100000Y-76961928D01*
X147975518Y-76974188D01*
X147855820Y-77010498D01*
X147745506Y-77069463D01*
X147648815Y-77148815D01*
X147569463Y-77245506D01*
X147510498Y-77355820D01*
X147474188Y-77475518D01*
X147461928Y-77600000D01*
X147461928Y-77799646D01*
X147378913Y-77824828D01*
X147233854Y-77902364D01*
X147106709Y-78006709D01*
X147080558Y-78038574D01*
X146438578Y-78680554D01*
X146406709Y-78706709D01*
X146302365Y-78833854D01*
X146302364Y-78833855D01*
X146224828Y-78978914D01*
X146177082Y-79136312D01*
X146160960Y-79300000D01*
X146165000Y-79341019D01*
X146165001Y-86386714D01*
X146082795Y-86509744D01*
X146004774Y-86698102D01*
X145965000Y-86898061D01*
X128341711Y-86898061D01*
X128329408Y-83637949D01*
X128370617Y-83650450D01*
X128467581Y-83660000D01*
X128500000Y-83663193D01*
X128532419Y-83660000D01*
X141967581Y-83660000D01*
X142000000Y-83663193D01*
X142032419Y-83660000D01*
X142129383Y-83650450D01*
X142253793Y-83612710D01*
X142368450Y-83551425D01*
X142468948Y-83468948D01*
X142551425Y-83368450D01*
X142612710Y-83253793D01*
X142650450Y-83129383D01*
X142663193Y-83000000D01*
X142660000Y-82967581D01*
X142660000Y-73032419D01*
X142663193Y-73000000D01*
X142650450Y-72870617D01*
X142612710Y-72746207D01*
X142551425Y-72631550D01*
X142468948Y-72531052D01*
X142368450Y-72448575D01*
X142253793Y-72387290D01*
X142129383Y-72349550D01*
X142127000Y-72349315D01*
X142127000Y-67460000D01*
X154340000Y-67460000D01*
X154340001Y-108594119D01*
%TA.AperFunction,Conductor*%
D22*
G36*
X154340001Y-108594119D02*
G01*
X154279494Y-108544463D01*
X154169180Y-108485498D01*
X154049482Y-108449188D01*
X153925000Y-108436928D01*
X152575000Y-108436928D01*
X152450518Y-108449188D01*
X152330820Y-108485498D01*
X152220506Y-108544463D01*
X152123815Y-108623815D01*
X152044463Y-108720506D01*
X151985498Y-108830820D01*
X151949188Y-108950518D01*
X151936928Y-109075000D01*
X151936928Y-110425000D01*
X151949188Y-110549482D01*
X151985498Y-110669180D01*
X152044463Y-110779494D01*
X152123815Y-110876185D01*
X152217559Y-110953119D01*
X152120527Y-111086371D01*
X152012762Y-111319472D01*
X151982090Y-111420600D01*
X152105776Y-111623000D01*
X153123000Y-111623000D01*
X153123000Y-111603000D01*
X153377000Y-111603000D01*
X153377000Y-111623000D01*
X153397000Y-111623000D01*
X153397000Y-111877000D01*
X153377000Y-111877000D01*
X153377000Y-111897000D01*
X153123000Y-111897000D01*
X153123000Y-111877000D01*
X152105776Y-111877000D01*
X151982090Y-112079400D01*
X152012762Y-112180528D01*
X152120527Y-112413629D01*
X152271697Y-112621227D01*
X152404060Y-112743319D01*
X152232456Y-112914923D01*
X152089093Y-113129482D01*
X151990342Y-113367887D01*
X151940000Y-113620976D01*
X151940000Y-113879024D01*
X151990342Y-114132113D01*
X152089093Y-114370518D01*
X152232456Y-114585077D01*
X152397379Y-114750000D01*
X152232456Y-114914923D01*
X152089093Y-115129482D01*
X151990342Y-115367887D01*
X151940000Y-115620976D01*
X151940000Y-115879024D01*
X151990342Y-116132113D01*
X152089093Y-116370518D01*
X152232456Y-116585077D01*
X152397379Y-116750000D01*
X152232456Y-116914923D01*
X152089093Y-117129482D01*
X151990342Y-117367887D01*
X151940000Y-117620976D01*
X151940000Y-117879024D01*
X151990342Y-118132113D01*
X152089093Y-118370518D01*
X152232456Y-118585077D01*
X152397379Y-118750000D01*
X152232456Y-118914923D01*
X152089093Y-119129482D01*
X151990342Y-119367887D01*
X151940000Y-119620976D01*
X151940000Y-119879024D01*
X151990342Y-120132113D01*
X152089093Y-120370518D01*
X152232456Y-120585077D01*
X152414923Y-120767544D01*
X152629482Y-120910907D01*
X152867887Y-121009658D01*
X153120976Y-121060000D01*
X153379024Y-121060000D01*
X153632113Y-121009658D01*
X153870518Y-120910907D01*
X154085077Y-120767544D01*
X154267544Y-120585077D01*
X154340001Y-120476637D01*
X154340001Y-130257465D01*
X154339502Y-130255820D01*
X154280537Y-130145506D01*
X154201185Y-130048815D01*
X154104494Y-129969463D01*
X153994180Y-129910498D01*
X153874482Y-129874188D01*
X153750000Y-129861928D01*
X151292796Y-129861928D01*
X148835000Y-127404133D01*
X148835000Y-114863285D01*
X148917205Y-114740256D01*
X148995226Y-114551898D01*
X149035000Y-114351939D01*
X149035000Y-114148061D01*
X148995226Y-113948102D01*
X148917205Y-113759744D01*
X148803937Y-113590226D01*
X148659774Y-113446063D01*
X148490256Y-113332795D01*
X148301898Y-113254774D01*
X148101939Y-113215000D01*
X147898061Y-113215000D01*
X147698102Y-113254774D01*
X147509744Y-113332795D01*
X147340226Y-113446063D01*
X147196063Y-113590226D01*
X147082795Y-113759744D01*
X147004774Y-113948102D01*
X146965000Y-114148061D01*
X146965000Y-114351939D01*
X147004774Y-114551898D01*
X147082795Y-114740256D01*
X147165000Y-114863285D01*
X147165001Y-127708971D01*
X147160960Y-127750000D01*
X147177082Y-127913688D01*
X147224828Y-128071086D01*
X147224829Y-128071087D01*
X147302365Y-128216146D01*
X147406710Y-128343291D01*
X147438574Y-128369441D01*
X150111928Y-131042796D01*
X150111928Y-133500000D01*
X150124188Y-133624482D01*
X150160498Y-133744180D01*
X150219463Y-133854494D01*
X150298815Y-133951185D01*
X150395506Y-134030537D01*
X150505820Y-134089502D01*
X150625518Y-134125812D01*
X150750000Y-134138072D01*
X153750000Y-134138072D01*
X153874482Y-134125812D01*
X153994180Y-134089502D01*
X154104494Y-134030537D01*
X154201185Y-133951185D01*
X154280537Y-133854494D01*
X154339502Y-133744180D01*
X154340001Y-133742535D01*
X154340001Y-135340000D01*
X128524511Y-135340000D01*
X128489397Y-126035000D01*
X132454133Y-126035000D01*
X136175000Y-129755868D01*
X136175000Y-130034961D01*
X135998698Y-130107988D01*
X135649017Y-130341637D01*
X135351637Y-130639017D01*
X135117988Y-130988698D01*
X134957047Y-131377244D01*
X134875000Y-131789721D01*
X134875000Y-132210279D01*
X134957047Y-132622756D01*
X135117988Y-133011302D01*
X135351637Y-133360983D01*
X135649017Y-133658363D01*
X135998698Y-133892012D01*
X136387244Y-134052953D01*
X136799721Y-134135000D01*
X137220279Y-134135000D01*
X137632756Y-134052953D01*
X138021302Y-133892012D01*
X138370983Y-133658363D01*
X138537693Y-133491653D01*
X140777952Y-133491653D01*
X140933962Y-133807214D01*
X141308745Y-133998020D01*
X141713551Y-134112044D01*
X142132824Y-134144902D01*
X142550451Y-134095334D01*
X142950383Y-133965243D01*
X143246038Y-133807214D01*
X143402048Y-133491653D01*
X142090000Y-132179605D01*
X140777952Y-133491653D01*
X138537693Y-133491653D01*
X138668363Y-133360983D01*
X138902012Y-133011302D01*
X139062953Y-132622756D01*
X139145000Y-132210279D01*
X139145000Y-132042824D01*
X139945098Y-132042824D01*
X139994666Y-132460451D01*
X140124757Y-132860383D01*
X140282786Y-133156038D01*
X140598347Y-133312048D01*
X141910395Y-132000000D01*
X142269605Y-132000000D01*
X143581653Y-133312048D01*
X143897214Y-133156038D01*
X144088020Y-132781255D01*
X144202044Y-132376449D01*
X144234902Y-131957176D01*
X144215027Y-131789721D01*
X145035000Y-131789721D01*
X145035000Y-132210279D01*
X145117047Y-132622756D01*
X145277988Y-133011302D01*
X145511637Y-133360983D01*
X145809017Y-133658363D01*
X146158698Y-133892012D01*
X146547244Y-134052953D01*
X146959721Y-134135000D01*
X147380279Y-134135000D01*
X147792756Y-134052953D01*
X148181302Y-133892012D01*
X148530983Y-133658363D01*
X148828363Y-133360983D01*
X149062012Y-133011302D01*
X149222953Y-132622756D01*
X149305000Y-132210279D01*
X149305000Y-131789721D01*
X149222953Y-131377244D01*
X149062012Y-130988698D01*
X148828363Y-130639017D01*
X148530983Y-130341637D01*
X148181302Y-130107988D01*
X147792756Y-129947047D01*
X147380279Y-129865000D01*
X146959721Y-129865000D01*
X146547244Y-129947047D01*
X146158698Y-130107988D01*
X145809017Y-130341637D01*
X145511637Y-130639017D01*
X145277988Y-130988698D01*
X145117047Y-131377244D01*
X145035000Y-131789721D01*
X144215027Y-131789721D01*
X144185334Y-131539549D01*
X144055243Y-131139617D01*
X143897214Y-130843962D01*
X143581653Y-130687952D01*
X142269605Y-132000000D01*
X141910395Y-132000000D01*
X140598347Y-130687952D01*
X140282786Y-130843962D01*
X140091980Y-131218745D01*
X139977956Y-131623551D01*
X139945098Y-132042824D01*
X139145000Y-132042824D01*
X139145000Y-131789721D01*
X139062953Y-131377244D01*
X138902012Y-130988698D01*
X138668363Y-130639017D01*
X138537693Y-130508347D01*
X140777952Y-130508347D01*
X142090000Y-131820395D01*
X143402048Y-130508347D01*
X143246038Y-130192786D01*
X142871255Y-130001980D01*
X142466449Y-129887956D01*
X142047176Y-129855098D01*
X141629549Y-129904666D01*
X141229617Y-130034757D01*
X140933962Y-130192786D01*
X140777952Y-130508347D01*
X138537693Y-130508347D01*
X138370983Y-130341637D01*
X138021302Y-130107988D01*
X137845000Y-130034961D01*
X137845000Y-129451018D01*
X137849040Y-129409999D01*
X137832918Y-129246311D01*
X137785172Y-129088913D01*
X137707636Y-128943854D01*
X137603291Y-128816709D01*
X137571428Y-128790560D01*
X133419446Y-124638579D01*
X133393291Y-124606709D01*
X133266146Y-124502364D01*
X133121087Y-124424828D01*
X132963689Y-124377082D01*
X132841019Y-124365000D01*
X132841018Y-124365000D01*
X132800000Y-124360960D01*
X132758982Y-124365000D01*
X128483095Y-124365000D01*
X128443284Y-113814955D01*
X128459774Y-113803937D01*
X128603937Y-113659774D01*
X128717205Y-113490256D01*
X128795226Y-113301898D01*
X128835000Y-113101939D01*
X128835000Y-112898061D01*
X128795226Y-112698102D01*
X128717205Y-112509744D01*
X128603937Y-112340226D01*
X128459774Y-112196063D01*
X128437118Y-112180925D01*
X128421719Y-108100000D01*
X131560960Y-108100000D01*
X131565000Y-108141019D01*
X131565001Y-120758971D01*
X131560960Y-120800000D01*
X131577082Y-120963688D01*
X131624828Y-121121086D01*
X131624829Y-121121087D01*
X131702365Y-121266146D01*
X131806710Y-121393291D01*
X131838574Y-121419441D01*
X137380563Y-126961432D01*
X137406709Y-126993291D01*
X137438568Y-127019437D01*
X137438570Y-127019439D01*
X137533854Y-127097636D01*
X137678913Y-127175172D01*
X137836311Y-127222918D01*
X138000000Y-127239040D01*
X138041018Y-127235000D01*
X138586715Y-127235000D01*
X138709744Y-127317205D01*
X138898102Y-127395226D01*
X139098061Y-127435000D01*
X139301939Y-127435000D01*
X139501898Y-127395226D01*
X139690256Y-127317205D01*
X139859774Y-127203937D01*
X140003937Y-127059774D01*
X140117205Y-126890256D01*
X140195226Y-126701898D01*
X140235000Y-126501939D01*
X140235000Y-126298061D01*
X140195226Y-126098102D01*
X140117205Y-125909744D01*
X140003937Y-125740226D01*
X139859774Y-125596063D01*
X139690256Y-125482795D01*
X139501898Y-125404774D01*
X139301939Y-125365000D01*
X139098061Y-125365000D01*
X138898102Y-125404774D01*
X138709744Y-125482795D01*
X138586715Y-125565000D01*
X138345869Y-125565000D01*
X133235000Y-120454133D01*
X133235000Y-108445867D01*
X134156776Y-107524092D01*
X134301898Y-107495226D01*
X134490256Y-107417205D01*
X134613285Y-107335000D01*
X141458982Y-107335000D01*
X141500000Y-107339040D01*
X141541018Y-107335000D01*
X141541019Y-107335000D01*
X141663689Y-107322918D01*
X141821087Y-107275172D01*
X141966146Y-107197636D01*
X142093291Y-107093291D01*
X142119446Y-107061421D01*
X144156776Y-105024092D01*
X144301898Y-104995226D01*
X144490256Y-104917205D01*
X144659774Y-104803937D01*
X144803937Y-104659774D01*
X144917205Y-104490256D01*
X144995226Y-104301898D01*
X145035000Y-104101939D01*
X145035000Y-103898061D01*
X144995226Y-103698102D01*
X144917205Y-103509744D01*
X144803937Y-103340226D01*
X144659774Y-103196063D01*
X144490256Y-103082795D01*
X144301898Y-103004774D01*
X144101939Y-102965000D01*
X143898061Y-102965000D01*
X143698102Y-103004774D01*
X143509744Y-103082795D01*
X143340226Y-103196063D01*
X143196063Y-103340226D01*
X143082795Y-103509744D01*
X143004774Y-103698102D01*
X142975908Y-103843224D01*
X141154133Y-105665000D01*
X134613285Y-105665000D01*
X134490256Y-105582795D01*
X134301898Y-105504774D01*
X134101939Y-105465000D01*
X133898061Y-105465000D01*
X133698102Y-105504774D01*
X133509744Y-105582795D01*
X133340226Y-105696063D01*
X133196063Y-105840226D01*
X133082795Y-106009744D01*
X133004774Y-106198102D01*
X132975908Y-106343224D01*
X131838579Y-107480554D01*
X131806709Y-107506709D01*
X131702365Y-107633854D01*
X131702364Y-107633855D01*
X131624828Y-107778914D01*
X131577082Y-107936312D01*
X131560960Y-108100000D01*
X128421719Y-108100000D01*
X128376387Y-96087324D01*
X128403937Y-96059774D01*
X128517205Y-95890256D01*
X128595226Y-95701898D01*
X128635000Y-95501939D01*
X128635000Y-95298061D01*
X128595226Y-95098102D01*
X128517205Y-94909744D01*
X128403937Y-94740226D01*
X128371180Y-94707469D01*
X128366239Y-93398061D01*
X147965000Y-93398061D01*
X147965000Y-93601939D01*
X148004774Y-93801898D01*
X148082795Y-93990256D01*
X148196063Y-94159774D01*
X148340226Y-94303937D01*
X148509744Y-94417205D01*
X148698102Y-94495226D01*
X148898061Y-94535000D01*
X149101939Y-94535000D01*
X149301898Y-94495226D01*
X149490256Y-94417205D01*
X149613285Y-94335000D01*
X152018485Y-94335000D01*
X152082795Y-94490256D01*
X152196063Y-94659774D01*
X152340226Y-94803937D01*
X152509744Y-94917205D01*
X152698102Y-94995226D01*
X152898061Y-95035000D01*
X153101939Y-95035000D01*
X153301898Y-94995226D01*
X153490256Y-94917205D01*
X153659774Y-94803937D01*
X153803937Y-94659774D01*
X153917205Y-94490256D01*
X153995226Y-94301898D01*
X154035000Y-94101939D01*
X154035000Y-93898061D01*
X153995226Y-93698102D01*
X153917205Y-93509744D01*
X153803937Y-93340226D01*
X153659774Y-93196063D01*
X153490256Y-93082795D01*
X153301898Y-93004774D01*
X153156775Y-92975907D01*
X153119445Y-92938578D01*
X153093291Y-92906709D01*
X152966146Y-92802364D01*
X152821087Y-92724828D01*
X152663689Y-92677082D01*
X152541019Y-92665000D01*
X152541018Y-92665000D01*
X152500000Y-92660960D01*
X152458982Y-92665000D01*
X149613285Y-92665000D01*
X149490256Y-92582795D01*
X149301898Y-92504774D01*
X149101939Y-92465000D01*
X148898061Y-92465000D01*
X148698102Y-92504774D01*
X148509744Y-92582795D01*
X148340226Y-92696063D01*
X148196063Y-92840226D01*
X148082795Y-93009744D01*
X148004774Y-93198102D01*
X147965000Y-93398061D01*
X128366239Y-93398061D01*
X128352039Y-89635000D01*
X132586715Y-89635000D01*
X132709744Y-89717205D01*
X132898102Y-89795226D01*
X133098061Y-89835000D01*
X133301939Y-89835000D01*
X133501898Y-89795226D01*
X133690256Y-89717205D01*
X133859774Y-89603937D01*
X134003937Y-89459774D01*
X134117205Y-89290256D01*
X134195226Y-89101898D01*
X134235000Y-88901939D01*
X134235000Y-88698061D01*
X134195226Y-88498102D01*
X134117205Y-88309744D01*
X134003937Y-88140226D01*
X133859774Y-87996063D01*
X133690256Y-87882795D01*
X133501898Y-87804774D01*
X133301939Y-87765000D01*
X133098061Y-87765000D01*
X132898102Y-87804774D01*
X132709744Y-87882795D01*
X132586715Y-87965000D01*
X128345737Y-87965000D01*
X128341711Y-86898061D01*
X145965000Y-86898061D01*
X145965000Y-87101939D01*
X146004774Y-87301898D01*
X146082795Y-87490256D01*
X146196063Y-87659774D01*
X146340226Y-87803937D01*
X146509744Y-87917205D01*
X146698102Y-87995226D01*
X146898061Y-88035000D01*
X147101939Y-88035000D01*
X147301898Y-87995226D01*
X147490256Y-87917205D01*
X147659774Y-87803937D01*
X147803937Y-87659774D01*
X147917205Y-87490256D01*
X147995226Y-87301898D01*
X148035000Y-87101939D01*
X148035000Y-86898061D01*
X147995226Y-86698102D01*
X147917205Y-86509744D01*
X147835000Y-86386715D01*
X147835000Y-81464424D01*
X147998899Y-81598932D01*
X148248192Y-81732182D01*
X148518691Y-81814236D01*
X148729508Y-81835000D01*
X152270492Y-81835000D01*
X152481309Y-81814236D01*
X152751808Y-81732182D01*
X153001101Y-81598932D01*
X153219608Y-81419608D01*
X153398932Y-81201101D01*
X153532182Y-80951808D01*
X153614236Y-80681309D01*
X153641943Y-80400000D01*
X153614236Y-80118691D01*
X153532182Y-79848192D01*
X153504178Y-79795800D01*
X153525812Y-79724482D01*
X153538072Y-79600000D01*
X153535000Y-78885750D01*
X153376250Y-78727000D01*
X152027000Y-78727000D01*
X152027000Y-78747000D01*
X151773000Y-78747000D01*
X151773000Y-78727000D01*
X151753000Y-78727000D01*
X151753000Y-78473000D01*
X151773000Y-78473000D01*
X151773000Y-77123750D01*
X152027000Y-77123750D01*
X152027000Y-78473000D01*
X153376250Y-78473000D01*
X153535000Y-78314250D01*
X153538072Y-77600000D01*
X153525812Y-77475518D01*
X153489502Y-77355820D01*
X153430537Y-77245506D01*
X153351185Y-77148815D01*
X153254494Y-77069463D01*
X153144180Y-77010498D01*
X153024482Y-76974188D01*
X152900000Y-76961928D01*
X152185750Y-76965000D01*
X152027000Y-77123750D01*
X151773000Y-77123750D01*
X151614250Y-76965000D01*
X150900000Y-76961928D01*
X150775518Y-76974188D01*
X150655820Y-77010498D01*
X150545506Y-77069463D01*
X150500000Y-77106809D01*
X150454494Y-77069463D01*
X150344180Y-77010498D01*
X150224482Y-76974188D01*
X150100000Y-76961928D01*
X148100000Y-76961928D01*
X147975518Y-76974188D01*
X147855820Y-77010498D01*
X147745506Y-77069463D01*
X147648815Y-77148815D01*
X147569463Y-77245506D01*
X147510498Y-77355820D01*
X147474188Y-77475518D01*
X147461928Y-77600000D01*
X147461928Y-77799646D01*
X147378913Y-77824828D01*
X147233854Y-77902364D01*
X147106709Y-78006709D01*
X147080558Y-78038574D01*
X146438578Y-78680554D01*
X146406709Y-78706709D01*
X146302365Y-78833854D01*
X146302364Y-78833855D01*
X146224828Y-78978914D01*
X146177082Y-79136312D01*
X146160960Y-79300000D01*
X146165000Y-79341019D01*
X146165001Y-86386714D01*
X146082795Y-86509744D01*
X146004774Y-86698102D01*
X145965000Y-86898061D01*
X128341711Y-86898061D01*
X128329408Y-83637949D01*
X128370617Y-83650450D01*
X128467581Y-83660000D01*
X128500000Y-83663193D01*
X128532419Y-83660000D01*
X141967581Y-83660000D01*
X142000000Y-83663193D01*
X142032419Y-83660000D01*
X142129383Y-83650450D01*
X142253793Y-83612710D01*
X142368450Y-83551425D01*
X142468948Y-83468948D01*
X142551425Y-83368450D01*
X142612710Y-83253793D01*
X142650450Y-83129383D01*
X142663193Y-83000000D01*
X142660000Y-82967581D01*
X142660000Y-73032419D01*
X142663193Y-73000000D01*
X142650450Y-72870617D01*
X142612710Y-72746207D01*
X142551425Y-72631550D01*
X142468948Y-72531052D01*
X142368450Y-72448575D01*
X142253793Y-72387290D01*
X142129383Y-72349550D01*
X142127000Y-72349315D01*
X142127000Y-67460000D01*
X154340000Y-67460000D01*
X154340001Y-108594119D01*
G37*
%TD.AperFunction*%
%TD*%
D23*
X150400000Y-88800000D03*
X138400000Y-97400000D03*
X134200000Y-97600000D03*
X142800000Y-97200000D03*
X136000000Y-126400000D03*
X153000000Y-94000000D03*
X149000000Y-93500000D03*
X147000000Y-87000000D03*
X133200000Y-88800000D03*
X127600000Y-95400000D03*
X127800000Y-113000000D03*
X144000000Y-104000000D03*
X134000000Y-106500000D03*
X139200000Y-126400000D03*
X148000000Y-114250000D03*
X123400000Y-90000000D03*
X111200000Y-90000000D03*
X111200000Y-78000000D03*
X123400000Y-78000000D03*
X125400000Y-84000000D03*
X137010000Y-132000000D03*
X152250000Y-132000000D03*
X142090000Y-132000000D03*
X147170000Y-132000000D03*
X153250000Y-119750000D03*
X153250000Y-117750000D03*
X153250000Y-115750000D03*
X153250000Y-113750000D03*
X153250000Y-111750000D03*
X153250000Y-109750000D03*
X108080000Y-70800000D03*
X103000000Y-70800000D03*
X123400000Y-125200000D03*
X111200000Y-125200000D03*
X111200000Y-113200000D03*
X123400000Y-113200000D03*
X125400000Y-119200000D03*
X123400000Y-107600000D03*
X111200000Y-107600000D03*
X111200000Y-95600000D03*
X123400000Y-95600000D03*
X125400000Y-101600000D03*
D24*
X131500000Y-80400000D03*
X136100000Y-80400000D03*
D25*
X150500000Y-80400000D03*
D23*
X102760000Y-132000000D03*
X118000000Y-132000000D03*
X107840000Y-132000000D03*
X112920000Y-132000000D03*
M02*
